<svg width="171" height="41" viewBox="0 0 171 41" fill="none" xmlns="http://www.w3.org/2000/svg">
	<path d="M169.048 7.10003C168.162 7.71903 167.375 8.27773 166.579 8.82073C165.733 9.39773 165.311 9.31371 164.679 8.46771C163.721 7.06405 162.333 6.01057 160.723 5.46575C159.114 4.92093 157.37 4.91483 155.757 5.44817C154.818 5.64874 153.958 6.11585 153.278 6.79388C152.599 7.4719 152.13 8.33176 151.928 9.26995C151.647 10.2467 151.693 11.2887 152.058 12.2372C152.423 13.1858 153.087 13.9891 153.95 14.5258C155.85 15.7508 157.88 16.7628 159.859 17.8588C161.838 18.9548 163.894 19.9338 165.795 21.1528C167.622 22.2151 169.06 23.8358 169.897 25.7763C170.735 27.7168 170.928 29.8749 170.447 31.933C169.621 36.488 166.577 39.2328 162.212 40.2328C155.83 41.6928 149.755 39.8538 146.217 33.2538C146.156 33.1388 146.109 33.017 146.017 32.811L149.638 30.351C150.511 31.6746 151.459 32.9477 152.476 34.164C155.576 37.495 161.152 37.687 164.19 34.664C165.379 33.4897 166.055 31.892 166.068 30.2206C166.081 28.5493 165.431 26.9408 164.26 25.748C162.585 24.048 160.413 23.1571 158.321 22.1161C155.839 20.9903 153.441 19.6865 151.146 18.2158C147.618 15.7668 146.481 12.1619 147.567 8.0639C148.632 4.0479 151.72 2.17198 155.597 1.49798C158.633 0.882708 161.787 1.2925 164.565 2.66302C166.476 3.6512 168.04 5.19917 169.048 7.10003Z" fill="url(#paint0_linear_1_26608)" />
	<path d="M42.9 2.0752C47.865 2.2822 52.754 2.2019 57.566 2.7749C59.4957 2.92345 61.3176 3.72367 62.7327 5.04395C64.1479 6.36422 65.0722 8.12626 65.354 10.041C66.203 14.402 65.689 18.4801 61.819 21.3911C59.4953 23.0021 56.7115 23.8154 53.886 23.709C51.722 23.738 49.557 23.709 47.263 23.709V39.6001H42.9V2.0752ZM47.3 6.05615V19.937C50.311 19.8852 53.3172 19.675 56.306 19.3071C59.769 18.7151 61.214 16.5469 61.199 12.9209C61.184 9.4209 59.657 7.24613 56.236 6.68213C53.326 6.20013 50.337 6.24915 47.293 6.05615H47.3Z" fill="url(#paint1_linear_1_26608)" />
	<path d="M36.408 39.6592C34.849 39.6592 33.514 39.706 32.188 39.624C32.0014 39.5682 31.8295 39.4718 31.6844 39.3418C31.5394 39.2118 31.4249 39.0514 31.349 38.8721C30.195 36.1741 29.0747 33.4612 27.988 30.7339C27.9166 30.4339 27.7372 30.1709 27.4842 29.9946C27.2312 29.8183 26.9222 29.741 26.616 29.7778C21.2113 29.8138 15.8063 29.8138 10.401 29.7778C10.1116 29.742 9.81911 29.814 9.57935 29.98C9.33958 30.146 9.16931 30.3947 9.10101 30.6782C8.01701 33.4062 6.85801 36.1041 5.77301 38.8301C5.71277 39.1021 5.55104 39.3407 5.3208 39.4976C5.09056 39.6544 4.80916 39.7173 4.534 39.6738C3.309 39.6108 2.07901 39.6558 0.656006 39.6558L18.503 2.21924L36.408 39.6592ZM25.969 25.9839L18.476 10.1958L11.048 25.9839H25.969Z" fill="url(#paint2_linear_1_26608)" />
	<path d="M85.965 39.6201H81.572V6.30811H68.722V2.354H98.769V6.30615H85.969L85.965 39.6201Z" fill="url(#paint3_linear_1_26608)" />
	<path d="M139.989 19.2998H138.689C134.356 19.2998 130.022 19.2718 125.689 19.3208C125.243 19.3615 124.795 19.283 124.389 19.0933C123.984 18.9035 123.636 18.6096 123.382 18.2412C123.122 17.8943 122.833 17.5693 122.519 17.27C122.412 17.1403 122.278 17.0353 122.126 16.9624C121.975 16.8895 121.809 16.8504 121.641 16.8477C121.472 16.8449 121.306 16.8784 121.152 16.9463C120.998 17.0142 120.86 17.1151 120.749 17.2412C120.722 17.2606 120.697 17.2836 120.677 17.3101C119.505 19.2201 117.713 19.3819 115.677 19.3359C110.877 19.2249 106.077 19.2998 101.277 19.2998H99.89C100.276 17.6708 100.598 16.1659 101.026 14.6919C101.083 14.4919 101.68 14.3599 102.026 14.3589C107.793 14.3389 113.56 14.3132 119.326 14.3672C119.953 14.4178 120.582 14.3088 121.156 14.0508C121.729 13.7927 122.228 13.3938 122.606 12.8911C123.745 11.4431 124.283 11.4269 125.397 12.8779C125.774 13.3996 126.282 13.8124 126.869 14.0747C127.457 14.337 128.103 14.4398 128.743 14.3721C131.807 14.2821 134.876 14.3721 137.943 14.3271C138.643 14.3171 138.977 14.5269 139.109 15.2109C139.365 16.5139 139.666 17.8078 139.989 19.2998Z" fill="url(#paint4_linear_1_26608)" />
	<path d="M139.75 24.6824C139.163 26.3594 138.674 27.8365 138.109 29.2825C138.03 29.4825 137.58 29.6511 137.301 29.6521C130.864 29.6721 124.426 29.6963 117.99 29.6213C117.291 29.4914 116.661 29.1186 116.211 28.5691C114.471 26.7281 114.443 26.6454 112.745 28.5144C112.394 28.9269 111.949 29.2489 111.447 29.4534C110.945 29.6578 110.402 29.7387 109.862 29.6892C107.497 29.6172 105.127 29.6454 102.762 29.6824C102.502 29.7284 102.234 29.6718 102.015 29.5246C101.796 29.3775 101.643 29.1513 101.587 28.8933C101.161 27.5373 100.693 26.1934 100.187 24.6814H101.5C105.135 24.6814 108.771 24.6505 112.406 24.6985C112.971 24.7542 113.541 24.66 114.058 24.426C114.575 24.192 115.022 23.8266 115.353 23.3655C115.555 23.0995 115.777 22.8493 116.017 22.6174C116.623 21.9974 117.382 21.9304 117.817 22.6394C119.039 24.6314 120.852 24.7511 122.917 24.7131C128.052 24.6131 133.189 24.6814 138.325 24.6814L139.75 24.6824Z" fill="url(#paint5_linear_1_26608)" />
	<path d="M136.006 9.00672C134.506 9.00672 133.306 9.04979 132.116 8.98279C131.695 8.923 131.301 8.74086 130.982 8.45887C130.593 8.09512 130.233 7.70101 129.905 7.28064C129.005 6.27364 128.373 6.211 127.547 7.266C127.085 7.88571 126.471 8.37581 125.765 8.68934C125.058 9.00286 124.283 9.12927 123.513 9.05604C117.413 8.94104 111.313 9.01111 105.213 9.01111H103.9C108.116 3.73911 113.365 1.02712 119.833 0.990118C126.395 0.953118 131.714 3.67972 136.006 9.00672Z" fill="url(#paint6_linear_1_26608)" />
	<path d="M105.675 34.8452C106.417 34.1722 107.188 33.545 107.875 32.832C108.825 31.849 109.439 31.7488 110.23 32.8388C110.666 33.4573 111.261 33.9473 111.952 34.2568C112.643 34.5663 113.404 34.6841 114.156 34.5981C120.556 34.4981 126.956 34.558 133.362 34.558H134.402C127.719 42.608 113.278 43.4592 105.675 34.8452Z" fill="url(#paint7_linear_1_26608)" />
	<defs>
		<linearGradient id="paint0_linear_1_26608" x1="146.017" y1="20.961" x2="170.706" y2="20.961" gradientUnits="userSpaceOnUse">
			<stop stop-color="#F29316" />
			<stop offset="1" stop-color="#FFB340" />
		</linearGradient>
		<linearGradient id="paint1_linear_1_26608" x1="42.9" y1="20.8376" x2="65.7048" y2="20.8376" gradientUnits="userSpaceOnUse">
			<stop stop-color="#F29316" />
			<stop offset="1" stop-color="#FFB340" />
		</linearGradient>
		<linearGradient id="paint2_linear_1_26608" x1="0.656006" y1="20.9533" x2="36.408" y2="20.9533" gradientUnits="userSpaceOnUse">
			<stop stop-color="#F29316" />
			<stop offset="1" stop-color="#FFB340" />
		</linearGradient>
		<linearGradient id="paint3_linear_1_26608" x1="68.722" y1="20.9871" x2="98.769" y2="20.9871" gradientUnits="userSpaceOnUse">
			<stop stop-color="#F29316" />
			<stop offset="1" stop-color="#FFB340" />
		</linearGradient>
		<linearGradient id="paint4_linear_1_26608" x1="99.89" y1="15.5698" x2="139.989" y2="15.5698" gradientUnits="userSpaceOnUse">
			<stop stop-color="#F29316" />
			<stop offset="1" stop-color="#FFB340" />
		</linearGradient>
		<linearGradient id="paint5_linear_1_26608" x1="100.187" y1="25.9166" x2="139.75" y2="25.9166" gradientUnits="userSpaceOnUse">
			<stop stop-color="#F29316" />
			<stop offset="1" stop-color="#FFB340" />
		</linearGradient>
		<linearGradient id="paint6_linear_1_26608" x1="103.9" y1="5.033" x2="136.006" y2="5.033" gradientUnits="userSpaceOnUse">
			<stop stop-color="#F29316" />
			<stop offset="1" stop-color="#FFB340" />
		</linearGradient>
		<linearGradient id="paint7_linear_1_26608" x1="105.675" y1="36.5077" x2="134.402" y2="36.5077" gradientUnits="userSpaceOnUse">
			<stop stop-color="#F29316" />
			<stop offset="1" stop-color="#FFB340" />
		</linearGradient>
	</defs>
</svg>
