<svg width="171" height="62" viewBox="0 0 171 62" fill="none" xmlns="http://www.w3.org/2000/svg">
	<path d="M0.494019 31.0598L13.854 18.0447C15.299 16.6377 16.7 15.183 18.206 13.845C18.7358 13.3901 19.3952 13.1133 20.091 13.054C21.917 12.954 23.757 13.0899 25.584 12.9959C25.8718 12.9638 26.1501 12.8734 26.4018 12.7302C26.6535 12.587 26.8734 12.3939 27.048 12.1628C28.053 10.6348 28.889 8.997 29.864 7.448C30.1427 6.99475 30.5689 6.65104 31.071 6.47486C39.027 4.35986 46.995 2.292 54.962 0.218997C55.1339 0.201741 55.3071 0.201741 55.479 0.218997C56.3457 3.359 57.2197 6.51446 58.101 9.68579C59.352 14.2298 60.574 18.7857 61.867 23.3147C62.0082 23.7174 62.0503 24.1481 61.9899 24.5706C61.9295 24.993 61.7684 25.3949 61.52 25.7419C60.559 27.1909 59.663 28.6875 58.839 30.2175C58.7386 30.4434 58.6873 30.6881 58.6883 30.9353C58.6893 31.1825 58.7427 31.4266 58.845 31.6516C59.745 33.2986 60.785 34.8666 61.698 36.5056C61.9574 36.9628 62.048 37.4968 61.954 38.0139C59.834 45.8739 57.667 53.7209 55.461 61.7459C53.347 61.1959 51.29 60.6627 49.234 60.1257C43.305 58.5767 37.369 57.0517 31.457 55.4417C30.7545 55.2042 30.1495 54.7425 29.735 54.1277C28.783 52.7277 27.962 51.2407 27.153 49.7537C26.785 49.0777 26.366 48.6638 25.553 48.8088C25.4159 48.8213 25.278 48.8213 25.141 48.8088C23.083 48.7888 20.81 49.309 19.028 48.596C17.296 47.905 16.064 45.9555 14.62 44.5505C10.2867 40.3325 5.95098 36.1147 1.61298 31.8967C1.25743 31.5951 0.883769 31.3157 0.494019 31.0598ZM51.725 49.3806C51.902 48.9566 52.025 48.7247 52.096 48.4807C53.704 42.8997 55.323 37.3228 56.884 31.7288C57.017 31.1118 56.9878 30.4711 56.799 29.8689C55.316 24.5379 53.791 19.2177 52.271 13.8977C52.15 13.4747 51.971 13.0687 51.782 12.5447C51.6317 12.7089 51.4918 12.8822 51.363 13.0637C47.978 18.7697 44.579 24.4637 41.251 30.2087C41.1499 30.4794 41.1086 30.7688 41.13 31.0569C41.1514 31.345 41.235 31.625 41.375 31.8777C43.801 36.0777 46.294 40.2399 48.769 44.4109C49.72 46.0129 50.675 47.6136 51.725 49.3806ZM13.479 27.5418L13.697 27.8538C13.862 27.8678 14.027 27.8948 14.192 27.8948C20.973 27.8948 27.753 27.9177 34.533 27.8557C34.8209 27.8042 35.0945 27.6923 35.3359 27.5271C35.5772 27.362 35.7807 27.1474 35.933 26.8977C39.197 21.4867 42.406 16.0427 45.624 10.6047C45.824 10.2687 45.986 9.91065 46.206 9.48365C45.9868 9.46237 45.7661 9.46237 45.547 9.48365C39.647 10.9536 33.74 12.4169 27.847 13.9329C27.2918 14.1295 26.7945 14.4614 26.4 14.8987C22.614 18.6297 18.855 22.3886 15.078 26.1296C14.579 26.6346 14.015 27.0738 13.479 27.5418ZM46.209 52.5095C46.1555 52.2983 46.0863 52.0918 46.002 51.8909C42.602 46.1389 39.215 40.3789 35.763 34.6589C35.5849 34.451 35.3645 34.2833 35.1166 34.1672C34.8686 34.0512 34.5988 33.9891 34.325 33.9856C27.732 33.9416 21.139 33.9547 14.545 33.9597C14.2308 33.9771 13.9178 34.0106 13.607 34.0598C17.041 37.5338 20.486 40.8219 23.691 44.3289C25.938 46.7869 28.415 48.5419 31.785 48.9109C32.6395 49.0664 33.4827 49.2783 34.309 49.5457C38.2 50.5187 42.1 51.4865 46.209 52.5095Z" fill="url(#paint0_linear_1_26617)" />
	<path d="M149.555 51.5161V46.5161C150.493 46.5161 151.355 46.5809 152.21 46.5029C154.638 46.2799 155.894 44.756 155.362 42.371C154.85 40.2369 154.199 38.1384 153.412 36.0898C151.475 30.8078 149.458 25.554 147.475 20.29C147.334 19.915 147.214 19.5318 147.012 18.9418C149.092 18.9418 151.041 18.9018 152.984 18.9858C153.262 18.9978 153.63 19.5638 153.762 19.9418C155.462 24.8208 157.128 29.712 158.806 34.6C158.88 34.7829 158.964 34.9619 159.056 35.1362C160.356 31.0092 161.619 26.9847 162.901 22.9667C163.317 21.6667 163.426 19.8609 164.333 19.2289C165.306 18.5489 167.05 18.9701 168.459 18.9291C169.094 18.9091 169.731 18.9291 170.494 18.9291C170.43 19.3113 170.346 19.6896 170.242 20.0629C167.442 28.2409 164.642 36.4239 161.794 44.5849C161.281 46.0021 160.645 47.3719 159.894 48.6782C159.464 49.4712 158.841 50.143 158.083 50.6323C157.325 51.1216 156.457 51.4125 155.557 51.478C153.608 51.649 151.634 51.5161 149.555 51.5161Z" fill="url(#paint1_linear_1_26617)" />
	<path d="M105.172 43.5169H99.2151V19.033H105.068V22.3016C106.703 20.1416 108.405 18.8146 110.74 18.3846C115.678 17.4746 120.425 20.5639 120.732 25.5599C121.097 31.4909 120.818 37.4598 120.818 43.5018H115.028C115.004 42.9908 114.961 42.5019 114.96 42.0169C114.955 37.7059 114.968 33.3938 114.953 29.0828C114.942 25.9828 113.548 24.2527 110.904 24.0067C110.267 23.9033 109.615 23.9294 108.989 24.0833C108.362 24.2372 107.772 24.516 107.255 24.9027C106.739 25.2893 106.305 25.7759 105.98 26.3338C105.656 26.8917 105.447 27.5093 105.366 28.1497C105.232 28.8695 105.17 29.6008 105.18 30.3328C105.164 34.6848 105.172 39.0369 105.172 43.5169Z" fill="url(#paint2_linear_1_26617)" />
	<path d="M74.729 18.981H80.414C80.445 19.534 80.498 20.0619 80.499 20.5889C80.512 25.1729 80.461 29.7588 80.542 34.3418C80.586 36.8508 81.8609 38.3039 83.9829 38.6279C86.6189 39.0279 88.693 37.9719 89.508 35.6519C89.8252 34.6985 89.9883 33.7006 89.991 32.6958C90.044 28.6618 90.013 24.6282 90.013 20.5962V19H95.928V43.4849H90.285V40.856C90.0816 40.9526 89.8908 41.0737 89.717 41.2168C87.456 44.0788 84.396 44.599 81.049 44.084C79.359 43.8892 77.793 43.1006 76.63 41.8589C75.4671 40.6172 74.7828 39.0034 74.699 37.3042C74.446 31.3112 74.578 25.3042 74.554 19.3042C74.554 19.2182 74.638 19.14 74.729 18.981Z" fill="url(#paint3_linear_1_26617)" />
	<path d="M132.094 18.9199H135.352V11.3252H141.324V18.8838H145.157V23.1992H141.4V27.8789C141.4 30.4909 141.39 33.1028 141.4 35.7148C141.413 38.2258 141.926 38.727 144.48 38.793C144.706 38.799 144.931 38.8261 145.248 38.8491V43.5381C142.938 43.5941 140.578 43.9568 138.33 42.8848C137.405 42.4592 136.631 41.7632 136.111 40.8882C135.591 40.0132 135.348 39.0006 135.416 37.9849C135.387 33.6319 135.401 29.2788 135.397 24.9258V23.29H132.097L132.094 18.9199Z" fill="url(#paint4_linear_1_26617)" />
	<path d="M124.223 19H130.1V43.4678H124.219L124.223 19Z" fill="url(#paint5_linear_1_26617)" />
	<path d="M124.189 11.2861H130.083V16.1372H124.189V11.2861Z" fill="url(#paint6_linear_1_26617)" />
	<defs>
		<linearGradient id="paint0_linear_1_26617" x1="0.494019" y1="30.976" x2="62.0167" y2="30.976" gradientUnits="userSpaceOnUse">
			<stop stop-color="#F29316" />
			<stop offset="1" stop-color="#FFB340" />
		</linearGradient>
		<linearGradient id="paint1_linear_1_26617" x1="147.012" y1="35.2013" x2="170.494" y2="35.2013" gradientUnits="userSpaceOnUse">
			<stop stop-color="#F29316" />
			<stop offset="1" stop-color="#FFB340" />
		</linearGradient>
		<linearGradient id="paint2_linear_1_26617" x1="99.2151" y1="30.8715" x2="120.92" y2="30.8715" gradientUnits="userSpaceOnUse">
			<stop stop-color="#F29316" />
			<stop offset="1" stop-color="#FFB340" />
		</linearGradient>
		<linearGradient id="paint3_linear_1_26617" x1="74.5405" y1="31.6203" x2="95.928" y2="31.6203" gradientUnits="userSpaceOnUse">
			<stop stop-color="#F29316" />
			<stop offset="1" stop-color="#FFB340" />
		</linearGradient>
		<linearGradient id="paint4_linear_1_26617" x1="132.094" y1="27.4836" x2="145.248" y2="27.4836" gradientUnits="userSpaceOnUse">
			<stop stop-color="#F29316" />
			<stop offset="1" stop-color="#FFB340" />
		</linearGradient>
		<linearGradient id="paint5_linear_1_26617" x1="124.219" y1="31.2339" x2="130.1" y2="31.2339" gradientUnits="userSpaceOnUse">
			<stop stop-color="#F29316" />
			<stop offset="1" stop-color="#FFB340" />
		</linearGradient>
		<linearGradient id="paint6_linear_1_26617" x1="124.189" y1="13.7117" x2="130.083" y2="13.7117" gradientUnits="userSpaceOnUse">
			<stop stop-color="#F29316" />
			<stop offset="1" stop-color="#FFB340" />
		</linearGradient>
	</defs>
</svg>
