<svg width="171" height="36" viewBox="0 0 171 36" fill="none" xmlns="http://www.w3.org/2000/svg">
	<path d="M62.3001 13.7489H80.2631V35.5551C73.2161 35.0441 66.1571 35.387 59.5461 33.829C51.9141 32.029 47.6061 24.2231 48.3461 16.4291C48.7904 12.6755 50.4552 9.17176 53.0847 6.45646C55.7141 3.74117 59.1627 1.96437 62.9001 1.39982C64.4847 1.22113 66.0803 1.15831 67.6741 1.21184C71.7741 1.18884 75.8851 1.20402 80.2511 1.20402V8.52287C75.7971 8.52287 71.4001 8.49371 67.0041 8.52971C60.0821 8.58771 55.6611 12.258 55.5381 17.996C55.4101 23.94 59.9821 27.8962 67.0381 27.9482C68.9241 27.9612 70.8111 27.9482 72.9621 27.9482V20.7309C67.7821 21.0159 62.5451 21.2529 62.3001 13.7489Z" fill="url(#paint0_linear_1_26599)" />
	<path d="M30.6241 11.7331C27.6721 10.7591 25.2241 9.47995 22.6801 9.21795C18.2872 8.83624 13.8727 8.76784 9.47004 9.01238C8.87004 9.03638 7.68008 11.1873 7.95008 11.9123C8.21222 12.5159 8.60811 13.0521 9.10792 13.4802C9.60772 13.9082 10.1984 14.2167 10.8351 14.383C13.8251 14.733 16.8821 14.4643 19.9091 14.5573C26.3091 14.7573 30.7311 19.0501 30.6841 24.9391C30.6401 30.6041 26.3611 34.8721 20.2001 35.1061C16.3808 35.317 12.5514 35.2545 8.7411 34.9191C3.5601 34.3711 0.83405 30.941 0.71705 24.34C3.55605 25.406 5.93108 26.8313 8.43708 27.1193C12.7969 27.5343 17.1822 27.613 21.5541 27.3552C22.1671 27.3302 23.2711 25.3152 23.1161 24.3952C22.9201 23.8361 22.5888 23.3342 22.1517 22.9343C21.7146 22.5343 21.1853 22.2489 20.6111 22.1032C17.6171 21.7582 14.5671 21.9423 11.5431 21.8263C4.5431 21.5583 0.324063 17.614 0.331063 11.426C0.337063 5.32595 4.78605 1.25793 11.6311 1.15593C14.8191 1.10793 18.0131 1.04604 21.1961 1.19304C26.7001 1.44704 29.8621 4.69008 30.6241 11.7331Z" fill="url(#paint1_linear_1_26599)" />
	<path d="M86.832 0.708984L99.282 15.377L101.918 14.8882L114.577 0.300781L115.865 1.18213V34.8232H109V17.123L101.155 24.5332C96.1441 19.6212 90.8421 15.0459 86.4221 9.73291C84.9431 7.95591 85.7171 4.30281 85.4611 1.50781L86.832 0.708984Z" fill="url(#paint2_linear_1_26599)" />
	<path d="M139.771 0.258789C146.315 12.0718 152.454 23.153 158.659 34.3521C150.89 36.2121 150.453 36.0301 146.959 29.7451C143.784 24.0361 140.992 18.0669 137.33 12.6909C134.007 7.81292 135.958 4.58279 139.771 0.258789Z" fill="url(#paint3_linear_1_26599)" />
	<path d="M42.909 34.9189H36.155V1.5H42.909V34.9189Z" fill="url(#paint4_linear_1_26599)" />
	<path d="M119.948 34.7002L131.606 13.624C139.471 20.279 133.919 25.846 130.79 31.541C128.5 35.705 128.455 35.6802 119.948 34.7002Z" fill="url(#paint5_linear_1_26599)" />
	<path d="M92.4361 34.916H85.9121V17.479C93.3001 21.174 93.8581 27.361 92.4361 34.916Z" fill="url(#paint6_linear_1_26599)" />
	<path d="M167.371 27.856C168.88 29.98 170.486 31.2651 170.319 32.2471C170.101 33.5211 168.47 34.547 167.448 35.688C166.434 34.688 164.626 33.6992 164.607 32.6792C164.584 31.3862 166.014 30.066 167.371 27.856Z" fill="url(#paint7_linear_1_26599)" />
	<defs>
		<linearGradient id="paint0_linear_1_26599" x1="48.264" y1="18.3742" x2="80.2631" y2="18.3742" gradientUnits="userSpaceOnUse">
			<stop stop-color="#F29316" />
			<stop offset="1" stop-color="#FFB340" />
		</linearGradient>
		<linearGradient id="paint1_linear_1_26599" x1="0.331055" y1="18.1646" x2="30.6845" y2="18.1646" gradientUnits="userSpaceOnUse">
			<stop stop-color="#F29316" />
			<stop offset="1" stop-color="#FFB340" />
		</linearGradient>
		<linearGradient id="paint2_linear_1_26599" x1="85.4611" y1="17.562" x2="115.865" y2="17.562" gradientUnits="userSpaceOnUse">
			<stop stop-color="#F29316" />
			<stop offset="1" stop-color="#FFB340" />
		</linearGradient>
		<linearGradient id="paint3_linear_1_26599" x1="135.632" y1="17.8201" x2="158.659" y2="17.8201" gradientUnits="userSpaceOnUse">
			<stop stop-color="#F29316" />
			<stop offset="1" stop-color="#FFB340" />
		</linearGradient>
		<linearGradient id="paint4_linear_1_26599" x1="36.155" y1="18.2095" x2="42.909" y2="18.2095" gradientUnits="userSpaceOnUse">
			<stop stop-color="#F29316" />
			<stop offset="1" stop-color="#FFB340" />
		</linearGradient>
		<linearGradient id="paint5_linear_1_26599" x1="119.948" y1="24.4331" x2="135.629" y2="24.4331" gradientUnits="userSpaceOnUse">
			<stop stop-color="#F29316" />
			<stop offset="1" stop-color="#FFB340" />
		</linearGradient>
		<linearGradient id="paint6_linear_1_26599" x1="85.9121" y1="26.1975" x2="93.0594" y2="26.1975" gradientUnits="userSpaceOnUse">
			<stop stop-color="#F29316" />
			<stop offset="1" stop-color="#FFB340" />
		</linearGradient>
		<linearGradient id="paint7_linear_1_26599" x1="164.607" y1="31.772" x2="170.331" y2="31.772" gradientUnits="userSpaceOnUse">
			<stop stop-color="#F29316" />
			<stop offset="1" stop-color="#FFB340" />
		</linearGradient>
	</defs>
</svg>
