<svg width="121" height="161" viewBox="0 0 121 161" fill="none" xmlns="http://www.w3.org/2000/svg">
	<path d="M81.0711 0.974121L120.777 87.1401C120.087 87.28 119.389 87.3799 118.687 87.4399C113.272 87.4779 107.856 87.451 102.442 87.54C101.875 87.597 101.306 87.4582 100.83 87.1465C100.353 86.8348 99.9979 86.3691 99.8231 85.8271C90.6661 66.0621 81.5231 46.2909 72.2311 26.5879C71.5888 25.4483 71.2525 24.1621 71.2548 22.854C71.2571 21.5459 71.5979 20.2604 72.2441 19.123C74.8651 14.067 77.1611 8.84285 79.6031 3.69385C79.9371 2.99985 80.3401 2.32512 81.0711 0.974121Z" fill="url(#paint0_linear_1_26593)" />
	<path d="M60.8111 88.6328C59.9601 86.8198 59.3431 85.4828 58.7111 84.1548C49.2038 64.2981 39.7064 44.4371 30.2191 24.5718C29.7964 23.7852 29.695 22.8656 29.9361 22.0059C33.2361 15.2669 36.6741 8.59076 40.0831 1.90576C40.3176 1.57639 40.5813 1.26887 40.8711 0.986816C41.3631 1.85082 41.8101 2.53318 42.1571 3.26318C51.2491 22.3572 60.2221 41.5078 69.5031 60.5088C71.3641 64.3188 71.5641 67.3869 69.4921 71.1089C66.7581 76.0169 64.5751 81.2311 62.1411 86.3091C61.8401 86.9221 61.4581 87.4998 60.8111 88.6328Z" fill="url(#paint1_linear_1_26593)" />
	<path d="M81.8641 73.1572C82.6641 74.6572 83.2641 75.769 83.8461 76.896C86.4781 82.036 89.0111 87.2299 91.7691 92.2959C92.3246 93.203 92.6245 94.2435 92.6372 95.3071C92.6499 96.3707 92.3748 97.4178 91.8411 98.3379C87.4701 107.208 83.2721 116.164 79.0031 125.084C73.8911 135.762 68.7734 146.437 63.6501 157.109C63.1021 158.252 62.4891 159.364 61.6581 160.969C61.0191 159.8 60.5891 159.1 60.2391 158.361C57.2711 152.099 54.2781 145.847 51.4071 139.54C51.0548 138.646 51.0623 137.65 51.4281 136.761C61.1427 116.205 70.9001 95.6679 80.7001 75.1499C80.9611 74.5999 81.3171 74.0852 81.8641 73.1572Z" fill="url(#paint2_linear_1_26593)" />
	<path d="M0.210083 87.188L20.3511 44.0879C20.9751 45.0739 21.3451 45.566 21.6191 46.106C24.5541 51.898 27.5391 57.6659 30.3351 63.5239C30.8269 64.6614 30.8658 65.9436 30.444 67.1089C27.797 73.2719 24.9251 79.3388 22.1871 85.4648C21.9823 86.1113 21.5602 86.6674 20.9925 87.0381C20.4247 87.4088 19.7463 87.5715 19.0721 87.499C13.6581 87.385 8.24107 87.4348 2.82507 87.4048C2.13107 87.3998 1.43708 87.291 0.210083 87.188Z" fill="url(#paint3_linear_1_26593)" />
	<path d="M40.938 72.3999C42.438 75.4839 43.7991 78.232 45.1191 81C47.9401 86.918 50.78 92.828 53.503 98.791C53.725 99.2471 53.8548 99.7426 53.885 100.249C53.9152 100.755 53.8453 101.263 53.6791 101.742C50.4901 107.718 47.141 113.608 43.823 119.514C43.487 120.114 43.023 120.639 42.372 121.543C40.815 118.353 39.417 115.543 38.062 112.704C35.421 107.178 32.775 101.653 30.212 96.0908C29.7951 95.3034 29.6957 94.3863 29.9341 93.5278C33.2341 86.7998 36.661 80.135 40.062 73.457C40.3262 73.0825 40.619 72.729 40.938 72.3999Z" fill="url(#paint4_linear_1_26593)" />
	<defs>
		<linearGradient id="paint0_linear_1_26593" x1="71.2548" y1="44.2633" x2="120.777" y2="44.2633" gradientUnits="userSpaceOnUse">
			<stop stop-color="#F29316" />
			<stop offset="1" stop-color="#FFB340" />
		</linearGradient>
		<linearGradient id="paint1_linear_1_26593" x1="29.8079" y1="44.8098" x2="70.9733" y2="44.8098" gradientUnits="userSpaceOnUse">
			<stop stop-color="#F29316" />
			<stop offset="1" stop-color="#FFB340" />
		</linearGradient>
		<linearGradient id="paint2_linear_1_26593" x1="51.1482" y1="117.063" x2="92.6376" y2="117.063" gradientUnits="userSpaceOnUse">
			<stop stop-color="#F29316" />
			<stop offset="1" stop-color="#FFB340" />
		</linearGradient>
		<linearGradient id="paint3_linear_1_26593" x1="0.210083" y1="65.8019" x2="30.7344" y2="65.8019" gradientUnits="userSpaceOnUse">
			<stop stop-color="#F29316" />
			<stop offset="1" stop-color="#FFB340" />
		</linearGradient>
		<linearGradient id="paint4_linear_1_26593" x1="29.807" y1="96.9714" x2="53.8919" y2="96.9714" gradientUnits="userSpaceOnUse">
			<stop stop-color="#F29316" />
			<stop offset="1" stop-color="#FFB340" />
		</linearGradient>
	</defs>
</svg>
