<svg width="107" height="171" viewBox="0 0 107 171" fill="none" xmlns="http://www.w3.org/2000/svg">
	<path d="M24.8781 77.431C34.1781 73.207 43.4782 68.9841 52.7782 64.7621C52.9332 64.6921 53.0952 64.6361 53.2542 64.5731L53.3931 64.4589C53.3931 54.0589 53.3955 43.6619 53.4002 33.2679C53.4002 22.6793 53.4002 12.0899 53.4002 1.49987C53.4002 1.21287 53.3082 0.89998 53.5302 0.64098C53.1462 0.33498 53.1421 0.782836 53.0601 0.917836C49.7741 6.35517 46.4971 11.7977 43.2291 17.245L29.0051 40.891C25.1018 47.3796 21.1988 53.8681 17.2962 60.3568C11.7362 69.5928 6.17648 78.8288 0.617145 88.0648C0.517145 88.2298 0.291129 88.3798 0.464129 88.6258C1.16396 88.1762 1.9103 87.8035 2.69014 87.514C10.0861 84.148 17.4821 80.787 24.8781 77.431Z" fill="#FFB340" />
	<path d="M53.384 169.668C53.38 155.668 53.38 141.665 53.384 127.66C53.384 127.447 53.407 127.234 53.42 127.021C53.151 126.891 52.872 126.779 52.62 126.628C45.174 122.239 37.7297 117.847 30.287 113.453C20.5763 107.724 10.8646 101.996 1.15198 96.27C0.962978 96.158 0.759973 96.0698 0.396973 95.8828C1.11097 96.9058 1.70398 97.7652 2.30798 98.6172C9.84132 109.248 17.3747 119.878 24.908 130.51C32.6307 141.401 40.356 152.29 48.084 163.177C49.7427 165.516 51.404 167.853 53.068 170.187C53.157 170.311 53.189 170.761 53.533 170.397C53.313 170.188 53.384 169.915 53.384 169.668Z" fill="#FFB340" />
	<path d="M71.835 116.167C69.496 117.547 67.169 118.945 64.835 120.335C64.1616 120.661 63.5143 121.039 62.8989 121.465L53.418 127.021C53.675 127.178 53.689 127.44 53.705 127.697C53.73 128.103 53.7209 128.51 53.7209 128.916C53.7209 141.771 53.7209 154.625 53.7209 167.48C53.7816 168.457 53.7163 169.437 53.5269 170.397C57.4089 164.916 61.2909 159.435 65.1729 153.954C78.7429 134.811 92.3129 115.668 105.883 96.5249C105.998 96.3629 106.192 96.231 106.167 95.938C106.053 96.003 105.967 96.0501 105.883 96.0991C94.5336 102.788 83.1843 109.478 71.835 116.167Z" fill="#F29316" />
	<path d="M105.462 88.4722C102.209 87.0032 98.9481 85.5512 95.7081 84.0552C93.7681 83.1552 91.808 82.3131 89.868 81.4131C87.268 80.2071 84.649 79.0582 82.045 77.8662C80.239 77.0389 78.4291 76.2195 76.6151 75.4082C74.2151 74.3322 71.83 73.2319 69.444 72.1289C66.302 70.6749 63.1301 69.289 59.9891 67.834C57.9721 66.9 55.928 66.024 53.933 65.042C53.7427 64.9692 53.5795 64.8392 53.4661 64.6699L53.3201 64.77C53.3941 65.1432 53.4203 65.524 53.3981 65.9038C53.3981 83.4371 53.3981 100.971 53.3981 118.504C53.3251 118.906 53.3774 119.321 53.548 119.692C53.754 119.58 53.9651 119.475 54.1661 119.356C57.9421 117.13 61.7174 114.902 65.4921 112.673C69.0801 110.552 72.6661 108.427 76.2501 106.299C76.5383 106.188 76.8047 106.028 77.037 105.824C77.3656 105.705 77.6704 105.529 77.9371 105.303C78.0141 105.268 78.0951 105.241 78.1671 105.203C87.4237 99.7491 96.6794 94.2933 105.934 88.8359C106.078 88.7509 106.311 88.7291 106.305 88.4771C106.178 88.5558 106.032 88.5971 105.883 88.5962C105.734 88.5953 105.588 88.5524 105.462 88.4722Z" fill="#D87100" />
	<path d="M53.6931 5.76904C53.7397 24.8524 53.7491 43.9351 53.7211 63.0171C53.7487 63.4657 53.7245 63.9158 53.649 64.3589C53.62 64.4169 53.593 64.4772 53.563 64.5342C57.519 66.3282 61.4801 68.1139 65.4311 69.9199C69.1451 71.6199 72.8421 73.352 76.5591 75.043C79.8871 76.557 83.235 78.0252 86.566 79.5322C89.741 80.9672 92.9011 82.4321 96.0751 83.8721C99.4817 85.4161 102.893 86.9495 106.309 88.4722C106.217 88.2822 106.14 88.0819 106.031 87.9019C98.7771 75.8352 91.5204 63.7688 84.261 51.7021C82.719 49.1411 81.1611 46.5921 79.6041 44.0371C78.8791 42.7261 78.1231 41.437 77.2881 40.188C77.1881 39.999 77.106 39.8031 76.996 39.6221C71.9114 31.1647 66.8251 22.7089 61.7371 14.2549C60.1617 11.6389 58.5801 9.02695 56.9921 6.41895C56.2221 5.13761 55.4518 3.85715 54.6811 2.57715L53.5381 0.631836C53.7762 2.33346 53.8281 4.05616 53.6931 5.76904Z" fill="#F29316" />
	<path d="M53.123 119.165C53.086 118.846 53.0739 118.525 53.087 118.204C53.087 100.679 53.087 83.1539 53.087 65.6279C53.0671 65.3873 53.0728 65.1451 53.104 64.9058C52.1694 65.4125 51.2073 65.8669 50.222 66.2661C47.122 67.7171 43.985 69.0808 40.876 70.5098C36.854 72.3588 32.815 74.1699 28.786 76.0039C25.7687 77.3772 22.7517 78.7501 19.735 80.1221C16.156 81.7571 12.565 83.3661 8.98401 84.9971C6.53201 86.1151 4.08401 87.2491 1.62701 88.3481C1.26698 88.5261 0.871571 88.621 0.469971 88.626C0.740971 88.796 1.00897 88.9718 1.28497 89.1338C11.3003 95.0418 21.3163 100.949 31.333 106.856C38.5137 111.09 45.697 115.321 52.883 119.548C53.073 119.66 53.261 119.956 53.55 119.696C53.19 119.7 53.162 119.417 53.123 119.165Z" fill="#FF981D" />
</svg>
