<svg width="41" height="30" viewBox="0 0 41 30" fill="none" xmlns="http://www.w3.org/2000/svg">
	<path d="M21.291 23.6559L33.191 17.321C32.9712 16.6193 32.9655 15.8682 33.1746 15.1633C33.3837 14.4583 33.7981 13.8314 34.365 13.363C34.7445 13.0455 35.1855 12.8101 35.6603 12.6711C36.1352 12.5321 36.6336 12.4926 37.1244 12.5554C37.6152 12.6181 38.0877 12.7814 38.5123 13.0353C38.9369 13.2893 39.3045 13.6282 39.592 14.0309C40.0982 14.6971 40.3516 15.5217 40.3069 16.3571C40.2622 17.1926 39.9224 17.9846 39.348 18.593C39.0011 18.9975 38.5634 19.3146 38.0707 19.5178C37.578 19.7209 37.0442 19.8048 36.513 19.7624C35.866 19.7395 35.236 19.5494 34.684 19.2111C34.5766 19.1703 34.4617 19.1531 34.347 19.1603C34.2323 19.1676 34.1204 19.1991 34.019 19.2531C31.928 20.3641 29.848 21.4971 27.767 22.6281C25.967 23.6041 24.181 24.5959 22.373 25.5519C22.2203 25.6256 22.09 25.7385 21.9953 25.8791C21.9006 26.0196 21.8449 26.1831 21.834 26.3522C21.7376 26.9421 21.4953 27.4985 21.1292 27.9709C20.7631 28.4433 20.2847 28.8168 19.7375 29.0573C19.1904 29.2978 18.5918 29.3979 17.9962 29.3483C17.4006 29.2987 16.8268 29.1009 16.327 28.7731C15.5302 28.2457 14.9682 27.4306 14.759 26.4982C14.6847 26.327 14.5502 26.1888 14.381 26.11C11.681 24.704 8.96597 23.3103 6.26097 21.9103C5.16097 21.3413 4.06098 20.7853 2.98998 20.1623C1.91056 19.4288 1.11647 18.3463 0.741015 17.0964C0.30781 15.9086 0.195002 14.6273 0.413988 13.382C0.463509 12.7976 0.658089 12.235 0.980089 11.7448C1.30209 11.2547 1.74132 10.8529 2.25798 10.5754C5.23732 9.05471 8.22462 7.55019 11.22 6.06219C14.66 4.34619 18.11 2.65129 21.548 0.933286C21.9917 0.696806 22.4859 0.570518 22.9887 0.565122C23.4915 0.559727 23.9883 0.675132 24.437 0.902036C28.517 2.83537 32.5936 4.77878 36.667 6.73211C37.1622 6.93621 37.6435 7.17241 38.108 7.43915C38.4027 7.61878 38.6239 7.89752 38.732 8.22528C38.817 8.62528 38.465 8.87324 38.103 9.06024C32.7983 11.8056 27.4963 14.555 22.197 17.3083C20.923 17.9683 19.654 18.6403 18.346 19.2263C17.9494 19.3778 17.509 19.3671 17.12 19.197C14.538 17.909 11.983 16.5661 9.41997 15.2331C7.76597 14.3731 6.11196 13.512 4.46996 12.633C3.25996 11.982 2.713 12.727 2.515 13.633C2.35195 14.3551 2.35733 15.1052 2.53075 15.8249C2.70416 16.5446 3.04095 17.2148 3.515 17.7834C3.93287 18.2244 4.43424 18.5779 4.98998 18.8234C8.08998 20.4784 11.212 22.092 14.307 23.756C14.829 24.036 15.056 24.0504 15.447 23.5134C15.7753 23.0908 16.1932 22.7461 16.6707 22.5046C17.1482 22.2631 17.6733 22.1305 18.2082 22.1164C18.7431 22.1023 19.2745 22.2074 19.764 22.4235C20.2535 22.6396 20.689 22.9617 21.039 23.3664C21.119 23.4444 21.186 23.5289 21.291 23.6559ZM18.263 24.613C17.9665 24.6246 17.6844 24.7437 17.4691 24.9479C17.2539 25.1521 17.1202 25.4279 17.093 25.7233C17.1091 26.039 17.2454 26.3365 17.4739 26.5549C17.7025 26.7732 18.0059 26.8955 18.322 26.8972C18.63 26.8886 18.9226 26.7611 19.1384 26.5412C19.3541 26.3213 19.4763 26.026 19.479 25.718C19.4722 25.5654 19.4353 25.4158 19.3704 25.2775C19.3055 25.1393 19.214 25.0155 19.1009 24.9128C18.9879 24.8101 18.8556 24.7308 18.7118 24.6794C18.568 24.628 18.4155 24.6052 18.263 24.613ZM35.528 16.1662C35.5201 16.3187 35.5449 16.4713 35.6006 16.6135C35.6564 16.7557 35.7418 16.8843 35.8512 16.9909C35.9606 17.0975 36.0915 17.1792 36.2351 17.2311C36.3787 17.2831 36.5317 17.304 36.684 17.2922C36.8361 17.2957 36.9872 17.2679 37.1282 17.2106C37.2691 17.1533 37.3967 17.0678 37.5032 16.9592C37.6096 16.8505 37.6925 16.7209 37.7469 16.5788C37.8012 16.4367 37.8257 16.285 37.819 16.133C37.8207 15.98 37.7918 15.8283 37.734 15.6867C37.6762 15.5451 37.5905 15.4168 37.4822 15.3088C37.3738 15.2008 37.245 15.1152 37.1032 15.0578C36.9614 15.0004 36.8095 14.9721 36.6565 14.9743C36.5036 14.9765 36.3526 15.009 36.2125 15.0705C36.0724 15.132 35.9461 15.2211 35.8409 15.3322C35.7357 15.4433 35.6538 15.5742 35.6001 15.7175C35.5463 15.8607 35.5219 16.0133 35.528 16.1662Z" fill="url(#paint0_linear_1_27557)" />
	<defs>
		<linearGradient id="paint0_linear_1_27557" x1="20.3085" y1="29.3607" x2="20.3085" y2="0.564941" gradientUnits="userSpaceOnUse">
			<stop stop-color="#FFF5DD" />
			<stop offset="1" stop-color="#F5B942" />
		</linearGradient>
	</defs>
</svg>
