<svg width="221" height="53" viewBox="0 0 221 53" fill="none" xmlns="http://www.w3.org/2000/svg">
	<path d="M0.47699 27.9282C0.64399 28.1372 0.854979 28.4281 1.10698 28.8091C1.35898 29.1901 1.60699 29.5649 1.86299 29.9429C2.09377 30.2807 2.34594 30.6036 2.61798 30.9092C2.86998 31.1612 3.07998 31.3291 3.24898 31.3291C3.47816 31.345 3.70432 31.2695 3.87799 31.1191C4.02911 30.9738 4.19695 30.847 4.37799 30.7412C4.60398 30.6354 4.84472 30.5642 5.09198 30.5308C5.51212 30.5181 5.92936 30.6048 6.30998 30.7832C6.10604 31.2416 5.95119 31.72 5.84799 32.2109C5.71092 32.7462 5.64039 33.2966 5.63799 33.8491C5.64299 34.3738 5.71355 34.8956 5.84799 35.4028C5.99465 35.872 6.22206 36.3122 6.51999 36.7031C6.22599 36.6611 5.84798 36.5772 5.42798 36.5352C5.21935 36.5085 5.0075 36.5246 4.80531 36.5825C4.60313 36.6405 4.41486 36.739 4.25198 36.8721C3.9235 37.0791 3.67253 37.3887 3.53798 37.7529C3.41198 38.0889 3.24499 38.5102 3.07599 39.0132C2.90799 39.5592 2.94998 39.895 3.24498 40.105C3.53798 40.273 3.78998 40.147 4.04498 39.7271C4.88432 38.1311 5.89198 37.4589 7.06798 37.7109C7.84989 37.8964 8.60985 38.1649 9.33499 38.5112C10.0212 38.8618 10.7581 39.1023 11.519 39.2241C11.5936 39.249 11.6741 39.2501 11.7494 39.2275C11.8248 39.205 11.8913 39.1599 11.94 39.0981C12.0606 38.9756 12.1597 38.8337 12.233 38.6782C12.2742 38.5141 12.2742 38.3423 12.233 38.1782C12.1903 38.007 12.086 37.857 11.94 37.7578C11.435 37.4638 10.974 37.213 10.511 36.958C10.0723 36.7116 9.6636 36.4155 9.29298 36.0752C8.92922 35.7574 8.62981 35.3725 8.41098 34.9419C8.19747 34.5122 8.09665 34.0355 8.11798 33.5562C8.13919 32.883 8.30999 32.2229 8.61798 31.624C8.94747 31.0869 9.37527 30.6164 9.87898 30.2378C10.38 29.9001 10.9165 29.6186 11.479 29.3979C12.0397 29.2265 12.6169 29.1142 13.201 29.063C12.991 29.818 12.781 30.4901 12.614 31.0781C12.4444 31.7821 12.4444 32.5163 12.614 33.2202C12.6415 33.5592 12.7673 33.8828 12.976 34.1514C13.1847 34.4199 13.4673 34.6216 13.789 34.7319C14.1497 34.8193 14.5285 34.7939 14.8741 34.6587C15.2197 34.5235 15.5154 34.285 15.721 33.9761C16.521 33.0941 17.275 32.2121 18.073 31.3301C18.7904 30.5166 19.7212 29.9199 20.76 29.6079C19.716 30.5066 18.8841 31.6253 18.324 32.8838C17.7396 34.0811 17.3838 35.3772 17.275 36.7051C17.2331 37.4215 17.2754 38.1405 17.401 38.8472C17.5211 39.5117 17.7181 40.1597 17.988 40.7788C18.2147 41.313 18.5432 41.7982 18.955 42.207C19.3374 42.5606 19.7973 42.8194 20.298 42.9629C20.8523 43.0032 21.4067 42.8868 21.898 42.627C22.4289 42.4187 22.8934 42.0705 23.242 41.6191C23.3536 42.1484 23.3392 42.6966 23.2 43.2192C23.1009 43.8029 22.917 44.3686 22.654 44.8989C22.4499 45.4285 22.1666 45.9244 21.814 46.3691C21.6127 46.7124 21.3022 46.9781 20.932 47.124C20.7093 47.2142 20.4693 47.2533 20.2295 47.2388C19.9897 47.2242 19.7562 47.1564 19.546 47.04C19.0975 46.7762 18.6993 46.4351 18.37 46.0322C18.16 45.7392 17.95 45.7392 17.741 45.9902C17.6274 46.105 17.557 46.2553 17.5417 46.416C17.5264 46.5768 17.5671 46.7379 17.657 46.8721C17.9083 47.3761 18.16 47.9218 18.412 48.5098C18.706 49.0978 19 49.644 19.294 50.189C19.5481 50.648 19.8433 51.083 20.176 51.4888C20.28 51.6502 20.4153 51.7894 20.5741 51.8975C20.7328 52.0055 20.9117 52.0806 21.1 52.1182C21.1758 52.1189 21.2505 52.0998 21.3167 52.063C21.383 52.0262 21.4385 51.9729 21.478 51.9082C21.562 51.7402 21.646 51.5728 21.772 51.3628C21.856 51.1108 21.898 50.8999 21.982 50.6489C22.0425 50.4433 22.1271 50.2458 22.234 50.0601C22.246 49.9709 22.2844 49.887 22.3443 49.8198C22.4041 49.7526 22.4828 49.7052 22.57 49.6831C22.738 49.5991 22.864 49.725 22.948 50.019C22.9394 50.6396 23.0685 51.2541 23.326 51.8188C23.3995 52.0464 23.5382 52.2475 23.7248 52.397C23.9115 52.5465 24.1379 52.6381 24.376 52.6602C24.5936 52.6582 24.8081 52.6077 25.0042 52.5132C25.2002 52.4186 25.3729 52.2819 25.51 52.1128C25.7814 51.7807 26.0071 51.414 26.181 51.022C26.349 50.644 26.517 50.2652 26.644 49.9302C26.771 49.5952 26.937 49.4302 27.105 49.4302C27.315 49.4302 27.441 49.5982 27.441 49.9302C27.4759 50.2506 27.4902 50.5728 27.484 50.895C27.4865 50.9638 27.5027 51.0313 27.5316 51.0938C27.5604 51.1562 27.6014 51.2123 27.6521 51.2588C27.7028 51.3053 27.7622 51.3414 27.8269 51.3647C27.8916 51.3881 27.9603 51.3984 28.029 51.395C28.366 51.437 28.575 51.269 28.617 50.895C28.8431 50.0179 28.7846 49.0917 28.45 48.25C28.3535 47.9242 28.1438 47.6433 27.8587 47.4585C27.5736 47.2737 27.2318 47.1972 26.895 47.2422C26.4965 47.2968 26.1197 47.4562 25.803 47.7041C25.426 47.9561 25.047 48.2039 24.67 48.5039C24.5559 48.5873 24.4218 48.6391 24.2813 48.6538C24.1408 48.6686 23.9989 48.6458 23.87 48.5879C23.7435 48.5482 23.6263 48.4834 23.5253 48.3975C23.4242 48.3116 23.3415 48.2064 23.282 48.0879C23.1038 47.8709 22.9877 47.6097 22.946 47.332C22.9062 47.0774 22.9352 46.8168 23.03 46.5771C23.5499 45.5583 23.9175 44.4683 24.121 43.3428C24.3798 42.1146 24.451 40.8545 24.332 39.605C24.3092 38.9467 24.1058 38.3072 23.744 37.7568C23.5946 37.5276 23.3969 37.3339 23.1647 37.189C22.9326 37.044 22.6716 36.9515 22.4 36.918C22.1909 36.9054 21.982 36.9445 21.7915 37.0317C21.6011 37.1189 21.435 37.2515 21.308 37.418C20.9508 37.8071 20.7555 38.318 20.762 38.8462C20.762 39.2662 20.804 39.7699 20.804 40.3579C20.846 40.9459 20.762 41.2402 20.595 41.3242C20.4549 41.3871 20.2987 41.4046 20.1481 41.3745C19.9975 41.3444 19.8601 41.2677 19.755 41.1558C19.3748 40.8596 19.0602 40.4879 18.831 40.064C18.5631 39.5273 18.3516 38.9641 18.2 38.3838C18.0254 37.7689 17.9969 37.122 18.117 36.4941C18.2708 35.4991 18.5823 34.535 19.04 33.6382C19.4177 32.8117 19.8978 32.0359 20.469 31.3291C20.9099 30.8116 21.435 30.3718 22.022 30.0288C22.522 29.7758 22.904 29.7758 23.156 30.0708C23.4163 30.3896 23.5507 30.7929 23.534 31.2041C23.5344 31.7103 23.3575 32.2005 23.034 32.5898C23.344 32.8176 23.7009 32.9737 24.0786 33.0464C24.4564 33.119 24.8456 33.1063 25.218 33.0098C25.6014 32.8851 25.9366 32.6444 26.1772 32.3208C26.4178 31.9973 26.5519 31.6072 26.561 31.2041C26.5618 30.7785 26.5053 30.3544 26.393 29.9438C26.287 29.5482 26.1322 29.1674 25.932 28.8101C26.8617 28.8522 27.7711 29.0956 28.5976 29.5234C29.4241 29.9513 30.1478 30.5533 30.719 31.2881C30.131 31.7081 29.543 32.1698 28.955 32.6738C28.3684 33.1959 27.8326 33.7727 27.355 34.396C26.8845 34.9888 26.4894 35.6379 26.179 36.3281C25.8563 37.0454 25.6578 37.8124 25.592 38.5962C25.5485 39.6056 25.5903 40.6168 25.717 41.6191C25.8563 42.4889 26.1106 43.3363 26.473 44.1392C26.7804 44.8218 27.2402 45.4246 27.817 45.9019C28.3711 46.3351 29.0463 46.5854 29.749 46.6172C30.4217 46.6454 31.0853 46.453 31.639 46.0698C32.255 45.6548 32.7714 45.1087 33.151 44.4702C33.5976 43.7138 33.9232 42.8922 34.116 42.0352C34.3677 41.1029 34.509 40.1444 34.537 39.1792C34.6132 37.9514 34.4995 36.719 34.2 35.5259C33.9499 34.3882 33.555 33.2873 33.025 32.25C33.3613 31.6665 33.6297 31.0464 33.825 30.4019C33.993 29.7719 34.16 29.1432 34.286 28.5132C34.37 28.1342 34.286 27.9248 34.118 27.7988C34.072 27.7752 34.0214 27.7623 33.9698 27.7603C33.9181 27.7583 33.8667 27.7676 33.819 27.7876C33.7714 27.8076 33.7287 27.8377 33.694 27.876C33.6592 27.9143 33.6333 27.9594 33.618 28.0088C33.3647 28.4559 33.0694 28.8781 32.736 29.269C32.443 29.562 32.106 29.9399 31.687 30.3599C30.7639 29.261 29.5946 28.3958 28.274 27.834C26.9534 27.2722 25.5188 27.0298 24.087 27.127C23.151 27.2257 22.2328 27.4517 21.358 27.7988C20.35 28.1338 19.384 28.5131 18.502 28.8901C17.621 29.3111 16.865 29.6459 16.192 29.8979C15.562 30.1929 15.143 30.2339 14.975 30.1089C14.8278 29.9641 14.7227 29.7819 14.6709 29.582C14.6191 29.3821 14.6226 29.1722 14.681 28.9741C14.7369 28.4303 14.751 27.8829 14.723 27.3369C13.4659 27.3436 12.2132 27.4843 10.986 27.7568C10.1909 27.9448 9.41697 28.2131 8.67598 28.5571C8.21812 28.7479 7.78226 28.9874 7.37599 29.272C7.19158 29.4498 6.957 29.5667 6.70398 29.6069C6.4 29.586 6.10403 29.5004 5.83598 29.3555C5.56793 29.2106 5.33402 29.0099 5.14998 28.7671C4.84963 28.2947 4.40665 27.9303 3.88522 27.7266C3.3638 27.5228 2.79104 27.4901 2.24998 27.6338C1.53598 27.7598 0.949984 27.8442 0.486984 27.9282H0.47699ZM0.47699 25.0718C0.93899 25.1558 1.52599 25.2402 2.23999 25.3662C2.85 25.471 3.47727 25.3977 4.04698 25.1558C4.22354 25.028 4.39064 24.8877 4.54698 24.7358C4.73311 24.5435 4.92939 24.3613 5.13498 24.1899C5.34611 23.9753 5.58648 23.7915 5.84898 23.644C6.10169 23.4916 6.39428 23.4185 6.68898 23.4341C6.94814 23.4545 7.18917 23.5749 7.36098 23.77C7.77432 24.0549 8.20893 24.3075 8.66098 24.5259C9.41139 24.8342 10.1835 25.0872 10.971 25.2822C12.2032 25.5174 13.4536 25.6438 14.708 25.6602C14.7367 25.1266 14.7227 24.5914 14.666 24.0601C14.6047 23.8557 14.5997 23.6386 14.6514 23.4316C14.7031 23.2247 14.8097 23.0352 14.96 22.8838C15.128 22.7578 15.547 22.8002 16.177 23.0942C16.85 23.3882 17.606 23.7241 18.487 24.1021C19.368 24.4801 20.335 24.8578 21.343 25.2358C22.2194 25.5703 23.1377 25.7827 24.072 25.8662C25.5068 25.9532 26.942 25.7018 28.262 25.1328C29.582 24.5638 30.75 23.6927 31.672 22.5898C32.091 23.0098 32.428 23.4301 32.721 23.7241C33.055 24.0996 33.3505 24.5074 33.603 24.9419C33.7296 25.1946 33.8963 25.2785 34.103 25.1938C34.1986 25.1141 34.2665 25.0061 34.2967 24.8853C34.3269 24.7645 34.3179 24.6373 34.271 24.522C34.145 23.85 33.978 23.2218 33.81 22.5898C33.6225 21.9428 33.3537 21.3225 33.01 20.7432C33.5334 19.703 33.9279 18.6025 34.185 17.4668C34.4864 16.2737 34.6001 15.0411 34.522 13.813C34.491 12.8336 34.3498 11.8609 34.101 10.9131C33.908 10.0558 33.5824 9.23389 33.136 8.47705C32.7449 7.83673 32.231 7.27987 31.624 6.83887C31.0697 6.45709 30.4065 6.26559 29.734 6.29297C29.0233 6.32067 28.3427 6.58685 27.802 7.04883C27.2435 7.56013 26.7874 8.17318 26.458 8.85498C26.1015 9.67462 25.8476 10.5351 25.702 11.417C25.5743 12.4055 25.5325 13.4032 25.577 14.3989C25.6484 15.1679 25.8467 15.9199 26.164 16.624C26.4646 17.3323 26.8602 17.9966 27.34 18.5981C27.829 19.1984 28.364 19.7595 28.94 20.2769C29.528 20.7809 30.116 21.2431 30.704 21.6631C30.1546 22.4177 29.4345 23.0317 28.6026 23.4551C27.7707 23.8784 26.8504 24.0992 25.917 24.0991C26.1263 23.7763 26.2819 23.4214 26.378 23.0488C26.4904 22.6383 26.5469 22.2147 26.546 21.7891C26.5295 21.3887 26.3925 21.0023 26.1528 20.6812C25.9132 20.36 25.5821 20.1186 25.203 19.9888C24.8371 19.8775 24.4509 19.8502 24.0729 19.9082C23.6949 19.9662 23.3347 20.1084 23.019 20.3242C23.3492 20.7261 23.5264 21.2318 23.519 21.752C23.5497 22.1781 23.4142 22.5998 23.141 22.9282C22.889 23.2222 22.511 23.2222 22.007 22.9702C21.4107 22.6406 20.8834 22.1989 20.454 21.6699C19.8919 20.9718 19.4124 20.211 19.025 19.4028C18.5728 18.4883 18.2616 17.5106 18.102 16.5029C17.982 15.8747 18.0104 15.2271 18.185 14.6118C18.33 14.0159 18.5416 13.4386 18.816 12.8901C19.0456 12.4548 19.3597 12.0693 19.74 11.7568C19.8429 11.6405 19.9835 11.5641 20.1371 11.541C20.2907 11.518 20.4475 11.5498 20.58 11.6309C20.6427 11.7338 20.6852 11.8478 20.705 11.9668C20.7413 12.1885 20.7553 12.4137 20.747 12.6382V14.1499C20.7327 14.6794 20.9291 15.1932 21.293 15.5781C21.42 15.7447 21.586 15.8772 21.7765 15.9644C21.9669 16.0516 22.1759 16.0908 22.385 16.0781C22.6567 16.0444 22.9177 15.9517 23.1498 15.8066C23.382 15.6616 23.5796 15.4672 23.729 15.2378C24.0906 14.7033 24.2944 14.0781 24.317 13.4331C24.4384 12.1697 24.3672 10.8949 24.106 9.65283C23.9099 8.53905 23.5418 7.46261 23.015 6.46191C22.9177 6.20713 22.8888 5.93154 22.931 5.66211C22.9719 5.37087 23.0877 5.09493 23.267 4.86182C23.3265 4.74331 23.4092 4.63814 23.5102 4.55225C23.6112 4.46635 23.7285 4.40149 23.855 4.36182C23.9903 4.30931 24.1379 4.29732 24.2799 4.32715C24.4219 4.35697 24.5522 4.42729 24.655 4.52979C25.0513 4.75268 25.43 5.00576 25.788 5.28613C26.1124 5.5284 26.4846 5.69884 26.88 5.78613C27.2201 5.81394 27.5595 5.72477 27.8422 5.53369C28.1249 5.34262 28.334 5.06079 28.435 4.73486C28.7696 3.89319 28.8281 2.96692 28.602 2.08984C28.56 1.66884 28.351 1.50097 28.014 1.54297C27.678 1.54297 27.514 1.75384 27.469 2.08984C27.4761 2.41244 27.4618 2.73547 27.426 3.05615C27.426 3.39215 27.3 3.55615 27.09 3.55615C26.922 3.55615 26.755 3.38815 26.629 3.05615C26.503 2.72415 26.334 2.38387 26.166 1.96387C25.9828 1.57681 25.7578 1.21115 25.495 0.873047C25.3519 0.710934 25.1779 0.578797 24.9832 0.484863C24.7884 0.39093 24.5769 0.337219 24.361 0.326172C24.1286 0.364391 23.91 0.461781 23.7261 0.608887C23.5422 0.755992 23.3993 0.947711 23.311 1.16602C23.0573 1.73405 22.9284 2.35006 22.933 2.97217C22.849 3.22317 22.723 3.35011 22.555 3.30811C22.4678 3.28553 22.3893 3.23723 22.3295 3.16992C22.2697 3.10261 22.2312 3.0194 22.219 2.93018C22.1203 2.72599 22.0361 2.51479 21.967 2.29883C21.883 2.04783 21.841 1.83795 21.757 1.62695C21.631 1.41795 21.547 1.24995 21.463 1.12695C21.4303 1.05644 21.3761 0.998189 21.3082 0.960449C21.2403 0.92271 21.1621 0.907468 21.085 0.916992C20.896 0.93633 20.714 0.999671 20.5536 1.10156C20.3932 1.20345 20.2588 1.34101 20.161 1.50391C19.8288 1.92603 19.5338 2.37625 19.279 2.84912C18.985 3.34912 18.691 3.89883 18.397 4.52783C18.145 5.11583 17.897 5.66293 17.642 6.12793C17.551 6.25407 17.5094 6.40924 17.5249 6.56396C17.5403 6.71869 17.6119 6.86214 17.726 6.96777C17.935 7.17777 18.145 7.13579 18.355 6.88379C18.697 6.50567 19.0934 6.18061 19.531 5.91895C19.7409 5.79888 19.977 5.73242 20.2187 5.7251C20.4604 5.71777 20.7002 5.76981 20.917 5.87695C21.2802 6.05567 21.5858 6.33268 21.799 6.67676C22.1517 7.10609 22.4351 7.58813 22.639 8.10498C22.902 8.63533 23.0859 9.20151 23.185 9.78516C23.3245 10.3078 23.3389 10.8555 23.227 11.3848C22.8672 10.9449 22.406 10.5991 21.883 10.377C21.3888 10.1279 20.8335 10.0259 20.283 10.083C19.7684 10.1914 19.2996 10.4552 18.94 10.8389C18.528 11.2632 18.1999 11.7619 17.973 12.3081C17.7033 12.9127 17.5063 13.5473 17.386 14.1982C17.2605 14.8907 17.2182 15.5953 17.26 16.2979C17.3687 17.6257 17.7245 18.9219 18.309 20.1191C18.8794 21.3837 19.7093 22.514 20.745 23.437C19.7007 23.0926 18.7712 22.4677 18.058 21.6309C17.258 20.7499 16.504 19.8678 15.706 18.9858C15.4414 18.6787 15.1113 18.4348 14.74 18.272C14.4235 18.1879 14.0905 18.1879 13.774 18.272C13.4769 18.3576 13.2131 18.5321 13.018 18.772C12.8112 19.0609 12.6684 19.3903 12.599 19.7388C12.4289 20.4284 12.4289 21.1492 12.599 21.8389C12.766 22.4279 12.976 23.139 13.186 23.939C12.5972 23.8936 12.0176 23.7665 11.464 23.561C10.9015 23.3404 10.365 23.0589 9.86398 22.7212C9.36016 22.3431 8.93232 21.8729 8.60298 21.3359C8.30031 20.75 8.12965 20.1048 8.10298 19.4458C8.08143 18.9664 8.18227 18.4897 8.39598 18.0601C8.61624 17.6422 8.91583 17.271 9.27798 16.9678C9.64726 16.6141 10.0559 16.3043 10.496 16.0439C10.958 15.7525 11.435 15.4857 11.925 15.2441C12.0014 15.1996 12.0672 15.1389 12.1178 15.0664C12.1684 14.9939 12.2026 14.9113 12.218 14.8242C12.2594 14.6601 12.2594 14.4883 12.218 14.3242C12.1557 14.1623 12.0551 14.0175 11.925 13.9028C11.8763 13.841 11.8098 13.796 11.7344 13.7734C11.6591 13.7509 11.5786 13.752 11.504 13.7769C10.7519 13.9534 10.02 14.2074 9.31999 14.5342C8.58644 14.8479 7.82818 15.1004 7.05298 15.2891C5.91965 15.5411 4.91198 14.8689 4.02998 13.2729C3.77698 12.8949 3.52999 12.773 3.27399 12.937C2.97899 13.063 2.93699 13.3998 3.06299 13.9028C3.23199 14.4028 3.39898 14.8691 3.52498 15.2471C3.58007 15.4339 3.67151 15.6079 3.79404 15.7593C3.91656 15.9106 4.06777 16.0361 4.23898 16.1289C4.57241 16.3896 4.9941 16.5103 5.41498 16.4658C5.78941 16.4354 6.15735 16.3503 6.50699 16.2129C6.19299 16.5934 5.96389 17.037 5.83499 17.5132C5.70018 18.036 5.62966 18.5729 5.62498 19.1128C5.63014 19.6787 5.70061 20.2423 5.83499 20.792C5.93184 21.2849 6.08692 21.7648 6.29698 22.2212C5.91635 22.3994 5.49906 22.4854 5.07898 22.4722C4.82777 22.4601 4.58304 22.3885 4.36499 22.2632C4.16652 22.1855 3.99346 22.0539 3.86499 21.8838C3.69132 21.7334 3.46516 21.6579 3.23598 21.6738C3.06698 21.6738 2.85698 21.8422 2.60498 22.0942C2.35398 22.3892 2.10499 22.7241 1.84999 23.0601C1.59799 23.4381 1.34598 23.8158 1.09398 24.1938C0.841979 24.5718 0.630989 24.8662 0.463989 25.0762L0.47699 25.0718ZM35.92 39.1821C35.9481 40.1473 36.0891 41.1057 36.34 42.0381C36.5517 42.8893 36.8766 43.7083 37.306 44.4731C37.6853 45.1119 38.2017 45.6585 38.818 46.0732C39.3714 46.4562 40.0346 46.6481 40.707 46.6201C41.4097 46.5885 42.085 46.3382 42.639 45.9048C43.216 45.4275 43.6761 44.8247 43.984 44.1421C44.3461 43.3392 44.5999 42.4918 44.739 41.6221C44.9084 40.6238 44.9507 39.6081 44.865 38.5991C44.8334 37.8146 44.6479 37.044 44.319 36.3311C43.9785 35.648 43.5704 35.0007 43.101 34.3989C42.6236 33.7753 42.0879 33.1986 41.501 32.6768C40.9137 32.1741 40.3256 31.7123 39.737 31.291C40.3185 30.5469 41.0562 29.9394 41.8979 29.5112C42.7397 29.0831 43.6651 28.8447 44.609 28.813C44.3942 29.1679 44.2261 29.5488 44.109 29.9468C43.9651 30.351 43.8943 30.778 43.9 31.207C43.9539 31.6379 44.1271 32.045 44.4 32.3828C44.6107 32.6721 44.9033 32.8919 45.24 33.0132C45.5958 33.1117 45.9697 33.1261 46.332 33.0552C46.7251 32.9818 47.0976 32.8238 47.424 32.5928C47.1179 32.1936 46.9433 31.7096 46.924 31.207C46.9067 30.7958 47.0412 30.3927 47.302 30.0742C47.595 29.7792 47.974 29.7792 48.477 30.0322C49.051 30.3768 49.5622 30.8162 49.989 31.332C51.1783 32.8386 51.9853 34.6108 52.341 36.4971C52.4602 37.125 52.4314 37.7723 52.257 38.3872C52.1434 38.9788 51.9304 39.5465 51.627 40.0669C51.4251 40.4965 51.1225 40.8714 50.745 41.1592C50.409 41.4112 50.115 41.4521 49.906 41.3271C49.738 41.2431 49.696 40.9068 49.696 40.3188V38.8491C49.6687 38.32 49.4612 37.8159 49.108 37.4209C48.9921 37.2529 48.8341 37.1185 48.6498 37.0308C48.4656 36.943 48.2615 36.905 48.058 36.9209C47.7863 36.9542 47.5252 37.0465 47.293 37.1914C47.0608 37.3363 46.8632 37.5303 46.714 37.7598C46.3513 38.3098 46.1478 38.9495 46.126 39.6079C46.0071 40.8574 46.0779 42.1179 46.336 43.3462C46.5788 44.4614 46.945 45.546 47.428 46.5801C47.5219 46.82 47.5505 47.0804 47.511 47.335C47.4696 47.6126 47.3539 47.8737 47.176 48.0908C47.1163 48.2092 47.0335 48.3145 46.9326 48.4004C46.8316 48.4863 46.7144 48.5509 46.588 48.5908C46.4591 48.6487 46.3172 48.6715 46.1767 48.6567C46.0361 48.642 45.902 48.5902 45.788 48.5068C45.41 48.2128 45.032 47.961 44.696 47.707C44.368 47.4511 43.9754 47.2913 43.562 47.2451C43.2253 47.2002 42.8837 47.2771 42.5987 47.4619C42.3137 47.6468 42.1042 47.9272 42.008 48.2529C41.6734 49.0946 41.6149 50.0209 41.841 50.8979C41.883 51.277 42.092 51.445 42.428 51.3979C42.4967 51.4013 42.5655 51.391 42.6302 51.3677C42.695 51.3443 42.7545 51.3082 42.8053 51.2617C42.856 51.2152 42.8971 51.1591 42.926 51.0967C42.955 51.0342 42.9713 50.9667 42.974 50.8979C43.0108 50.5636 43.0248 50.2273 43.016 49.8911C43.016 49.5971 43.143 49.4292 43.352 49.4292C43.52 49.4292 43.688 49.5972 43.814 49.9292C43.94 50.2612 44.108 50.643 44.276 51.021C44.4499 51.4132 44.6759 51.78 44.948 52.1118C45.085 52.2809 45.2577 52.4176 45.4538 52.5122C45.6498 52.6068 45.8643 52.6572 46.082 52.6592C46.3201 52.6371 46.5465 52.5455 46.7331 52.396C46.9198 52.2465 47.0585 52.0454 47.132 51.8179C47.3891 51.2531 47.5178 50.6385 47.509 50.0181C47.593 49.7241 47.719 49.5981 47.888 49.6821C47.9772 49.7089 48.0584 49.7575 48.1243 49.8232C48.1903 49.889 48.2389 49.97 48.266 50.0591C48.3721 50.2451 48.4563 50.4426 48.517 50.6479C48.5534 50.8902 48.61 51.1289 48.686 51.3618C48.812 51.5718 48.896 51.7392 48.98 51.9072C49.0735 52.0237 49.2087 52.099 49.357 52.1172C49.5454 52.0799 49.7244 52.0051 49.8831 51.897C50.0419 51.7889 50.1772 51.6494 50.281 51.4878C50.6136 51.082 50.9088 50.6471 51.163 50.188C51.457 49.643 51.752 49.0968 52.045 48.5088C52.297 47.9208 52.592 47.3751 52.801 46.8711C52.9 46.7403 52.9463 46.5769 52.9307 46.4136C52.9152 46.2503 52.8389 46.0986 52.717 45.9888C52.507 45.7378 52.297 45.7378 52.087 46.0308C51.758 46.4339 51.3597 46.7756 50.911 47.0391C50.701 47.1554 50.4676 47.2233 50.228 47.2378C49.9884 47.2523 49.7485 47.2132 49.526 47.123C49.1557 46.9774 48.845 46.7116 48.644 46.3682C48.3062 45.9133 48.0239 45.4196 47.803 44.8979C47.5589 44.3602 47.3761 43.7964 47.258 43.2178C47.1187 42.6951 47.1044 42.1474 47.216 41.6182C47.5642 42.0695 48.0284 42.4177 48.559 42.626C49.063 42.8894 49.631 43.0057 50.198 42.9619C50.6933 42.836 51.1436 42.5743 51.498 42.2061C51.9095 41.7972 52.2376 41.3119 52.464 40.7778C52.7346 40.159 52.932 39.5109 53.052 38.8462C53.1775 38.1396 53.2198 37.4206 53.178 36.7041C53.0692 35.3761 52.7131 34.0799 52.128 32.8828C51.5686 31.6242 50.737 30.5054 49.693 29.6069C50.7318 29.919 51.6626 30.5156 52.38 31.3291C53.18 32.2111 53.934 33.0931 54.732 33.9751C54.9376 34.2841 55.2332 34.5225 55.5788 34.6577C55.9244 34.793 56.3033 34.8183 56.664 34.731C56.9857 34.6206 57.2682 34.419 57.4769 34.1504C57.6857 33.8818 57.8115 33.5583 57.839 33.2192C58.0075 32.5152 58.0075 31.7812 57.839 31.0771C57.672 30.4891 57.462 29.817 57.252 29.062C57.8358 29.1132 58.4126 29.2255 58.973 29.397C59.5392 29.6092 60.0767 29.8912 60.573 30.2368C61.0865 30.6039 61.5158 31.0767 61.832 31.623C62.1404 32.2218 62.3112 32.882 62.332 33.5552C62.3535 34.0347 62.2523 34.5115 62.038 34.9409C61.8195 35.3717 61.52 35.7567 61.156 36.0742C60.7858 36.415 60.377 36.7111 59.938 36.957C59.476 37.209 59.014 37.4568 58.51 37.7568C58.3892 37.8794 58.2898 38.0213 58.216 38.1768C58.1748 38.3409 58.1748 38.5126 58.216 38.6768C58.2893 38.8325 58.3887 38.975 58.51 39.0972C58.5601 39.1568 58.6266 39.2003 58.7012 39.2227C58.7758 39.245 58.8553 39.2453 58.93 39.2231C59.6908 39.1014 60.4279 38.8604 61.114 38.5098C61.8509 38.1565 62.6255 37.8883 63.423 37.71C64.516 37.458 65.523 38.1301 66.405 39.7261C66.658 40.1461 66.905 40.272 67.205 40.104C67.505 39.894 67.542 39.5582 67.373 39.0122C67.205 38.5122 67.037 38.088 66.911 37.752C66.8019 37.3978 66.5808 37.0888 66.281 36.8711C66.1115 36.7352 65.9161 36.6351 65.7067 36.5771C65.4973 36.5192 65.2783 36.5047 65.063 36.5342C64.602 36.5762 64.223 36.6601 63.93 36.7021C64.2275 36.311 64.4549 35.8708 64.602 35.4019C64.7361 34.8946 64.8063 34.3728 64.811 33.8481C64.8089 33.2956 64.7387 32.7453 64.602 32.21C64.5183 31.7139 64.3623 31.233 64.139 30.7822C64.5335 30.5997 64.9656 30.5129 65.4 30.5298C65.6469 30.5632 65.8874 30.6345 66.113 30.7402L66.613 31.1182C66.7781 31.2552 66.9864 31.3296 67.201 31.3281C67.3357 31.3076 67.4648 31.2597 67.5804 31.1875C67.6959 31.1153 67.7955 31.0203 67.873 30.9082C68.1457 30.6029 68.3982 30.2799 68.629 29.9419C68.881 29.5639 69.091 29.1871 69.343 28.8081C69.595 28.4291 69.805 28.1358 69.973 27.9268C69.511 27.8428 68.923 27.7588 68.209 27.6328C67.6328 27.4888 67.0245 27.5481 66.487 27.8008C66.2953 27.927 66.1132 28.0675 65.942 28.2202C65.731 28.3882 65.522 28.5981 65.312 28.7661C65.1007 28.9809 64.8603 29.1648 64.598 29.313C64.3431 29.4716 64.0562 29.5716 63.758 29.606C63.5106 29.5492 63.2802 29.4344 63.086 29.271C62.6796 28.9867 62.2437 28.7471 61.786 28.5562C61.0449 28.2123 60.271 27.944 59.476 27.7559C58.2497 27.4783 56.9963 27.3375 55.739 27.3359C55.711 27.8819 55.725 28.4294 55.781 28.9731C55.8395 29.1713 55.8429 29.3816 55.7909 29.5815C55.739 29.7815 55.6335 29.9633 55.486 30.1079C55.319 30.2329 54.899 30.192 54.269 29.897C53.597 29.645 52.841 29.3102 51.959 28.8892C51.078 28.5122 50.111 28.1329 49.104 27.7979C48.2288 27.4506 47.3103 27.2246 46.374 27.126C44.9421 27.0287 43.5075 27.2707 42.1869 27.8325C40.8663 28.3943 39.6969 29.2599 38.774 30.3589C38.354 29.9389 38.018 29.5591 37.724 29.2681C37.472 28.9314 37.178 28.5111 36.842 28.0078C36.8268 27.9583 36.801 27.9129 36.7663 27.8745C36.7316 27.8361 36.6889 27.8062 36.6412 27.7861C36.5935 27.7661 36.5419 27.7567 36.4902 27.7588C36.4385 27.7609 36.3879 27.774 36.342 27.7979C36.175 27.9239 36.091 28.1332 36.175 28.5122C36.3023 29.1516 36.4693 29.7822 36.675 30.4009C36.854 31.0443 37.1078 31.6646 37.431 32.249C36.9005 33.2862 36.5056 34.3871 36.256 35.5249C35.9564 36.718 35.8428 37.9505 35.919 39.1782L35.92 39.1821ZM35.92 13.8169C35.8418 15.045 35.9555 16.2781 36.257 17.4712C36.5136 18.607 36.9082 19.7071 37.432 20.7471C37.1016 21.3277 36.8475 21.9486 36.676 22.5942C36.4651 23.226 36.298 23.8711 36.176 24.5259C36.1293 24.6412 36.1203 24.7684 36.1503 24.8892C36.1803 25.0099 36.2478 25.1182 36.343 25.1982C36.553 25.2822 36.7197 25.1978 36.843 24.9458C37.0962 24.5118 37.3916 24.104 37.725 23.728C38.019 23.434 38.355 23.0142 38.775 22.5942C39.6968 23.6972 40.8648 24.5682 42.1849 25.1372C43.5049 25.7062 44.9402 25.9572 46.375 25.8701C47.3096 25.7867 48.2283 25.5748 49.105 25.2402C50.112 24.8622 51.079 24.484 51.96 24.106C52.841 23.728 53.598 23.3921 54.27 23.0981C54.9 22.8041 55.32 22.7622 55.487 22.8882C55.6376 23.0394 55.7445 23.2285 55.7964 23.4355C55.8484 23.6426 55.8434 23.8596 55.782 24.064C55.7253 24.5953 55.7112 25.1305 55.74 25.6641C56.9946 25.6524 58.2455 25.5259 59.477 25.2861C60.2644 25.091 61.0365 24.838 61.787 24.5298C62.2389 24.3112 62.6735 24.0586 63.087 23.7739C63.2692 23.5929 63.5048 23.4752 63.759 23.438C64.0537 23.4226 64.3462 23.4957 64.599 23.6479C64.8613 23.7957 65.1016 23.9794 65.313 24.1938C65.523 24.3618 65.732 24.5722 65.943 24.7402C66.114 24.8935 66.2962 25.0338 66.488 25.1602C67.0262 25.4077 67.6281 25.481 68.21 25.3701C68.924 25.2441 69.51 25.1602 69.974 25.0762C69.806 24.8662 69.596 24.5718 69.344 24.1938C69.092 23.8158 68.882 23.4381 68.63 23.0601C68.379 22.7241 68.13 22.3892 67.874 22.0942C67.7965 21.9821 67.6969 21.8867 67.5814 21.8145C67.4658 21.7422 67.3367 21.6944 67.202 21.6738C66.9874 21.6724 66.7791 21.7467 66.614 21.8838C66.4685 22.0359 66.2997 22.1642 66.114 22.2632C65.8963 22.3885 65.6519 22.4602 65.401 22.4722C64.9667 22.4896 64.5345 22.4036 64.14 22.2212C64.3694 21.7725 64.5257 21.2899 64.603 20.792C64.737 20.2422 64.8072 19.6786 64.812 19.1128C64.8076 18.5729 64.7374 18.036 64.603 17.5132C64.4737 17.0371 64.2446 16.5937 63.931 16.2129C64.2935 16.3546 64.6756 16.4399 65.064 16.4658C65.4974 16.5044 65.9301 16.3848 66.282 16.1289C66.5819 15.9108 66.803 15.6015 66.912 15.2471C67.038 14.8691 67.206 14.4078 67.374 13.9028C67.4492 13.7014 67.4639 13.4825 67.416 13.2729C67.3989 13.1241 67.3233 12.9882 67.206 12.895C67.122 12.812 66.996 12.812 66.828 12.854C66.6488 12.948 66.5024 13.094 66.408 13.2729C66.0816 13.9323 65.6073 14.5074 65.022 14.9531C64.8068 15.1421 64.5464 15.2722 64.2661 15.3311C63.9858 15.3899 63.695 15.3755 63.422 15.2891C62.6313 15.107 61.8585 14.8545 61.113 14.5342C60.413 14.2072 59.6811 13.9532 58.929 13.7769C58.8543 13.7547 58.7748 13.755 58.7002 13.7773C58.6256 13.7997 58.5591 13.8432 58.509 13.9028C58.3782 14.0172 58.2773 14.1621 58.215 14.3242C58.1736 14.4883 58.1736 14.6601 58.215 14.8242C58.2304 14.9114 58.2647 14.9939 58.3155 15.0664C58.3662 15.139 58.4323 15.1998 58.509 15.2441C58.9986 15.4857 59.4753 15.7525 59.937 16.0439C60.3774 16.3038 60.7861 16.6137 61.155 16.9678C61.5174 17.2707 61.8171 17.642 62.037 18.0601C62.2516 18.4894 62.3527 18.9663 62.331 19.4458C62.3048 20.1048 62.1341 20.7502 61.831 21.3359C61.515 21.8822 61.0857 22.3547 60.572 22.7212C60.0757 23.0668 59.5382 23.3488 58.972 23.561C58.4187 23.7665 57.8394 23.8936 57.251 23.939C57.461 23.139 57.671 22.4279 57.838 21.8389C58.0071 21.1491 58.0071 20.4286 57.838 19.7388C57.8108 19.3996 57.6852 19.0763 57.4764 18.8076C57.2677 18.539 56.9849 18.3371 56.663 18.2271C56.3023 18.1394 55.9234 18.165 55.5777 18.3003C55.232 18.4356 54.9364 18.6737 54.731 18.9829C53.931 19.8649 53.177 20.7469 52.379 21.6279C51.6657 22.4648 50.7362 23.0897 49.692 23.4341C50.7276 22.5113 51.5573 21.3809 52.127 20.1162C52.7122 18.9192 53.0684 17.6229 53.177 16.2949C53.2188 15.5924 53.1765 14.8873 53.051 14.1948C52.9308 13.5437 52.7334 12.9096 52.463 12.3052C52.2364 11.759 51.9087 11.2603 51.497 10.8359C51.1659 10.4391 50.7057 10.1716 50.197 10.0801C49.6338 10.02 49.0652 10.122 48.558 10.374C48.0352 10.5961 47.5742 10.9418 47.215 11.3818C47.1031 10.8526 47.1175 10.3049 47.257 9.78223C47.3751 9.20356 47.5579 8.63984 47.802 8.10205C48.0225 7.59324 48.3049 7.11339 48.643 6.67383C48.8559 6.32955 49.1616 6.05247 49.525 5.87402C49.7416 5.76688 49.9812 5.71484 50.2227 5.72217C50.4643 5.72949 50.7003 5.79595 50.91 5.91602C51.3478 6.17743 51.7441 6.50251 52.086 6.88086C52.296 7.13286 52.506 7.17484 52.716 6.96484C52.8378 6.86413 52.915 6.71979 52.9307 6.5625C52.9464 6.40521 52.8995 6.24785 52.8 6.125C52.591 5.664 52.3 5.1169 52.044 4.5249C51.751 3.8959 51.456 3.35019 51.162 2.84619C50.9072 2.37332 50.6121 1.9231 50.28 1.50098C50.1823 1.33792 50.0479 1.20006 49.8875 1.09814C49.7271 0.996231 49.5451 0.933171 49.356 0.914062C49.2805 0.914024 49.2062 0.93346 49.1402 0.970215C49.0742 1.00697 49.0187 1.05978 48.979 1.12402C48.895 1.25002 48.811 1.41802 48.685 1.62402C48.6043 1.84118 48.5476 2.0664 48.516 2.2959C48.4467 2.51167 48.3628 2.72235 48.265 2.92676C48.2378 3.01591 48.189 3.09717 48.1231 3.16309C48.0572 3.229 47.9761 3.27795 47.887 3.30518C47.718 3.34718 47.587 3.22024 47.508 2.96924C47.513 2.3472 47.3844 1.73119 47.131 1.16309C47.0427 0.944781 46.8997 0.752574 46.7159 0.605469C46.532 0.458363 46.3133 0.361461 46.081 0.323242C45.8651 0.334289 45.6535 0.388 45.4588 0.481934C45.264 0.575867 45.09 0.708005 44.947 0.870117C44.6835 1.20796 44.4582 1.57366 44.275 1.96094C44.107 2.38094 43.94 2.71722 43.813 3.05322C43.686 3.38922 43.519 3.55322 43.351 3.55322C43.142 3.55322 43.015 3.38522 43.015 3.05322C43.022 2.73065 43.0079 2.40766 42.973 2.08691C42.931 1.75091 42.763 1.54004 42.427 1.54004C42.091 1.49804 41.882 1.66591 41.84 2.08691C41.6138 2.96399 41.6723 3.89026 42.007 4.73193C42.108 5.05768 42.3169 5.33922 42.5994 5.53027C42.8819 5.72133 43.2211 5.81077 43.561 5.7832C43.9721 5.70486 44.3599 5.53386 44.695 5.2832C45.0318 4.99401 45.3978 4.7403 45.787 4.52686C45.8897 4.42425 46.02 4.35405 46.162 4.32422C46.3041 4.29439 46.4517 4.30625 46.587 4.35889C46.7134 4.39871 46.8306 4.46344 46.9316 4.54932C47.0326 4.6352 47.1154 4.74048 47.175 4.85889C47.3539 5.0921 47.4694 5.36803 47.51 5.65918C47.552 5.92854 47.5234 6.20398 47.427 6.45898C46.937 7.47527 46.5704 8.54647 46.335 9.6499C46.0746 10.8921 46.0038 12.1668 46.125 13.4302C46.1467 14.0753 46.3505 14.7008 46.713 15.2349C46.8621 15.4645 47.0597 15.6586 47.2919 15.8037C47.5241 15.9488 47.7852 16.0417 48.057 16.0752C48.2605 16.0912 48.4646 16.0531 48.6489 15.9653C48.8332 15.8776 48.9912 15.7433 49.107 15.5752C49.4673 15.1848 49.6759 14.6779 49.695 14.147V12.6348C49.695 12.0468 49.737 11.7119 49.905 11.6279C50.114 11.4599 50.405 11.5019 50.744 11.7539C51.1311 12.0317 51.4359 12.4093 51.626 12.8462C51.9365 13.3632 52.15 13.9322 52.256 14.5259C52.4305 15.1694 52.4592 15.8439 52.34 16.5C52.18 17.5077 51.8685 18.4854 51.416 19.3999C51.0445 20.2166 50.5641 20.9792 49.988 21.667C49.5728 22.194 49.0593 22.6353 48.476 22.9668C47.976 23.2188 47.594 23.2188 47.301 22.9248C47.0273 22.5966 46.8918 22.1752 46.923 21.749C46.9354 21.2323 47.1104 20.7324 47.423 20.3208C47.0854 20.1202 46.7161 19.9786 46.331 19.9019C45.9665 19.8232 45.5871 19.8524 45.239 19.9858C44.9019 20.1064 44.6091 20.3264 44.399 20.6162C44.1261 20.9536 43.9529 21.3604 43.899 21.791C43.8933 22.2201 43.964 22.6465 44.108 23.0508C44.2148 23.4263 44.3838 23.7815 44.608 24.1011C43.6608 24.1113 42.7248 23.8953 41.8775 23.4717C41.0303 23.0481 40.2961 22.4289 39.736 21.665C40.3253 21.2464 40.9133 20.7841 41.5 20.2788C42.0763 19.7617 42.6112 19.2006 43.1 18.6001C43.5787 17.9899 43.9873 17.3276 44.318 16.626C44.6417 15.9264 44.8271 15.1708 44.864 14.4009C44.9507 13.4056 44.9084 12.4034 44.738 11.4189C44.5927 10.5371 44.3391 9.67661 43.983 8.85693C43.6533 8.17508 43.1968 7.56203 42.638 7.05078C42.0973 6.58867 41.4167 6.32247 40.706 6.29492C40.0338 6.26769 39.371 6.45918 38.817 6.84082C38.2097 7.28155 37.6958 7.83846 37.305 8.479C36.8758 9.24429 36.5509 10.0636 36.339 10.915C36.091 11.863 35.9501 12.8356 35.919 13.8149L35.92 13.8169ZM26.64 41.3242C26.6584 40.7755 26.7717 40.2341 26.975 39.7241C27.185 39.1361 27.522 38.8418 28.025 38.8418C28.2091 38.8375 28.3905 38.8869 28.5471 38.9839C28.7037 39.0808 28.8287 39.2215 28.907 39.3882C29.0368 39.5756 29.1262 39.7879 29.1696 40.0117C29.213 40.2355 29.2093 40.4657 29.159 40.688C29.0914 41.311 28.8909 41.9124 28.571 42.4512C28.7334 42.5347 28.9134 42.5781 29.096 42.5781C29.2786 42.5781 29.4586 42.5347 29.621 42.4512C29.9575 42.3273 30.2404 42.0896 30.421 41.7798C30.6765 41.4574 30.8624 41.0858 30.967 40.688C31.0785 40.3203 31.1351 39.9384 31.135 39.5542C31.2036 39.035 31.1437 38.5067 30.9606 38.0161C30.7776 37.5255 30.4769 37.0876 30.085 36.7402C29.371 36.2402 28.448 36.3212 27.313 36.9512C27.3614 36.4588 27.603 36.0054 27.985 35.6909C28.374 35.3906 28.7969 35.137 29.245 34.9351C29.745 34.7251 30.253 34.5142 30.799 34.2632C31.3311 34.0557 31.8061 33.7243 32.185 33.2969C32.6065 34.047 32.958 34.8343 33.235 35.6489C33.5553 36.7106 33.7108 37.815 33.696 38.9238C33.6951 39.7145 33.611 40.5029 33.445 41.2759C33.2627 41.9784 32.994 42.6557 32.645 43.292C32.3449 43.8244 31.9457 44.2943 31.469 44.6768C31.1774 44.9266 30.835 45.1103 30.4656 45.2148C30.0961 45.3194 29.7083 45.3426 29.3291 45.2827C28.9498 45.2228 28.588 45.0815 28.2688 44.8682C27.9495 44.6548 27.6804 44.3744 27.48 44.0469C26.9385 43.2392 26.6464 42.2902 26.64 41.3179V41.3242ZM36.76 38.9302C36.7352 37.8178 36.9044 36.7091 37.26 35.6548C37.5239 34.8418 37.8613 34.055 38.268 33.3032C38.6465 33.7305 39.1213 34.0614 39.653 34.269C40.2 34.52 40.703 34.7309 41.208 34.9409C41.6687 35.1425 42.1049 35.396 42.508 35.6968C42.6981 35.8486 42.853 36.0403 42.962 36.2578C43.0709 36.4754 43.1313 36.7138 43.139 36.957C42.004 36.327 41.081 36.2431 40.367 36.7461C39.9751 37.0934 39.6744 37.5313 39.4913 38.022C39.3083 38.5126 39.2484 39.0409 39.317 39.5601C39.3168 39.9443 39.3734 40.3262 39.485 40.6938C39.5891 41.0918 39.7751 41.464 40.031 41.7861C40.2113 42.0962 40.4943 42.3334 40.831 42.457C40.9934 42.5406 41.1734 42.584 41.356 42.584C41.5386 42.584 41.7186 42.5406 41.881 42.457C41.5602 41.9186 41.3596 41.317 41.293 40.6938C41.2118 40.2444 41.3013 39.781 41.544 39.394C41.6352 39.2288 41.769 39.0911 41.9315 38.9951C42.094 38.8991 42.2793 38.8484 42.468 38.8481C42.93 38.8481 43.266 39.142 43.476 39.73C43.68 40.2398 43.7937 40.7813 43.812 41.3301C43.8196 42.2986 43.5413 43.2479 43.012 44.0591C42.7481 44.4802 42.3733 44.8202 41.9288 45.0425C41.4843 45.2647 40.9872 45.3604 40.492 45.3188C39.9348 45.2721 39.4063 45.0519 38.981 44.689C38.504 44.3068 38.1048 43.8368 37.805 43.3042C37.453 42.6741 37.1981 41.9943 37.049 41.2881C36.8481 40.5204 36.7492 39.7295 36.755 38.936L36.76 38.9302ZM41.044 37.7119H41.128C41.337 37.7119 41.421 37.7958 41.421 38.0068C41.421 38.2178 41.337 38.3418 41.128 38.3418H41.044C40.876 38.3418 40.792 38.2158 40.792 38.0068C40.792 37.7978 40.876 37.7119 41.044 37.7119ZM47.468 38.5952C47.468 38.4272 47.594 38.3418 47.804 38.3418C47.8383 38.337 47.8733 38.3406 47.9062 38.3516C47.9391 38.3626 47.969 38.3807 47.9936 38.4053C48.0181 38.4298 48.0366 38.4598 48.0476 38.4927C48.0586 38.5256 48.0618 38.5609 48.057 38.5952V38.7622C48.0619 38.7965 48.0587 38.8314 48.0477 38.8643C48.0366 38.8971 48.0181 38.9267 47.9936 38.9512C47.969 38.9756 47.9391 38.994 47.9062 39.0049C47.8733 39.0158 47.8383 39.0192 47.804 39.0142C47.594 39.0142 47.468 38.9302 47.468 38.7622V38.5952ZM26.64 11.6338C26.645 11.1505 26.7153 10.6705 26.849 10.2061C26.9728 9.73581 27.1871 9.29394 27.48 8.90576C27.7625 8.54447 28.1028 8.23244 28.487 7.98193C28.9356 7.73379 29.4451 7.61738 29.957 7.646C30.5145 7.69272 31.0433 7.91294 31.469 8.27588C31.9561 8.66486 32.3566 9.15145 32.645 9.7041C32.994 10.3404 33.2627 11.0177 33.445 11.7202C33.6132 12.4783 33.6974 13.2523 33.696 14.0288C33.7107 15.138 33.5553 16.2432 33.235 17.3052C32.9654 18.1361 32.6137 18.9381 32.185 19.6992C31.8203 19.2465 31.3421 18.8983 30.799 18.6909C30.253 18.4389 29.749 18.2291 29.245 18.0181C28.7967 17.8168 28.3738 17.5635 27.985 17.2632C27.6009 16.9149 27.3611 16.4352 27.313 15.9189C28.448 16.6329 29.371 16.7189 30.085 16.2549C30.4728 15.9137 30.7713 15.483 30.9543 15C31.1373 14.517 31.1994 13.9964 31.135 13.4839C31.1411 13.0852 31.0844 12.6882 30.967 12.3071C30.8535 11.913 30.6684 11.5429 30.421 11.2158C30.2179 10.915 29.9429 10.6697 29.621 10.502C29.4525 10.4365 29.2723 10.4063 29.0916 10.4136C28.911 10.4208 28.7337 10.4653 28.571 10.5439C28.8908 11.0828 29.0913 11.6842 29.159 12.3071C29.2048 12.5297 29.2061 12.7588 29.1629 12.9819C29.1196 13.205 29.0326 13.4176 28.907 13.6069C28.8285 13.7734 28.7033 13.9135 28.5468 14.0103C28.3902 14.107 28.209 14.1561 28.025 14.1519C27.525 14.1519 27.185 13.858 26.975 13.27C26.7639 12.7495 26.6503 12.1954 26.64 11.6338ZM36.76 14.0269C36.7515 13.2473 36.8505 12.4703 37.054 11.7178C37.2031 11.0116 37.458 10.3323 37.81 9.70215C38.098 9.14929 38.4986 8.66263 38.986 8.27393C39.4113 7.91101 39.9398 7.69078 40.497 7.64404C41.0092 7.61546 41.519 7.73186 41.968 7.97998C42.352 8.23076 42.6922 8.54275 42.975 8.90381C43.2672 9.29227 43.4811 9.73407 43.605 10.2041C43.7395 10.6684 43.8101 11.1485 43.815 11.6318C43.8048 12.1935 43.6908 12.7487 43.479 13.269C43.269 13.857 42.933 14.1509 42.471 14.1509C42.2824 14.1506 42.0972 14.1002 41.9348 14.0044C41.7723 13.9086 41.6384 13.7709 41.547 13.606C41.3129 13.2157 41.224 12.7555 41.296 12.3062C41.3628 11.683 41.5633 11.0814 41.884 10.543C41.7212 10.4643 41.544 10.4198 41.3634 10.4126C41.1827 10.4054 41.0025 10.4355 40.834 10.501C40.5119 10.6684 40.2368 10.9138 40.034 11.2148C39.7862 11.5417 39.6011 11.9119 39.488 12.3062C39.3706 12.6872 39.3139 13.0842 39.32 13.4829C39.2553 13.9954 39.3172 14.516 39.5003 14.999C39.6833 15.4821 39.9819 15.9129 40.37 16.2539C41.084 16.7159 42.007 16.632 43.142 15.918C43.1345 16.1733 43.0746 16.4246 42.9661 16.6558C42.8575 16.887 42.7026 17.0934 42.511 17.2622C42.1081 17.563 41.6719 17.8162 41.211 18.0171C40.706 18.2281 40.203 18.4379 39.656 18.6899C39.1133 18.8976 38.6354 19.2457 38.271 19.6982C37.8573 18.9352 37.5197 18.1333 37.263 17.3042C36.9075 16.2495 36.7383 15.1406 36.763 14.0278L36.76 14.0269Z" fill="#C69C6D" />
	<path fill-rule="evenodd" clip-rule="evenodd" d="M72.665 29.062L213.129 27.1299V26.0381L72.665 23.938V29.062Z" fill="#C69C6D" />
	<path fill-rule="evenodd" clip-rule="evenodd" d="M214.558 29.6069C214.824 29.6036 215.079 29.4964 215.267 29.3081C215.455 29.1198 215.563 28.8654 215.566 28.5991V24.3989C215.562 24.1327 215.455 23.8787 215.267 23.6904C215.078 23.5022 214.824 23.3947 214.558 23.3911C214.292 23.3947 214.038 23.5022 213.849 23.6904C213.661 23.8787 213.554 24.1327 213.55 24.3989V28.5991C213.553 28.8654 213.661 29.1198 213.849 29.3081C214.037 29.4964 214.292 29.6036 214.558 29.6069Z" fill="#C69C6D" />
	<path fill-rule="evenodd" clip-rule="evenodd" d="M218.086 28.683C218.512 28.6789 218.927 28.5488 219.28 28.3095C219.632 28.0702 219.906 27.7323 220.067 27.3378C220.228 26.9434 220.269 26.5104 220.185 26.0927C220.101 25.6751 219.895 25.2914 219.594 24.9902C219.293 24.689 218.909 24.4834 218.491 24.3994C218.074 24.3153 217.641 24.3568 217.246 24.518C216.852 24.6793 216.514 24.9535 216.275 25.3061C216.036 25.6587 215.906 26.0739 215.902 26.4999C215.906 27.0777 216.138 27.6305 216.547 28.039C216.955 28.4475 217.508 28.6789 218.086 28.683Z" fill="#C69C6D" />
</svg>
