<svg width="27" height="27" viewBox="0 0 27 27" fill="none" xmlns="http://www.w3.org/2000/svg">
	<path d="M13.657 0.724121C11.1188 0.724121 8.63764 1.47657 6.52724 2.88672C4.41684 4.29687 2.77201 6.3015 1.80074 8.64648C0.829469 10.9915 0.575391 13.5716 1.07064 16.061C1.56588 18.5504 2.7882 20.8371 4.58303 22.6318C6.37785 24.4265 8.66456 25.6485 11.154 26.1436C13.6434 26.6386 16.2237 26.3845 18.5687 25.4131C20.9136 24.4416 22.9178 22.7965 24.3277 20.686C25.7377 18.5755 26.4902 16.0943 26.49 13.5562C26.4863 10.1539 25.133 6.89202 22.7272 4.48633C20.3213 2.08064 17.0593 0.727562 13.657 0.724121ZM13.657 25.167C11.3605 25.1672 9.11553 24.4862 7.20598 23.2104C5.29643 21.9347 3.80806 20.1216 2.9291 18C2.05013 15.8784 1.82006 13.5439 2.26796 11.2915C2.71586 9.03912 3.82164 6.97012 5.44542 5.34619C7.06921 3.72226 9.13809 2.61606 11.3904 2.16797C13.6428 1.71987 15.9774 1.94983 18.0991 2.82861C20.2208 3.70739 22.0342 5.19554 23.3101 7.10498C24.586 9.01442 25.267 11.2597 25.267 13.5562C25.2636 16.6344 24.0393 19.5855 21.8628 21.7622C19.6863 23.9389 16.7352 25.1633 13.657 25.167Z" fill="#C69C6D" />
	<path d="M17.4 19.3142C16.8291 19.7086 16.1818 19.979 15.5 20.1081C15.4123 20.1253 15.3239 20.1381 15.235 20.1462C15.143 20.1542 15.046 20.1584 14.945 20.1584C14.179 20.2104 13.4135 20.051 12.7315 19.6984C12.0496 19.3458 11.4774 18.8134 11.077 18.1584C10.2317 16.8193 9.78108 15.2688 9.77695 13.6853V13.6101C9.77392 12.7058 9.9016 11.8059 10.156 10.9382C10.3824 10.1312 10.7676 9.37766 11.289 8.72139C11.7296 8.18142 12.285 7.74658 12.9149 7.44844C13.6053 7.12846 14.3592 6.96882 15.12 6.98213V6.95723C15.2041 6.95719 15.2883 6.96172 15.372 6.97041C15.455 6.97841 15.539 6.99103 15.624 7.00703C16.3166 7.1522 16.9619 7.46841 17.5009 7.92695C17.7778 8.14463 18.002 8.42215 18.1568 8.73848C18.3116 9.0548 18.393 9.40194 18.395 9.7541C18.337 9.67932 18.2698 9.61242 18.195 9.55439L17.995 9.40205C17.9311 9.37011 17.8641 9.34526 17.795 9.32734C17.7296 9.31085 17.6624 9.30206 17.5949 9.30195C17.395 9.295 17.2004 9.36702 17.0529 9.50215C16.9038 9.64879 16.818 9.84819 16.814 10.0573C16.8152 10.1816 16.8365 10.3046 16.877 10.4221C16.927 10.563 16.9992 10.6951 17.091 10.8132C17.1513 10.9057 17.2232 10.99 17.305 11.0642C17.3695 11.1242 17.4419 11.1751 17.52 11.216C17.583 11.2649 17.6561 11.2991 17.734 11.3161C17.804 11.3332 17.8759 11.3418 17.948 11.342C18.1127 11.3383 18.2741 11.2955 18.4187 11.2165C18.5633 11.1375 18.6869 11.025 18.779 10.8884C19.0142 10.5865 19.1388 10.2129 19.132 9.83027C19.143 9.36494 19.0464 8.90349 18.8497 8.48164C18.653 8.05979 18.3615 7.68881 17.998 7.39814C17.2925 6.79117 16.4262 6.40169 15.504 6.27705C15.404 6.26005 15.3039 6.24796 15.2039 6.23896C15.1039 6.22996 15.004 6.22627 14.904 6.22627C13.956 6.20195 13.0141 6.38447 12.1437 6.76094C11.2733 7.1374 10.4954 7.69847 9.86398 8.40596C8.55913 9.80165 7.84552 11.6488 7.87296 13.5593C7.86956 15.4139 8.52602 17.2092 9.72494 18.6242C10.2928 19.3503 11.0227 19.9335 11.8561 20.3273C12.6895 20.7211 13.6035 20.9146 14.525 20.8923H14.676C14.7274 20.8923 14.7784 20.884 14.827 20.8674H15.127C15.9748 20.7862 16.7953 20.5239 17.533 20.0983C18.2743 19.6753 18.9285 19.1155 19.461 18.4484L18.906 17.9943C18.471 18.5054 17.9637 18.95 17.4 19.3142Z" fill="#C69C6D" />
</svg>
