<svg width="41" height="28" viewBox="0 0 41 28" fill="none" xmlns="http://www.w3.org/2000/svg">
	<path d="M12.471 24.9609C11.78 25.8319 11.161 26.6508 10.489 27.4248C10.2874 27.5934 10.0283 27.678 9.766 27.6601C7.10037 27.6233 4.51207 26.759 2.35902 25.187C0.187016 23.565 -0.180005 21.2641 0.174995 18.7231C0.599821 15.2201 1.47022 11.7854 2.76502 8.50289C3.60991 6.20093 5.10856 4.19604 7.07703 2.73385C9.04551 1.27166 11.3981 0.415856 13.846 0.271934C14.1759 0.251907 14.505 0.321183 14.799 0.472129C11.852 1.25636 9.07965 2.59007 6.628 4.40377C10.746 2.56216 15.2072 1.61356 19.7183 1.61959C24.2293 1.62562 28.6879 2.58631 32.801 4.43893C30.5353 2.789 27.9895 1.56276 25.287 0.819785L25.265 0.519981C25.7064 0.399865 26.1616 0.338232 26.619 0.336875C28.9382 0.54018 31.1557 1.38246 33.0251 2.76998C34.8945 4.1575 36.3428 6.0358 37.209 8.19674C38.7925 11.8925 39.7486 15.8266 40.038 19.8369C40.1325 20.8772 39.9357 21.9236 39.4694 22.8584C39.0031 23.7932 38.2859 24.5795 37.398 25.1298C35.2751 26.5785 32.7811 27.3875 30.212 27.4609C29.7559 27.439 29.3243 27.2482 29.001 26.9257C28.3908 26.256 27.8157 25.5555 27.278 24.8261C29.4821 24.2147 31.479 23.0165 33.056 21.3598C32.886 21.3718 32.792 21.3502 32.733 21.3872C25.933 25.5562 18.795 25.7301 11.439 23.1401C9.932 22.6091 8.44801 22.0141 6.80201 21.3921C8.32247 23.0864 10.2859 24.3223 12.471 24.9609ZM22.749 15.854C22.7653 16.5407 22.9838 17.2077 23.3771 17.771C23.7704 18.3342 24.3211 18.7686 24.9602 19.0205C25.5993 19.2724 26.2985 19.3304 26.9703 19.187C27.6422 19.0435 28.2568 18.7053 28.7373 18.2143C29.2179 17.7234 29.5429 17.1015 29.6719 16.4267C29.8009 15.752 29.728 15.0539 29.4624 14.4204C29.1969 13.7868 28.7504 13.2458 28.1788 12.8647C27.6072 12.4836 26.936 12.2794 26.249 12.2778C25.3143 12.2992 24.4251 12.6853 23.7711 13.3535C23.1171 14.0216 22.7503 14.919 22.749 15.854ZM17.168 15.9121C17.1468 15.2259 16.9238 14.561 16.5269 14.0009C16.1301 13.4408 15.5769 13.0101 14.9366 12.7627C14.2963 12.5152 13.5973 12.4622 12.9269 12.6098C12.2565 12.7574 11.6445 13.0993 11.1673 13.5927C10.6901 14.0862 10.369 14.7093 10.244 15.3842C10.1191 16.0592 10.1958 16.756 10.4647 17.3877C10.7335 18.0193 11.1826 18.5577 11.7557 18.9355C12.3288 19.3133 13.0006 19.514 13.687 19.5122C14.6233 19.4881 15.5127 19.0971 16.1637 18.4238C16.8147 17.7505 17.1754 16.8486 17.168 15.9121Z" fill="url(#paint0_linear_1_27469)" />
	<defs>
		<linearGradient id="paint0_linear_1_27469" x1="33.2204" y1="29.4705" x2="18.2478" y2="-2.48589" gradientUnits="userSpaceOnUse">
			<stop stop-color="#FFF5DD" />
			<stop offset="1" stop-color="#F5B942" />
		</linearGradient>
	</defs>
</svg>
