<svg width="348" height="15" viewBox="0 0 348 15" fill="none" xmlns="http://www.w3.org/2000/svg">
	<path d="M161.174 6.14313C161.174 6.59921 161.083 7.05063 160.906 7.47101C160.729 7.8914 160.47 8.2722 160.144 8.59113C159.818 8.91007 159.432 9.16061 159.007 9.32819C158.583 9.49577 158.13 9.57695 157.674 9.56696L0.650024 6.14313L157.674 2.71906C158.13 2.70921 158.583 2.79044 159.007 2.95808C159.431 3.12571 159.818 3.37647 160.144 3.69538C160.47 4.01429 160.729 4.39493 160.906 4.81525C161.083 5.23558 161.174 5.6871 161.174 6.14313Z" fill="url(#paint0_linear_1_27444)" />
	<path d="M187.126 6.14316C187.126 5.68708 187.217 5.23542 187.394 4.81503C187.571 4.39464 187.83 4.01385 188.156 3.69491C188.482 3.37598 188.868 3.12544 189.292 2.95785C189.717 2.79027 190.17 2.7091 190.626 2.71908L347.651 6.14316L190.626 9.56698C190.17 9.57711 189.717 9.49624 189.292 9.3287C188.868 9.16117 188.482 8.91036 188.156 8.5914C187.83 8.27244 187.57 7.89173 187.394 7.47128C187.217 7.05083 187.126 6.59927 187.126 6.14316Z" fill="url(#paint1_linear_1_27444)" />
	<path d="M174.612 1.76478L177.567 0.210828C177.731 0.124531 177.916 0.0859213 178.101 0.0992562C178.286 0.112591 178.463 0.177323 178.613 0.286268C178.763 0.395213 178.879 0.544014 178.949 0.715711C179.019 0.887408 179.039 1.07528 179.008 1.25795L178.444 4.54896C178.416 4.70761 178.428 4.87042 178.478 5.02357C178.527 5.17673 178.614 5.31553 178.729 5.42787L181.12 7.75892C181.253 7.8881 181.347 8.05196 181.391 8.23182C181.436 8.41169 181.429 8.60028 181.372 8.7765C181.315 8.95272 181.209 9.10953 181.067 9.2289C180.926 9.34826 180.753 9.42535 180.57 9.4518L177.27 9.933C177.111 9.95608 176.959 10.0174 176.829 10.112C176.699 10.2065 176.593 10.3316 176.522 10.476L175.044 13.4699C174.962 13.636 174.835 13.7761 174.678 13.8739C174.52 13.9718 174.339 14.0236 174.153 14.0236C173.968 14.0236 173.787 13.9718 173.629 13.8739C173.472 13.7761 173.345 13.636 173.263 13.4699L171.785 10.476C171.714 10.3316 171.609 10.2066 171.479 10.112C171.348 10.0173 171.197 9.95606 171.038 9.933L167.733 9.4518C167.55 9.42535 167.377 9.34826 167.236 9.2289C167.094 9.10953 166.988 8.95272 166.931 8.7765C166.874 8.60028 166.867 8.41169 166.912 8.23182C166.956 8.05196 167.05 7.8881 167.183 7.75892L169.574 5.42787C169.689 5.31553 169.776 5.17673 169.825 5.02357C169.875 4.87042 169.886 4.70761 169.859 4.54896L169.295 1.25795C169.264 1.07528 169.284 0.887408 169.354 0.715711C169.424 0.544014 169.54 0.395213 169.69 0.286268C169.84 0.177323 170.017 0.112591 170.202 0.0992562C170.387 0.0859213 170.572 0.124531 170.736 0.210828L173.691 1.76478C173.833 1.83859 173.991 1.87733 174.151 1.87733C174.312 1.87733 174.47 1.83859 174.612 1.76478Z" fill="url(#paint2_linear_1_27444)" />
	<defs>
		<linearGradient id="paint0_linear_1_27444" x1="0.650024" y1="6.14302" x2="161.174" y2="6.14302" gradientUnits="userSpaceOnUse">
			<stop stop-color="#8C5110" />
			<stop offset="0.983" stop-color="#E2B588" />
		</linearGradient>
		<linearGradient id="paint1_linear_1_27444" x1="187.126" y1="6.14305" x2="347.651" y2="6.14305" gradientUnits="userSpaceOnUse">
			<stop offset="0.017" stop-color="#E2B588" />
			<stop offset="1" stop-color="#8C5110" />
		</linearGradient>
		<linearGradient id="paint2_linear_1_27444" x1="174.151" y1="0.0966797" x2="174.151" y2="14.0236" gradientUnits="userSpaceOnUse">
			<stop offset="0.017" stop-color="#E2B588" />
			<stop offset="1" stop-color="#8C5110" />
		</linearGradient>
	</defs>
</svg>
