<svg width="362" height="73" viewBox="0 0 362 73" fill="none" xmlns="http://www.w3.org/2000/svg">
    <path fill-rule="evenodd" clip-rule="evenodd" d="M181 0.742188C182.828 4.12219 185.735 7.07318 193.753 7.07318H267.211C274.911 7.07318 278.995 7.61721 282.699 4.97321C284.137 15.1462 296.483 17.5032 301.141 10.6912C329.705 3.52616 334.973 34.9082 361.728 31.0192C352.428 40.4972 340.228 38.8192 330.468 35.0052C321.715 31.5912 318.628 35.1842 318.236 37.9572C317.522 43.0212 322.147 45.3142 328.143 44.2672C333.243 43.3772 337.743 42.3342 343.588 45.6242C328.804 49.1532 320.027 70.4302 301.141 62.7972C296.483 55.9862 284.141 58.3422 282.699 68.5162C278.999 65.8692 274.911 66.4162 267.211 66.4162H193.753C185.735 66.4162 182.828 69.3662 181 72.7462C179.172 69.3662 176.265 66.4162 168.246 66.4162H94.789C87.089 66.4162 83.005 65.8712 79.301 68.5162C77.862 58.3422 65.517 55.9862 60.859 62.7972C41.973 70.4302 33.196 49.1532 18.412 45.6242C24.251 42.3342 28.758 43.3772 33.856 44.2672C39.856 45.3142 44.477 43.0212 43.764 37.9572C43.372 35.1842 40.285 31.5912 31.533 35.0052C21.768 38.8152 9.57397 40.4972 0.271973 31.0192C27.028 34.9082 32.295 3.52616 60.859 10.6912C65.517 17.5032 77.859 15.1462 79.301 4.97321C83.001 7.61921 87.089 7.07318 94.789 7.07318H168.246C176.265 7.07318 179.172 4.12219 181 0.742188Z" fill="#600000"/>
    <path fill-rule="evenodd" clip-rule="evenodd" d="M293.4 36.742C289.467 32.812 286.429 27.752 282.975 23.607C277.557 17.107 272.427 15.083 264.027 15.083H97.968C89.568 15.083 84.4379 17.103 79.0209 23.607C75.5669 27.752 72.5279 32.812 68.5959 36.742C72.5279 40.672 75.5669 45.732 79.0209 49.877C84.4379 56.377 89.569 58.401 97.968 58.401H264.031C272.431 58.401 277.561 56.381 282.979 49.877C286.433 45.732 289.471 40.672 293.404 36.742H293.4Z" fill="url(#paint0_linear_1_22931)"/>
    <path opacity="0.35" fill-rule="evenodd" clip-rule="evenodd" d="M293.4 36.742C289.467 32.812 286.429 27.752 282.975 23.607C277.557 17.107 272.427 15.083 264.027 15.083H97.968C89.568 15.083 84.4379 17.103 79.0209 23.607C75.5669 27.752 72.5279 32.812 68.5959 36.742C72.5279 40.672 75.5669 45.732 79.0209 49.877C84.4379 56.377 89.569 58.401 97.968 58.401H264.031C272.431 58.401 277.561 56.381 282.979 49.877C286.433 45.732 289.471 40.672 293.404 36.742H293.4Z" fill="#00FFFF"/>
    <path fill-rule="evenodd" clip-rule="evenodd" d="M68.6 36.7422C72.532 32.8122 75.5711 27.7522 79.0251 23.6072C84.4421 17.1072 89.573 15.0832 97.972 15.0832H264.031C272.431 15.0832 277.561 17.1032 282.979 23.6072C286.433 27.7522 289.471 32.8122 293.404 36.7422H302.504C296.245 34.0832 291.858 25.9202 287.083 20.1882C280.674 12.4962 274.083 9.74219 264.032 9.74219H97.9681C89.3681 9.74219 83.306 11.7572 77.72 17.1552C77.4242 17.4914 77.108 17.809 76.7731 18.1062C76.1511 18.7562 75.5328 19.4502 74.9181 20.1882C70.1421 25.9202 65.7551 34.0882 59.4971 36.7422H68.6Z" fill="url(#paint1_linear_1_22931)"/>
    <path fill-rule="evenodd" clip-rule="evenodd" d="M79.021 49.8772C75.567 45.7322 72.528 40.6722 68.596 36.7422H59.496C65.754 39.4012 70.141 47.5642 74.917 53.2962C75.7237 54.2649 76.5367 55.1575 77.356 55.9742C77.549 56.1492 77.733 56.3282 77.911 56.5142C83.444 61.7732 89.468 63.7402 97.967 63.7402H264.031C274.083 63.7402 280.673 60.9872 287.082 53.2962C291.857 47.5642 296.244 39.3962 302.503 36.7422H293.403C289.47 40.6722 286.432 45.7322 282.978 49.8772C277.56 56.3772 272.43 58.4012 264.03 58.4012H97.968C89.568 58.4012 84.438 56.3812 79.021 49.8772Z" fill="url(#paint2_linear_1_22931)"/>
    <path fill-rule="evenodd" clip-rule="evenodd" d="M81.072 25.3165C85.981 19.4245 90.38 17.7545 97.972 17.7545H264.031C271.62 17.7545 276.019 19.4245 280.931 25.3165C281.514 26.0165 282.076 26.7275 282.631 27.4465C281.911 26.4605 281.175 25.4835 280.402 24.5295C275.515 18.4845 271.134 16.7705 263.578 16.7705H98.428C90.872 16.7705 86.492 18.4845 81.604 24.5295C80.832 25.4835 80.096 26.4605 79.375 27.4465C79.926 26.7275 80.489 26.0165 81.075 25.3165H81.072Z" fill="#3FA9F5"/>
    <path fill-rule="evenodd" clip-rule="evenodd" d="M78.1689 16.7292C83.6319 11.6512 89.6009 9.74219 97.9689 9.74219H181V0.742188C179.172 4.12219 176.265 7.07318 168.246 7.07318H94.7889C87.0889 7.07318 83.005 7.61721 79.301 4.97321C81.413 10.2732 80.4769 14.2382 78.1689 16.7312V16.7292Z" fill="url(#paint3_linear_1_22931)"/>
    <path fill-rule="evenodd" clip-rule="evenodd" d="M181 9.74225H264.031C272.398 9.74225 278.369 11.6512 283.831 16.7292C281.523 14.2362 280.587 10.2693 282.699 4.97125C278.999 7.61725 274.911 7.07123 267.211 7.07123H193.753C185.735 7.07123 182.828 4.12023 181 0.740234V9.74023V9.74225Z" fill="url(#paint4_linear_1_22931)"/>
    <path fill-rule="evenodd" clip-rule="evenodd" d="M283.831 56.755C278.369 61.833 272.4 63.74 264.031 63.74H181V72.74C182.828 69.36 185.735 66.41 193.753 66.41H267.211C274.911 66.41 278.995 65.865 282.699 68.51C280.587 63.21 281.523 59.244 283.831 56.751V56.755Z" fill="url(#paint5_linear_1_22931)"/>
    <path fill-rule="evenodd" clip-rule="evenodd" d="M181 72.7418V63.7418H97.968C89.6 63.7418 83.632 61.8358 78.168 56.7568C80.476 59.2498 81.4119 63.2168 79.2999 68.5158C82.9999 65.8688 87.088 66.4158 94.788 66.4158H168.245C176.264 66.4158 179.171 69.3658 180.999 72.7458L181 72.7418Z" fill="url(#paint6_linear_1_22931)"/>
    <path fill-rule="evenodd" clip-rule="evenodd" d="M97.968 9.74231H181V5.57129C180.568 8.05929 177.757 8.75128 174.97 8.75128H97.191C90.012 8.75128 86.499 10.0123 81.907 13.7993C86.407 10.8993 91.46 9.74231 97.968 9.74231Z" fill="url(#paint7_linear_1_22931)"/>
    <path fill-rule="evenodd" clip-rule="evenodd" d="M264.031 9.74231H181V5.57129C181.431 8.05929 184.243 8.75128 187.029 8.75128H264.808C271.988 8.75128 275.501 10.0123 280.091 13.7993C275.591 10.8993 270.539 9.74231 264.031 9.74231Z" fill="url(#paint8_linear_1_22931)"/>
    <path fill-rule="evenodd" clip-rule="evenodd" d="M101.228 62.9846C90.507 62.9846 86.741 61.6156 82.602 58.9786C76.87 55.3266 74.05 50.3326 66.963 42.8916C69.752 46.2076 72.275 50.1246 74.918 53.2966C75.7247 54.2653 76.5377 55.1579 77.357 55.9746C77.55 56.1496 77.734 56.3286 77.912 56.5146C83.445 61.7736 89.469 63.7406 97.968 63.7406H264.031C272.531 63.7406 278.555 61.7736 284.088 56.5146C284.265 56.3286 284.45 56.1496 284.642 55.9746C285.463 55.1573 286.276 54.2646 287.082 53.2966C289.724 50.1246 292.248 46.2076 295.035 42.8916C287.949 50.3326 285.135 55.3266 279.397 58.9786C275.259 61.6156 271.497 62.9846 260.772 62.9846H101.228Z" fill="url(#paint9_linear_1_22931)"/>
    <path fill-rule="evenodd" clip-rule="evenodd" d="M31.533 35.0009C40.285 31.5869 43.372 35.1799 43.764 37.9529C44.477 43.0169 39.854 45.3099 33.856 44.2629C28.756 43.3729 24.251 42.3299 18.412 45.6199C25.593 44.1799 32.587 48.0079 39.26 50.4779C50.512 54.6429 61.085 48.5949 59.497 36.7399C59.1779 34.226 58.1059 31.8675 56.4216 29.9742C54.7373 28.0809 52.5196 26.7415 50.06 26.1319C32.36 21.2249 18.179 41.6319 0.271973 31.0149C9.57197 40.4929 21.772 38.8149 31.533 35.0009Z" fill="url(#paint10_linear_1_22931)"/>
    <path fill-rule="evenodd" clip-rule="evenodd" d="M77.5 56.1108C72.208 51.4878 61.642 53.2908 60.855 62.7958C65.513 55.9848 77.855 58.3408 79.297 68.5148C81.409 63.2148 80.473 59.2489 78.165 56.7559C77.776 56.3769 77.64 56.2418 77.5 56.1108Z" fill="url(#paint11_linear_1_22931)"/>
    <path fill-rule="evenodd" clip-rule="evenodd" d="M77.5 17.3747C72.208 21.9987 61.642 20.1957 60.855 10.6897C65.513 17.5017 77.855 15.1447 79.297 4.97168C81.409 10.2717 80.473 14.2367 78.165 16.7297C77.776 17.1097 77.64 17.2447 77.5 17.3747Z" fill="url(#paint12_linear_1_22931)"/>
    <path fill-rule="evenodd" clip-rule="evenodd" d="M0.271973 31.0179C18.179 41.6359 32.362 21.2278 50.06 26.1348C52.5196 26.7444 54.7373 28.0839 56.4216 29.9772C58.1059 31.8705 59.1779 34.229 59.497 36.7429C65.755 34.0839 70.142 25.9208 74.918 20.1888C75.534 19.4508 76.1523 18.7569 76.773 18.1069C77.0781 17.8369 77.3673 17.5494 77.639 17.2459C72.212 21.9989 61.646 20.1959 60.859 10.6899C32.295 3.52488 27.028 34.9069 0.271973 31.0179Z" fill="url(#paint13_linear_1_22931)"/>
    <path fill-rule="evenodd" clip-rule="evenodd" d="M59.5001 36.7422C61.0881 48.5972 50.5151 54.6422 39.2631 50.4802C32.5901 48.0102 25.596 44.1802 18.415 45.6222C33.199 49.1512 41.9761 70.4282 60.8621 62.7952C61.6491 53.2902 72.2151 51.4872 77.5071 56.1102C76.5982 55.2163 75.7351 54.2772 74.9211 53.2962C72.2781 50.1242 69.7551 46.2072 66.9661 42.8912C64.9871 40.2911 62.4313 38.1861 59.5001 36.7422Z" fill="url(#paint14_linear_1_22931)"/>
    <path style="mix-blend-mode:screen" fill-rule="evenodd" clip-rule="evenodd" d="M28.9739 46.5688C34.2819 48.1838 42.743 52.6599 50.762 51.1199C54.393 50.4199 57.268 47.5378 58.543 42.5898C62.587 26.8898 46.0319 23.2549 32.9509 27.9999C22.5129 31.7859 16.0399 36.5728 4.95093 33.1478C16.5729 35.8038 21.1719 31.8239 32.6229 27.4319C47.1229 21.8709 63.223 26.7728 59.304 42.6468C57.99 47.9718 54.922 50.7229 50.929 51.5469C43.208 53.1359 34.656 49.0069 28.978 46.5709L28.9739 46.5688Z" fill="url(#paint15_linear_1_22931)"/>
    <path style="mix-blend-mode:screen" fill-rule="evenodd" clip-rule="evenodd" d="M80.163 7.73828C82.897 20.4783 66.202 24.3563 61.719 14.2213C62.9081 16.2506 64.7513 17.8156 66.9465 18.6599C69.1417 19.5042 71.5586 19.5777 73.801 18.8683C77.732 17.5783 80.709 13.6563 80.163 7.73828Z" fill="url(#paint16_linear_1_22931)"/>
    <path style="mix-blend-mode:screen" fill-rule="evenodd" clip-rule="evenodd" d="M80.163 65.7463C82.897 53.0063 66.202 49.1283 61.719 59.2643C62.9079 57.2349 64.7511 55.6696 66.9463 54.8251C69.1415 53.9806 71.5585 53.907 73.801 54.6163C77.732 55.9083 80.709 59.8283 80.163 65.7463Z" fill="url(#paint17_linear_1_22931)"/>
    <path fill-rule="evenodd" clip-rule="evenodd" d="M330.467 35.0009C321.715 31.5869 318.627 35.1799 318.236 37.9529C317.522 43.0169 322.146 45.3099 328.143 44.2629C333.243 43.3729 337.743 42.3299 343.588 45.6199C336.407 44.1799 329.413 48.0079 322.74 50.4779C311.488 54.6429 300.914 48.5949 302.503 36.7399C302.822 34.226 303.894 31.8674 305.578 29.9741C307.263 28.0808 309.48 26.7413 311.94 26.1319C329.64 21.2249 343.821 41.6319 361.728 31.0149C352.428 40.4929 340.228 38.8149 330.467 35.0009Z" fill="url(#paint18_linear_1_22931)"/>
    <path fill-rule="evenodd" clip-rule="evenodd" d="M284.5 56.1108C289.791 51.4878 300.358 53.2908 301.145 62.7958C296.486 55.9848 284.145 58.3408 282.703 68.5148C280.591 63.2148 281.527 59.2489 283.835 56.7559C284.224 56.3769 284.36 56.2418 284.5 56.1108Z" fill="url(#paint19_linear_1_22931)"/>
    <path fill-rule="evenodd" clip-rule="evenodd" d="M284.5 17.3747C289.791 21.9987 300.358 20.1957 301.145 10.6897C296.486 17.5017 284.145 15.1447 282.703 4.97168C280.591 10.2717 281.527 14.2367 283.835 16.7297C284.224 17.1097 284.36 17.2447 284.5 17.3747Z" fill="url(#paint20_linear_1_22931)"/>
    <path fill-rule="evenodd" clip-rule="evenodd" d="M361.728 31.0179C343.821 41.6359 329.638 21.2278 311.94 26.1348C309.48 26.7443 307.263 28.0838 305.578 29.9771C303.894 31.8704 302.822 34.229 302.503 36.7429C296.245 34.0839 291.858 25.9208 287.082 20.1888C286.466 19.4508 285.848 18.7569 285.227 18.1069C284.922 17.8369 284.633 17.5494 284.361 17.2459C289.787 21.9989 300.354 20.1959 301.141 10.6899C329.705 3.52488 334.972 34.9069 361.728 31.0179Z" fill="url(#paint21_linear_1_22931)"/>
    <path fill-rule="evenodd" clip-rule="evenodd" d="M302.5 36.7422C300.911 48.5972 311.485 54.6422 322.737 50.4802C329.41 48.0102 336.404 44.1802 343.585 45.6222C328.801 49.1512 320.024 70.4282 301.138 62.7952C300.351 53.2902 289.784 51.4872 284.493 56.1102C285.402 55.2163 286.265 54.2772 287.079 53.2962C289.722 50.1242 292.245 46.2072 295.034 42.8912C297.013 40.2907 299.568 38.1857 302.5 36.7422Z" fill="url(#paint22_linear_1_22931)"/>
    <path style="mix-blend-mode:screen" fill-rule="evenodd" clip-rule="evenodd" d="M333.026 46.5688C327.718 48.1838 319.257 52.6599 311.238 51.1199C307.607 50.4199 304.732 47.5378 303.457 42.5898C299.412 26.8898 315.968 23.2549 329.048 27.9999C339.487 31.7859 345.959 36.5728 357.053 33.1478C345.431 35.8038 340.831 31.8239 329.381 27.4319C314.881 21.8709 298.781 26.7728 302.7 42.6468C304.014 47.9718 307.081 50.7229 311.075 51.5469C318.795 53.1359 327.347 49.0069 333.026 46.5709V46.5688Z" fill="url(#paint23_linear_1_22931)"/>
    <path style="mix-blend-mode:screen" fill-rule="evenodd" clip-rule="evenodd" d="M281.837 7.73828C279.102 20.4783 295.798 24.3563 300.281 14.2213C299.092 16.2504 297.249 17.8154 295.053 18.6597C292.858 19.504 290.441 19.5775 288.199 18.8683C284.268 17.5783 281.291 13.6563 281.837 7.73828Z" fill="url(#paint24_linear_1_22931)"/>
    <path style="mix-blend-mode:screen" fill-rule="evenodd" clip-rule="evenodd" d="M281.837 65.7463C279.102 53.0063 295.798 49.1283 300.281 59.2643C299.092 57.235 297.249 55.6699 295.054 54.8254C292.858 53.9809 290.442 53.9072 288.199 54.6163C284.268 55.9083 281.291 59.8283 281.837 65.7463Z" fill="url(#paint25_linear_1_22931)"/>
    <defs>
    <linearGradient id="paint0_linear_1_22931" x1="181" y1="58.401" x2="181" y2="15.083" gradientUnits="userSpaceOnUse">
    <stop offset="0.017" stop-color="#2E3192"/>
    <stop offset="0.147" stop-color="#0071BC"/>
    <stop offset="0.539" stop-color="#29C1E2"/>
    <stop offset="0.77" stop-color="#29ABE2"/>
    <stop offset="1" stop-color="#0000FF"/>
    </linearGradient>
    <linearGradient id="paint1_linear_1_22931" x1="181.001" y1="36.7422" x2="181.001" y2="9.74219" gradientUnits="userSpaceOnUse">
    <stop offset="0.23" stop-color="#FFBF4A"/>
    <stop offset="0.461" stop-color="#9A5A12"/>
    <stop offset="0.853" stop-color="#3F1E00"/>
    <stop offset="0.983" stop-color="#A86314"/>
    </linearGradient>
    <linearGradient id="paint2_linear_1_22931" x1="180.999" y1="63.7402" x2="180.999" y2="36.7422" gradientUnits="userSpaceOnUse">
    <stop offset="0.23" stop-color="#FFBF4A"/>
    <stop offset="0.461" stop-color="#9A5A12"/>
    <stop offset="0.853" stop-color="#3F1E00"/>
    <stop offset="0.983" stop-color="#A86314"/>
    </linearGradient>
    <linearGradient id="paint3_linear_1_22931" x1="78.1689" y1="8.73669" x2="181" y2="8.73669" gradientUnits="userSpaceOnUse">
    <stop offset="0.017" stop-color="#A86314"/>
    <stop offset="0.147" stop-color="#3F1E00"/>
    <stop offset="0.539" stop-color="#9A5A12"/>
    <stop offset="0.77" stop-color="#FFBF4A"/>
    <stop offset="1" stop-color="#8C5110"/>
    </linearGradient>
    <linearGradient id="paint4_linear_1_22931" x1="181" y1="8.73474" x2="283.831" y2="8.73474" gradientUnits="userSpaceOnUse">
    <stop offset="0.017" stop-color="#A86314"/>
    <stop offset="0.147" stop-color="#3F1E00"/>
    <stop offset="0.539" stop-color="#9A5A12"/>
    <stop offset="0.77" stop-color="#FFBF4A"/>
    <stop offset="1" stop-color="#8C5110"/>
    </linearGradient>
    <linearGradient id="paint5_linear_1_22931" x1="181" y1="64.7455" x2="283.831" y2="64.7455" gradientUnits="userSpaceOnUse">
    <stop offset="0.017" stop-color="#A86314"/>
    <stop offset="0.147" stop-color="#3F1E00"/>
    <stop offset="0.539" stop-color="#9A5A12"/>
    <stop offset="0.77" stop-color="#FFBF4A"/>
    <stop offset="1" stop-color="#8C5110"/>
    </linearGradient>
    <linearGradient id="paint6_linear_1_22931" x1="78.168" y1="64.7513" x2="181" y2="64.7513" gradientUnits="userSpaceOnUse">
    <stop offset="0.017" stop-color="#A86314"/>
    <stop offset="0.147" stop-color="#3F1E00"/>
    <stop offset="0.539" stop-color="#9A5A12"/>
    <stop offset="0.77" stop-color="#FFBF4A"/>
    <stop offset="1" stop-color="#8C5110"/>
    </linearGradient>
    <linearGradient id="paint7_linear_1_22931" x1="81.907" y1="9.6853" x2="181" y2="9.6853" gradientUnits="userSpaceOnUse">
    <stop offset="0.017" stop-color="#A86314"/>
    <stop offset="0.147" stop-color="#3F1E00"/>
    <stop offset="0.539" stop-color="#9A5A12"/>
    <stop offset="0.77" stop-color="#FFBF4A"/>
    <stop offset="1" stop-color="#8C5110"/>
    </linearGradient>
    <linearGradient id="paint8_linear_1_22931" x1="181" y1="9.6853" x2="280.091" y2="9.6853" gradientUnits="userSpaceOnUse">
    <stop offset="0.017" stop-color="#A86314"/>
    <stop offset="0.147" stop-color="#3F1E00"/>
    <stop offset="0.539" stop-color="#9A5A12"/>
    <stop offset="0.77" stop-color="#FFBF4A"/>
    <stop offset="1" stop-color="#8C5110"/>
    </linearGradient>
    <linearGradient id="paint9_linear_1_22931" x1="66.963" y1="53.3161" x2="295.035" y2="53.3161" gradientUnits="userSpaceOnUse">
    <stop offset="0.017" stop-color="#A86314"/>
    <stop offset="0.147" stop-color="#3F1E00"/>
    <stop offset="0.539" stop-color="#9A5A12"/>
    <stop offset="0.77" stop-color="#FFBF4A"/>
    <stop offset="1" stop-color="#8C5110"/>
    </linearGradient>
    <linearGradient id="paint10_linear_1_22931" x1="29.9639" y1="51.7918" x2="29.9639" y2="25.3564" gradientUnits="userSpaceOnUse">
    <stop offset="0.017" stop-color="#A86314"/>
    <stop offset="0.147" stop-color="#3F1E00"/>
    <stop offset="0.539" stop-color="#9A5A12"/>
    <stop offset="0.77" stop-color="#FFBF4A"/>
    <stop offset="1" stop-color="#8C5110"/>
    </linearGradient>
    <linearGradient id="paint11_linear_1_22931" x1="60.855" y1="61.0938" x2="80.4767" y2="61.0938" gradientUnits="userSpaceOnUse">
    <stop offset="0.017" stop-color="#A86314"/>
    <stop offset="0.147" stop-color="#3F1E00"/>
    <stop offset="0.539" stop-color="#9A5A12"/>
    <stop offset="0.77" stop-color="#FFBF4A"/>
    <stop offset="1" stop-color="#8C5110"/>
    </linearGradient>
    <linearGradient id="paint12_linear_1_22931" x1="60.855" y1="12.3925" x2="80.4767" y2="12.3925" gradientUnits="userSpaceOnUse">
    <stop offset="0.017" stop-color="#A86314"/>
    <stop offset="0.147" stop-color="#3F1E00"/>
    <stop offset="0.539" stop-color="#9A5A12"/>
    <stop offset="0.77" stop-color="#FFBF4A"/>
    <stop offset="1" stop-color="#8C5110"/>
    </linearGradient>
    <linearGradient id="paint13_linear_1_22931" x1="0.271973" y1="23.1825" x2="77.639" y2="23.1825" gradientUnits="userSpaceOnUse">
    <stop offset="0.017" stop-color="#A86314"/>
    <stop offset="0.147" stop-color="#3F1E00"/>
    <stop offset="0.539" stop-color="#9A5A12"/>
    <stop offset="0.77" stop-color="#FFBF4A"/>
    <stop offset="1" stop-color="#8C5110"/>
    </linearGradient>
    <linearGradient id="paint14_linear_1_22931" x1="18.415" y1="50.5891" x2="77.5071" y2="50.5891" gradientUnits="userSpaceOnUse">
    <stop offset="0.017" stop-color="#A86314"/>
    <stop offset="0.147" stop-color="#3F1E00"/>
    <stop offset="0.539" stop-color="#9A5A12"/>
    <stop offset="0.77" stop-color="#FFBF4A"/>
    <stop offset="1" stop-color="#8C5110"/>
    </linearGradient>
    <linearGradient id="paint15_linear_1_22931" x1="4.95093" y1="38.5629" x2="59.9014" y2="38.5629" gradientUnits="userSpaceOnUse">
    <stop offset="0.017" stop-color="#A86314"/>
    <stop offset="0.147" stop-color="#3F1E00"/>
    <stop offset="0.539" stop-color="#9A5A12"/>
    <stop offset="0.77" stop-color="#FFBF4A"/>
    <stop offset="1" stop-color="#8C5110"/>
    </linearGradient>
    <linearGradient id="paint16_linear_1_22931" x1="61.719" y1="13.8645" x2="80.4637" y2="13.8645" gradientUnits="userSpaceOnUse">
    <stop offset="0.017" stop-color="#A86314"/>
    <stop offset="0.147" stop-color="#3F1E00"/>
    <stop offset="0.539" stop-color="#9A5A12"/>
    <stop offset="0.77" stop-color="#FFBF4A"/>
    <stop offset="1" stop-color="#8C5110"/>
    </linearGradient>
    <linearGradient id="paint17_linear_1_22931" x1="61.719" y1="59.6202" x2="80.4637" y2="59.6202" gradientUnits="userSpaceOnUse">
    <stop offset="0.017" stop-color="#A86314"/>
    <stop offset="0.147" stop-color="#3F1E00"/>
    <stop offset="0.539" stop-color="#9A5A12"/>
    <stop offset="0.77" stop-color="#FFBF4A"/>
    <stop offset="1" stop-color="#8C5110"/>
    </linearGradient>
    <linearGradient id="paint18_linear_1_22931" x1="1289.49" y1="51.7918" x2="1289.49" y2="25.3564" gradientUnits="userSpaceOnUse">
    <stop offset="0.017" stop-color="#A86314"/>
    <stop offset="0.147" stop-color="#3F1E00"/>
    <stop offset="0.539" stop-color="#9A5A12"/>
    <stop offset="0.77" stop-color="#FFBF4A"/>
    <stop offset="1" stop-color="#8C5110"/>
    </linearGradient>
    <linearGradient id="paint19_linear_1_22931" x1="1320.39" y1="61.0938" x2="1340.02" y2="61.0938" gradientUnits="userSpaceOnUse">
    <stop offset="0.017" stop-color="#A86314"/>
    <stop offset="0.147" stop-color="#3F1E00"/>
    <stop offset="0.539" stop-color="#9A5A12"/>
    <stop offset="0.77" stop-color="#FFBF4A"/>
    <stop offset="1" stop-color="#8C5110"/>
    </linearGradient>
    <linearGradient id="paint20_linear_1_22931" x1="1320.39" y1="12.3925" x2="1340.02" y2="12.3925" gradientUnits="userSpaceOnUse">
    <stop offset="0.017" stop-color="#A86314"/>
    <stop offset="0.147" stop-color="#3F1E00"/>
    <stop offset="0.539" stop-color="#9A5A12"/>
    <stop offset="0.77" stop-color="#FFBF4A"/>
    <stop offset="1" stop-color="#8C5110"/>
    </linearGradient>
    <linearGradient id="paint21_linear_1_22931" x1="1259.8" y1="23.1825" x2="1337.17" y2="23.1825" gradientUnits="userSpaceOnUse">
    <stop offset="0.017" stop-color="#A86314"/>
    <stop offset="0.147" stop-color="#3F1E00"/>
    <stop offset="0.539" stop-color="#9A5A12"/>
    <stop offset="0.77" stop-color="#FFBF4A"/>
    <stop offset="1" stop-color="#8C5110"/>
    </linearGradient>
    <linearGradient id="paint22_linear_1_22931" x1="1277.95" y1="50.5891" x2="1337.04" y2="50.5891" gradientUnits="userSpaceOnUse">
    <stop offset="0.017" stop-color="#A86314"/>
    <stop offset="0.147" stop-color="#3F1E00"/>
    <stop offset="0.539" stop-color="#9A5A12"/>
    <stop offset="0.77" stop-color="#FFBF4A"/>
    <stop offset="1" stop-color="#8C5110"/>
    </linearGradient>
    <linearGradient id="paint23_linear_1_22931" x1="1264.45" y1="38.5629" x2="1319.4" y2="38.5629" gradientUnits="userSpaceOnUse">
    <stop offset="0.017" stop-color="#A86314"/>
    <stop offset="0.147" stop-color="#3F1E00"/>
    <stop offset="0.539" stop-color="#9A5A12"/>
    <stop offset="0.77" stop-color="#FFBF4A"/>
    <stop offset="1" stop-color="#8C5110"/>
    </linearGradient>
    <linearGradient id="paint24_linear_1_22931" x1="1321.24" y1="13.8645" x2="1339.98" y2="13.8645" gradientUnits="userSpaceOnUse">
    <stop offset="0.017" stop-color="#A86314"/>
    <stop offset="0.147" stop-color="#3F1E00"/>
    <stop offset="0.539" stop-color="#9A5A12"/>
    <stop offset="0.77" stop-color="#FFBF4A"/>
    <stop offset="1" stop-color="#8C5110"/>
    </linearGradient>
    <linearGradient id="paint25_linear_1_22931" x1="1321.24" y1="59.6202" x2="1339.98" y2="59.6202" gradientUnits="userSpaceOnUse">
    <stop offset="0.017" stop-color="#A86314"/>
    <stop offset="0.147" stop-color="#3F1E00"/>
    <stop offset="0.539" stop-color="#9A5A12"/>
    <stop offset="0.77" stop-color="#FFBF4A"/>
    <stop offset="1" stop-color="#8C5110"/>
    </linearGradient>
    </defs>
    </svg>
    