<svg width="23" height="41" viewBox="0 0 23 41" fill="none" xmlns="http://www.w3.org/2000/svg">
	<path d="M6.454 23.5257C4.8 23.5257 3.30698 23.5327 1.81398 23.5257C0.600983 23.5187 0.481971 23.397 0.475971 22.16C0.467971 20.3673 0.467971 18.5747 0.475971 16.782C0.481971 15.52 0.601043 15.4057 1.90004 15.3997C3.36104 15.3917 4.82301 15.3997 6.39101 15.3997C6.41501 14.9477 6.436 14.573 6.454 14.2C6.4394 12.2164 6.54895 10.2339 6.782 8.26397C7.09349 6.24099 8.11946 4.39643 9.67385 3.06475C11.2282 1.73308 13.2082 1.00213 15.255 1.00469C17.143 0.931692 19.036 0.994977 20.926 0.971977C21.713 0.962977 22.051 1.31605 22.044 2.09405C22.028 3.91938 22.028 5.74399 22.044 7.56866C22.051 8.36866 21.666 8.66875 20.901 8.66875C19.533 8.66875 18.163 8.68458 16.801 8.75957C15.511 8.83057 15.0011 9.37596 14.9671 10.681C14.9321 12.173 14.959 13.6666 14.959 15.2806C16.78 15.2806 18.529 15.2806 20.278 15.2806C21.673 15.2806 21.843 15.4556 21.845 16.8626C21.845 18.6876 21.827 20.5127 21.853 22.3377C21.864 23.1757 21.497 23.5137 20.676 23.5037C18.822 23.4827 16.968 23.4979 14.954 23.4979V24.6766C14.954 29.5326 14.954 34.3892 14.954 39.2459C14.954 40.8459 14.833 40.9626 13.229 40.9666C11.5344 40.9706 9.83939 40.9706 8.14406 40.9666C6.58806 40.9666 6.46208 40.8438 6.46108 39.3128C6.45708 34.4895 6.45708 29.6656 6.46108 24.8416L6.454 23.5257Z" fill="url(#paint0_linear_1_27512)" />
	<defs>
		<linearGradient id="paint0_linear_1_27512" x1="24.3309" y1="31.0493" x2="-1.05801" y2="23.6697" gradientUnits="userSpaceOnUse">
			<stop stop-color="#FFF5DD" />
			<stop offset="1" stop-color="#F5B942" />
		</linearGradient>
	</defs>
</svg>
