<svg width="1141" height="24" viewBox="0 0 1141 24" fill="none" xmlns="http://www.w3.org/2000/svg">
	<path d="M570.272 24C570.702 24.0061 571.129 23.924 571.526 23.7583C571.924 23.5927 572.283 23.3471 572.581 23.0371C572.889 22.7362 573.133 22.3762 573.299 21.979C573.465 21.5818 573.549 21.1556 573.547 20.7251C573.544 20.3082 573.458 19.8961 573.292 19.5137C573.126 19.1313 572.884 18.7865 572.581 18.5C572.279 18.1938 571.92 17.9506 571.523 17.7847C571.127 17.6187 570.701 17.5332 570.271 17.5332C569.842 17.5332 569.416 17.6187 569.02 17.7847C568.623 17.9506 568.264 18.1938 567.962 18.5C567.665 18.7886 567.43 19.1345 567.271 19.5171C567.112 19.8996 567.033 20.3109 567.038 20.7251C567.031 21.1537 567.109 21.5792 567.269 21.9771C567.428 22.3749 567.666 22.737 567.967 23.042C568.268 23.347 568.627 23.5889 569.023 23.7534C569.419 23.9179 569.843 24.0017 570.272 24ZM567.752 16.3159C568.091 16.108 568.459 15.953 568.844 15.856C569.294 15.7271 569.767 15.6981 570.23 15.771C569.311 13.7907 568.783 11.6517 568.676 9.47119C568.522 7.63757 568.948 5.80185 569.893 4.22314C569.635 5.24201 569.468 6.28168 569.393 7.33008C569.315 8.40756 569.343 9.49004 569.477 10.562C569.634 11.5959 569.902 12.6097 570.277 13.5859C570.642 14.5338 571.185 15.4029 571.877 16.146C571.78 15.0265 571.908 13.899 572.255 12.8301C572.514 11.9237 573.024 11.1088 573.725 10.479C574.375 9.87735 575.198 9.49553 576.077 9.38721C577.161 9.29195 578.25 9.4952 579.226 9.9751C579.255 9.56877 579.2 9.16074 579.062 8.77734C578.924 8.39395 578.707 8.04362 578.426 7.74902C577.853 7.18803 577.119 6.821 576.326 6.69922C575.467 6.58161 574.593 6.71205 573.806 7.0752C572.85 7.52034 572.047 8.23721 571.496 9.13623C571.323 8.73801 571.293 8.29171 571.412 7.87402C571.521 7.45782 571.662 7.05012 571.832 6.65479C572.042 6.23612 572.252 5.81666 572.463 5.396C572.67 5.01994 572.798 4.60615 572.84 4.1792C572.944 3.37978 572.782 2.56816 572.379 1.87012C572.043 1.1809 571.537 0.588205 570.909 0.147949C570.553 0.236188 570.222 0.402469 569.939 0.634766C569.655 0.867062 569.427 1.15981 569.271 1.49121C568.893 2.20521 568.557 2.9185 568.263 3.63184C568.077 4.10013 567.978 4.59834 567.969 5.10205C567.927 5.64805 567.927 6.19479 567.927 6.65479C567.936 7.06159 567.922 7.46883 567.885 7.87402C567.843 8.25302 567.717 8.46088 567.507 8.50488C567.41 8.53599 567.305 8.53687 567.208 8.50684C567.11 8.4768 567.024 8.41733 566.961 8.33691C566.787 8.15756 566.632 7.96059 566.499 7.74902C566.331 7.45402 566.163 7.20222 565.999 6.94922C565.811 6.67231 565.549 6.45334 565.243 6.31787C564.914 6.11149 564.542 5.98503 564.155 5.94873C563.769 5.91243 563.379 5.96733 563.018 6.10889C562.211 6.41372 561.55 7.01412 561.169 7.78809C562.302 8.18536 563.355 8.78334 564.277 9.55322C565.047 10.183 565.726 10.9167 566.293 11.7339C566.783 12.4534 567.152 13.2482 567.385 14.0869C567.619 14.8064 567.747 15.5565 567.763 16.313L567.752 16.3159ZM548.852 23.876C549.236 23.2267 549.671 22.6084 550.152 22.0269C550.662 21.4264 551.256 20.9035 551.916 20.4741C552.763 19.9593 553.684 19.5763 554.646 19.3389C556.009 19.0192 557.403 18.8516 558.803 18.8389C559.982 18.7528 561.164 18.9545 562.247 19.4268C563.17 19.8898 564.178 20.4369 565.228 21.0649C565.154 20.8206 565.125 20.5648 565.144 20.3101C565.166 20.0373 565.223 19.7683 565.313 19.5098C564.287 18.7475 563.173 18.1132 561.994 17.6201C560.666 17.0572 559.237 16.7714 557.794 16.7808C556.105 16.7414 554.42 16.9544 552.794 17.4121C551.407 17.7592 550.107 18.3872 548.973 19.2578C549.445 18.3382 550.236 17.6225 551.198 17.2441C552.527 16.5941 553.965 16.1949 555.439 16.0669C557.199 15.8662 558.978 15.8941 560.731 16.1499C562.622 16.4099 564.454 16.9925 566.148 17.8721C565.123 16.8739 563.89 16.1141 562.537 15.647C561.208 15.2107 559.82 14.9844 558.421 14.9761C556.946 14.9501 555.471 15.0487 554.012 15.271C552.541 15.523 551.072 15.8149 549.602 16.1099C548.133 16.4449 546.702 16.7402 545.277 16.9922C544.003 17.2324 542.71 17.3582 541.413 17.3682C541.288 17.7025 541.238 18.0598 541.267 18.4155C541.296 18.7712 541.403 19.1162 541.581 19.4258C541.898 20.1848 542.404 20.8502 543.051 21.3589C543.392 21.6394 543.829 21.775 544.269 21.7368C544.695 21.708 545.116 21.6374 545.528 21.5259C545.991 21.4429 546.411 21.3159 546.828 21.2319C547.237 21.1465 547.663 21.1908 548.046 21.3589C547.859 21.5668 547.724 21.8158 547.651 22.0854C547.578 22.3551 547.569 22.6384 547.625 22.9121C547.709 23.4591 548.13 23.7949 548.844 23.8789L548.852 23.876ZM543.392 22.2759C542.643 21.7954 542 21.1679 541.502 20.4312C541.018 19.8078 540.765 19.0352 540.788 18.2461C540.784 17.7184 540.914 17.1981 541.167 16.7349C541.46 16.3139 541.754 15.8541 542.048 15.4351C542.342 15.0161 542.594 14.5928 542.848 14.2168C543.073 13.8056 543.175 13.3387 543.142 12.8711C543.052 12.4631 542.812 12.1034 542.47 11.8638C542.078 11.6049 541.634 11.4343 541.17 11.3638C540.626 11.2737 540.07 11.2877 539.532 11.4048C538.996 11.4837 538.482 11.6701 538.02 11.9521C537.191 12.4697 536.545 13.2338 536.172 14.1372C535.97 14.6003 535.895 15.1083 535.954 15.6099C536.013 16.1114 536.204 16.5886 536.508 16.9922C536.626 16.3234 536.868 15.6825 537.222 15.103C537.52 14.5202 537.918 13.994 538.398 13.5488C538.826 13.1519 539.324 12.8381 539.867 12.623C540.126 12.5437 540.399 12.5212 540.667 12.5576C540.935 12.594 541.193 12.6885 541.421 12.834C540.878 12.8819 540.35 13.0366 539.868 13.2891C539.385 13.5415 538.957 13.8869 538.608 14.3052C538.207 14.7541 537.9 15.2783 537.706 15.8477C537.511 16.417 537.432 17.0198 537.474 17.6201C537.48 18.282 537.652 18.9314 537.974 19.5098C538.31 20.1153 538.75 20.657 539.274 21.1099C539.818 21.5957 540.464 21.9544 541.165 22.1592C541.88 22.4104 542.652 22.4535 543.39 22.2832L543.392 22.2759ZM570.479 22.5762C570.143 22.5762 569.979 22.4478 569.979 22.1558C569.979 21.7768 570.147 21.6099 570.479 21.6099C570.773 21.6099 570.899 21.7768 570.899 22.1558C570.899 22.4478 570.773 22.5762 570.479 22.5762Z" fill="url(#paint0_linear_1_22749)" />
	<path d="M1137.55 23.0371C1137.98 23.0427 1138.41 22.9598 1138.8 22.7935C1139.2 22.6271 1139.56 22.3806 1139.86 22.0698C1140.16 21.7694 1140.41 21.4106 1140.57 21.0142C1140.74 20.6177 1140.82 20.192 1140.82 19.7622C1140.82 19.3448 1140.73 18.9319 1140.57 18.5488C1140.4 18.1657 1140.16 17.8204 1139.86 17.5332C1139.56 17.2271 1139.2 16.9838 1138.8 16.8179C1138.4 16.652 1137.98 16.5664 1137.55 16.5664C1137.12 16.5664 1136.69 16.652 1136.3 16.8179C1135.9 16.9838 1135.54 17.2271 1135.24 17.5332C1134.94 17.8226 1134.7 18.169 1134.55 18.5522C1134.39 18.9355 1134.31 19.3475 1134.31 19.7622C1134.31 20.1905 1134.39 20.6157 1134.55 21.0132C1134.71 21.4107 1134.94 21.7723 1135.24 22.0771C1135.55 22.382 1135.9 22.6238 1136.3 22.7886C1136.69 22.9534 1137.12 23.038 1137.55 23.0371ZM1137.76 21.6079C1137.42 21.6079 1137.26 21.483 1137.26 21.188C1137.26 20.809 1137.42 20.6411 1137.76 20.6411C1138.05 20.6411 1138.18 20.809 1138.18 21.188C1138.18 21.483 1138.05 21.6079 1137.76 21.6079Z" fill="url(#paint1_linear_1_22749)" />
	<path d="M3.71001 22.3216C3.07253 22.3327 2.44642 22.1523 1.91306 21.803C1.3797 21.4537 0.963746 20.9519 0.719258 20.3631C0.47477 19.7742 0.413049 19.1251 0.542119 18.5008C0.671189 17.8764 0.985078 17.3052 1.443 16.8616C1.93488 16.3181 2.61306 15.9797 3.34301 15.9129C3.95694 15.8521 4.57577 15.9611 5.13184 16.2283C5.68791 16.4955 6.15983 16.9107 6.49601 17.428C6.81225 17.9236 6.9805 18.4988 6.98101 19.0867C6.98148 19.9345 6.65019 20.749 6.058 21.3557C5.75732 21.6749 5.39195 21.9265 4.98633 22.093C4.58072 22.2596 4.14421 22.3372 3.706 22.3216H3.71001ZM3.54201 20.9368C3.87801 20.9368 4.04201 20.7689 4.04201 20.4739C4.05107 20.4061 4.04436 20.337 4.02244 20.2722C4.00051 20.2075 3.96394 20.1487 3.91558 20.1004C3.86721 20.052 3.80836 20.0154 3.74357 19.9934C3.67878 19.9715 3.60981 19.9648 3.54201 19.9739C3.24801 19.9739 3.08001 20.1419 3.08001 20.4739C3.07323 20.5363 3.08052 20.5993 3.10132 20.6585C3.12213 20.7177 3.15593 20.7713 3.20025 20.8157C3.24456 20.8601 3.29825 20.8944 3.3574 20.9153C3.41654 20.9362 3.47963 20.9434 3.54201 20.9368Z" fill="url(#paint2_linear_1_22749)" />
	<path d="M591.563 23.8757C591.182 23.2477 590.761 22.6443 590.303 22.0696C589.806 21.4572 589.209 20.9325 588.539 20.5169C587.671 20.0034 586.74 19.607 585.768 19.3386C584.419 19.0161 583.039 18.8484 581.652 18.8386C580.47 18.7597 579.286 18.9769 578.209 19.47C577.172 19.9476 576.163 20.4813 575.185 21.0696C575.275 20.8283 575.318 20.5721 575.311 20.3147C575.284 20.0572 575.227 19.8037 575.143 19.5588C576.17 18.7881 577.283 18.1393 578.46 17.6257C579.791 17.0761 581.22 16.8041 582.66 16.8259C584.334 16.7863 586.004 16.9979 587.615 17.4539C589.008 17.7851 590.313 18.4165 591.437 19.304C590.976 18.3808 590.202 17.6513 589.253 17.2459C587.917 16.6146 586.482 16.2163 585.012 16.0686C583.235 15.9037 581.445 15.9463 579.678 16.1956C577.796 16.4352 575.974 17.0188 574.303 17.9168C575.32 16.8976 576.555 16.1221 577.915 15.6487C579.245 15.2223 580.634 15.0094 582.03 15.0178C583.506 14.9965 584.981 15.0966 586.44 15.3176C587.909 15.5686 589.379 15.8175 590.849 16.1555C592.319 16.4505 593.749 16.7458 595.133 16.9978C596.421 17.2363 597.728 17.3621 599.038 17.3738C599.164 17.7151 599.214 18.0796 599.185 18.4421C599.156 18.8047 599.048 19.1569 598.87 19.4739C598.54 20.2255 598.037 20.8882 597.401 21.407C597.056 21.6813 596.621 21.8156 596.182 21.783C595.762 21.742 595.342 21.659 594.882 21.575C594.462 21.448 594.042 21.3637 593.622 21.2747C593.212 21.189 592.786 21.2337 592.403 21.4026C592.589 21.602 592.725 21.8434 592.798 22.1062C592.871 22.369 592.88 22.6458 592.824 22.9128C592.74 23.5008 592.324 23.7956 591.564 23.8796L591.563 23.8757ZM597.063 22.2756C597.819 21.8241 598.465 21.2093 598.953 20.4758C599.415 19.8418 599.665 19.0781 599.667 18.2937C599.677 17.7589 599.531 17.2326 599.247 16.7795C598.992 16.3307 598.711 15.8969 598.407 15.4797C598.111 15.0801 597.843 14.6599 597.607 14.2219C597.364 13.8347 597.26 13.3758 597.313 12.9216C597.35 12.7163 597.429 12.5211 597.545 12.3474C597.66 12.1737 597.81 12.0255 597.985 11.9119C598.377 11.6532 598.821 11.4826 599.285 11.4119C599.829 11.3216 600.385 11.3362 600.923 11.4548C601.441 11.5254 601.94 11.6952 602.393 11.9548C603.237 12.4843 603.896 13.2614 604.282 14.1799C604.485 14.6359 604.561 15.1381 604.501 15.6335C604.442 16.129 604.25 16.5994 603.946 16.9949C603.809 16.3445 603.568 15.7204 603.232 15.1467C602.935 14.5385 602.521 13.9946 602.014 13.5466C601.598 13.1443 601.096 12.8424 600.545 12.6638C600.293 12.5852 600.027 12.5632 599.766 12.5994C599.504 12.6355 599.254 12.7288 599.033 12.8728C599.577 12.9164 600.106 13.069 600.59 13.3215C601.073 13.5741 601.501 13.9212 601.847 14.3425C602.244 14.7858 602.549 15.3037 602.744 15.866C602.938 16.4283 603.019 17.0241 602.981 17.6179C602.984 18.2811 602.812 18.9329 602.481 19.5076C602.158 20.1327 601.717 20.6893 601.181 21.1458C600.622 21.6093 599.981 21.9648 599.292 22.1946C598.573 22.4325 597.801 22.4616 597.066 22.2786L597.063 22.2756Z" fill="url(#paint3_linear_1_22749)" />
	<path fill-rule="evenodd" clip-rule="evenodd" d="M536.969 20.9771L3.71002 19.7998V19.1289L536.046 17.8291C535.584 18.7121 536.215 19.9281 536.969 20.9771Z" fill="url(#paint4_linear_1_22749)" />
	<path fill-rule="evenodd" clip-rule="evenodd" d="M604.329 20.9771L1137.55 19.8018V19.1309L605.254 17.8311C605.715 18.7141 605.085 19.931 604.329 20.98V20.9771Z" fill="url(#paint5_linear_1_22749)" />
	<defs>
		<linearGradient id="paint0_linear_1_22749" x1="-11.0176" y1="12.0741" x2="1152.3" y2="12.0741" gradientUnits="userSpaceOnUse">
			<stop offset="0.017" stop-color="#A86314" />
			<stop offset="0.5" stop-color="#FFBF4A" />
			<stop offset="1" stop-color="#8C5110" />
		</linearGradient>
		<linearGradient id="paint1_linear_1_22749" x1="-11.0109" y1="19.8019" x2="1152.21" y2="19.8019" gradientUnits="userSpaceOnUse">
			<stop offset="0.017" stop-color="#A86314" />
			<stop offset="0.5" stop-color="#FFBF4A" />
			<stop offset="1" stop-color="#8C5110" />
		</linearGradient>
		<linearGradient id="paint2_linear_1_22749" x1="-10.9329" y1="19.11" x2="1151.62" y2="19.11" gradientUnits="userSpaceOnUse">
			<stop offset="0.017" stop-color="#A86314" />
			<stop offset="0.5" stop-color="#FFBF4A" />
			<stop offset="1" stop-color="#8C5110" />
		</linearGradient>
		<linearGradient id="paint3_linear_1_22749" x1="-10.7165" y1="17.6166" x2="1152.01" y2="17.6166" gradientUnits="userSpaceOnUse">
			<stop offset="0.017" stop-color="#A86314" />
			<stop offset="0.5" stop-color="#FFBF4A" />
			<stop offset="1" stop-color="#8C5110" />
		</linearGradient>
		<linearGradient id="paint4_linear_1_22749" x1="-10.688" y1="19.4036" x2="1152.35" y2="19.4036" gradientUnits="userSpaceOnUse">
			<stop offset="0.017" stop-color="#A86314" />
			<stop offset="0.5" stop-color="#FFBF4A" />
			<stop offset="1" stop-color="#8C5110" />
		</linearGradient>
		<linearGradient id="paint5_linear_1_22749" x1="-11.0046" y1="19.4055" x2="1151.94" y2="19.4055" gradientUnits="userSpaceOnUse">
			<stop offset="0.017" stop-color="#A86314" />
			<stop offset="0.5" stop-color="#FFBF4A" />
			<stop offset="1" stop-color="#8C5110" />
		</linearGradient>
	</defs>
</svg>
