<svg width="37" height="41" viewBox="0 0 37 41" fill="none" xmlns="http://www.w3.org/2000/svg">
	<path d="M27.251 40.9629H12.561C13.448 40.6749 13.507 40.013 13.488 39.27C13.456 37.985 13.48 36.6982 13.48 35.5332C12.1299 35.6004 10.777 35.5908 9.42798 35.5049C8.35225 35.4185 7.32296 35.0296 6.45905 34.3828C5.59513 33.736 4.93192 32.858 4.54602 31.8501C3.94765 30.216 2.84027 28.8171 1.38702 27.8599C1.05502 27.6539 0.86799 27.2148 0.61499 26.8838C1.02471 26.6794 1.46767 26.5502 1.92297 26.502C2.74802 26.6017 3.53716 26.8977 4.22424 27.3652C4.91133 27.8328 5.47639 28.4581 5.87201 29.189C6.53267 30.3665 7.59617 31.2661 8.867 31.7222C10.3035 32.1406 11.8426 32.0277 13.203 31.4048C13.2788 31.376 13.3476 31.3315 13.4047 31.2739C13.4618 31.2163 13.5059 31.1469 13.534 31.0708C13.7101 29.8872 14.242 28.7855 15.059 27.9111C13.441 27.5041 11.803 27.2272 10.259 26.6792C8.40738 26.067 6.77387 24.9291 5.55743 23.4048C4.341 21.8805 3.5942 20.0355 3.40802 18.0942C2.98802 15.3192 2.93402 12.5599 4.40302 10.0029C4.44002 9.93994 4.46499 9.87004 4.50299 9.81104C4.94999 9.17704 5.63403 8.59493 5.78003 7.89893C5.92603 7.20293 5.47999 6.40515 5.38599 5.64015C5.23889 4.20655 5.45021 2.75849 6.00098 1.42677C6.08015 1.30955 6.18554 1.2125 6.30878 1.14308C6.43201 1.07365 6.56972 1.03384 6.711 1.02686C8.1954 1.11059 9.63988 1.53888 10.93 2.27784C11.267 2.41775 11.5867 2.59617 11.883 2.80909C12.32 3.16305 12.8384 3.40236 13.3912 3.50538C13.9441 3.6084 14.5139 3.57173 15.049 3.39893C18.7008 2.60917 22.4861 2.67783 26.107 3.59913C26.4798 3.6492 26.8583 3.56646 27.176 3.36524C28.7392 2.33248 30.4664 1.57261 32.284 1.11817C33.73 0.818173 33.865 0.864911 34.268 2.27491C34.7564 3.96673 34.7798 5.75886 34.336 7.4629C34.3052 7.61439 34.3057 7.77058 34.3373 7.92188C34.369 8.07319 34.4311 8.21631 34.52 8.34278C35.4787 9.54545 36.1739 10.9362 36.5607 12.4248C36.9474 13.9134 37.017 15.4667 36.765 16.9839C36.6273 18.758 36.1349 20.4865 35.317 22.0669C33.657 25.0949 30.917 26.5518 27.683 27.2798C26.783 27.4798 25.872 27.613 24.876 27.794C26.476 29.525 26.611 31.6159 26.581 33.7559C26.555 35.6059 26.55 37.4562 26.536 39.3062C26.531 39.9302 26.542 40.5469 27.359 40.7769L27.251 40.9629Z" fill="url(#paint0_linear_1_27588)" />
	<defs>
		<linearGradient id="paint0_linear_1_27588" x1="0.61499" y1="20.9661" x2="36.9134" y2="20.9661" gradientUnits="userSpaceOnUse">
			<stop stop-color="#FFF5DD" />
			<stop offset="1" stop-color="#F5B942" />
		</linearGradient>
	</defs>
</svg>
