<svg width="41" height="41" viewBox="0 0 41 41" fill="none" xmlns="http://www.w3.org/2000/svg">
	<path d="M20.3329 0.962891C23.7119 1.10289 27.0779 1.08797 30.4109 1.41797C35.7929 1.95097 39.3769 5.61784 40.0109 10.9858C40.1835 12.4321 40.2713 13.8877 40.2739 15.3442C40.2739 20.0782 40.2639 24.8139 40.1519 29.5439C40.1088 30.8696 39.8789 32.1824 39.4689 33.4438C38.0689 37.8238 34.8949 40.1071 30.4359 40.7261C29.4058 40.874 28.3667 40.9511 27.3259 40.957C22.0719 40.957 16.8159 40.9928 11.5639 40.8638C8.87928 40.862 6.28334 39.903 4.24295 38.1582C3.06466 37.1205 2.12479 35.8399 1.48785 34.4048C0.850921 32.9697 0.532003 31.4142 0.552949 29.8442C0.422949 23.9962 0.459944 18.144 0.547944 12.291C0.595048 10.8877 0.875539 9.50202 1.37793 8.19092C2.00295 6.32126 3.17096 4.68035 4.73285 3.47754C6.29474 2.27473 8.17966 1.56467 10.1469 1.43799C13.5259 1.07099 16.9489 1.09989 20.3329 0.962891ZM36.8329 21H36.7179C36.7179 19.362 36.7559 17.722 36.7079 16.085C36.6609 14.475 36.6079 12.8582 36.4139 11.2622C36.3295 9.74786 35.7199 8.31014 34.6899 7.19678C33.66 6.08342 32.2741 5.36397 30.7709 5.16211C29.3153 4.89236 27.8408 4.73594 26.3609 4.69482C24.3099 4.61282 22.2529 4.63518 20.1989 4.65918C17.1579 4.69518 14.1109 4.66889 11.0769 4.85889C7.28694 5.09289 5.08895 7.04723 4.31995 10.6362C4.11517 11.5225 3.99892 12.4267 3.97293 13.3359C3.9176 18.0433 3.89429 22.7504 3.90295 27.457C3.91568 28.471 3.98747 29.4831 4.11795 30.4888C4.52495 33.9348 6.48993 36.229 9.64493 36.939C10.401 37.1334 11.1758 37.246 11.9559 37.2749C17.5969 37.3039 23.2429 37.423 28.8789 37.251C33.4159 37.112 36.0849 34.8018 36.4679 30.1958C36.7199 27.1388 36.7179 24.065 36.8309 21H36.8329Z" fill="url(#paint0_linear_1_27540)" />
	<path d="M20.344 10.79C22.374 10.7887 24.3589 11.3888 26.0479 12.5151C27.7368 13.6415 29.054 15.2435 29.833 17.1182C30.6119 18.9928 30.8177 21.0563 30.4243 23.0479C30.031 25.0394 29.0561 26.8694 27.6228 28.3071C26.1896 29.7448 24.3624 30.7254 22.372 31.125C20.3817 31.5246 18.3176 31.3254 16.4405 30.5522C14.5635 29.7791 12.9577 28.4667 11.8261 26.7813C10.6945 25.0958 10.088 23.1131 10.083 21.083C10.0864 18.3597 11.1676 15.7485 13.0902 13.8198C15.0129 11.8912 17.6207 10.8019 20.344 10.79ZM27.014 21.0601C27.015 19.7415 26.6247 18.4525 25.8925 17.356C25.1604 16.2594 24.1194 15.4044 22.9012 14.8999C21.683 14.3954 20.3425 14.2637 19.0495 14.5215C17.7564 14.7793 16.5689 15.415 15.6374 16.3481C14.7058 17.2812 14.0721 18.4697 13.8164 19.7632C13.5608 21.0567 13.6947 22.3969 14.2012 23.6143C14.7078 24.8316 15.5642 25.8712 16.6619 26.6016C17.7597 27.3319 19.0495 27.72 20.368 27.7168C22.1286 27.7039 23.8132 26.9984 25.0571 25.7524C26.301 24.5065 27.0041 22.8206 27.014 21.0601Z" fill="url(#paint1_linear_1_27540)" />
	<path d="M33.4169 10.3838C33.4187 10.8588 33.2795 11.3239 33.0168 11.7197C32.7542 12.1156 32.38 12.4249 31.9416 12.6079C31.5032 12.7909 31.0204 12.8396 30.5543 12.748C30.0881 12.6565 29.6596 12.4285 29.3231 12.0933C28.9865 11.758 28.7571 11.3305 28.6637 10.8647C28.5704 10.3989 28.6174 9.91563 28.7988 9.47656C28.9801 9.0375 29.2878 8.66206 29.6826 8.39795C30.0775 8.13383 30.5419 7.99317 31.0169 7.99316C31.6503 7.99835 32.2564 8.2517 32.7051 8.69873C33.1538 9.14576 33.4094 9.75045 33.4169 10.3838Z" fill="url(#paint2_linear_1_27540)" />
	<defs>
		<linearGradient id="paint0_linear_1_27540" x1="37.0099" y1="37.6817" x2="3.53233" y2="4.56472" gradientUnits="userSpaceOnUse">
			<stop stop-color="#FFF5DD" />
			<stop offset="1" stop-color="#F5B942" />
		</linearGradient>
		<linearGradient id="paint1_linear_1_27540" x1="27.6002" y1="28.3071" x2="13.1019" y2="13.8087" gradientUnits="userSpaceOnUse">
			<stop stop-color="#FFF5DD" />
			<stop offset="1" stop-color="#F5B942" />
		</linearGradient>
		<linearGradient id="paint2_linear_1_27540" x1="32.7017" y1="12.0923" x2="29.3178" y2="8.70831" gradientUnits="userSpaceOnUse">
			<stop stop-color="#FFF5DD" />
			<stop offset="1" stop-color="#F5B942" />
		</linearGradient>
	</defs>
</svg>
