<svg width="41" height="41" viewBox="0 0 41 41" fill="none" xmlns="http://www.w3.org/2000/svg">
	<path d="M14.3003 40.9446V14.282H22.2632V17.9265C22.4232 17.7385 22.4892 17.6768 22.5372 17.6038C23.3078 16.3963 24.3659 15.3986 25.6167 14.7005C26.8675 14.0024 28.272 13.6257 29.7042 13.6038C31.3499 13.4839 33.0025 13.707 34.5573 14.2595C37.5453 15.3395 39.0492 17.6669 39.6102 20.6389C39.9223 22.294 40.0913 23.9729 40.1152 25.657C40.1812 30.593 40.1423 35.531 40.1443 40.469V40.9397H31.8833V40.2747C31.8833 36.2537 31.8983 32.2327 31.8743 28.2117C31.8786 27.0667 31.8091 25.9229 31.6663 24.7869C31.2503 21.7529 29.3282 20.4186 26.3252 21.0066C25.3618 21.1814 24.4865 21.6786 23.8428 22.4163C23.199 23.154 22.825 24.0885 22.7822 25.0667C22.6525 26.0783 22.583 27.0971 22.5742 28.117C22.5512 32.138 22.5642 36.1589 22.5642 40.1799V40.948L14.3003 40.9446Z" fill="url(#paint0_linear_1_27657)" />
	<path d="M9.07214 40.9629H0.850098V14.2939H9.07214V40.9629Z" fill="url(#paint1_linear_1_27657)" />
	<path d="M4.95217 10.6152C3.99692 10.617 3.06261 10.3353 2.2676 9.80566C1.47259 9.27605 0.852613 8.52233 0.486229 7.64013C0.119846 6.75793 0.0235706 5.78659 0.209496 4.8496C0.395421 3.91261 0.855193 3.05193 1.53066 2.37646C2.20613 1.70099 3.06682 1.24109 4.00381 1.05517C4.9408 0.869242 5.91189 0.965639 6.79409 1.33202C7.67629 1.69841 8.43001 2.31826 8.95962 3.11327C9.48922 3.90828 9.77097 4.84259 9.76919 5.79784C9.76132 7.07296 9.2513 8.29364 8.34963 9.1953C7.44797 10.097 6.22729 10.6074 4.95217 10.6152Z" fill="url(#paint2_linear_1_27657)" />
	<defs>
		<linearGradient id="paint0_linear_1_27657" x1="39.6885" y1="24.0024" x2="5.35579" y2="32.8587" gradientUnits="userSpaceOnUse">
			<stop stop-color="#FFF5DD" />
			<stop offset="1" stop-color="#F5B942" />
		</linearGradient>
		<linearGradient id="paint1_linear_1_27657" x1="37.9809" y1="18.0809" x2="3.66441" y2="19.023" gradientUnits="userSpaceOnUse">
			<stop stop-color="#FFF5DD" />
			<stop offset="1" stop-color="#F5B942" />
		</linearGradient>
		<linearGradient id="paint2_linear_1_27657" x1="32.2198" y1="-2.0776" x2="-1.95818" y2="7.77681" gradientUnits="userSpaceOnUse">
			<stop stop-color="#FFF5DD" />
			<stop offset="1" stop-color="#F5B942" />
		</linearGradient>
	</defs>
</svg>
