<svg width="41" height="24" viewBox="0 0 41 24" fill="none" xmlns="http://www.w3.org/2000/svg">
	<path d="M22.56 12.0322C22.5298 14.27 21.8346 16.4479 20.5629 18.2895C19.2913 20.1311 17.5006 21.5529 15.4186 22.374C13.3366 23.195 11.0575 23.3782 8.8711 22.9003C6.68471 22.4224 4.68987 21.3052 3.14033 19.6904C1.59079 18.0756 0.556584 16.0362 0.169256 13.832C-0.218071 11.6277 0.0590118 9.3583 0.965216 7.31196C1.87142 5.26562 3.36581 3.53492 5.25831 2.34028C7.1508 1.14564 9.35587 0.540887 11.593 0.602976C14.5509 0.700217 17.3536 1.95 19.4027 4.0854C21.4517 6.22079 22.5848 9.07278 22.56 12.0322Z" fill="url(#paint0_linear_1_27571)" />
	<path d="M34.967 12.019C34.9976 14.6524 34.3925 17.2543 33.203 19.604C32.7955 20.3512 32.2766 21.0321 31.664 21.623C31.3601 21.9483 30.9932 22.2084 30.5855 22.3872C30.1778 22.566 29.738 22.6594 29.2928 22.6626C28.8477 22.6658 28.4066 22.5787 27.9964 22.4058C27.5862 22.2328 27.2155 21.9781 26.907 21.6572C25.949 20.7831 25.2283 19.6804 24.812 18.4521C23.9637 16.2773 23.5534 13.956 23.6049 11.6221C23.6564 9.28813 24.1686 6.98742 25.112 4.85205C25.5535 3.89075 26.1707 3.02054 26.932 2.28613C27.2354 1.9596 27.6028 1.6991 28.0114 1.521C28.4199 1.34289 28.8609 1.25098 29.3066 1.25098C29.7523 1.25098 30.1932 1.34289 30.6017 1.521C31.0103 1.6991 31.3777 1.9596 31.6811 2.28613C32.7994 3.35634 33.6081 4.70862 34.022 6.2002C34.3045 7.06777 34.5201 7.95546 34.667 8.85596C34.827 9.89996 34.871 10.965 34.967 12.019Z" fill="url(#paint1_linear_1_27571)" />
	<path d="M35.96 12.4371C36.101 9.22908 36.123 6.50026 36.95 3.86726C37.0453 3.54989 37.174 3.24346 37.3339 2.9532C37.7549 2.2082 38.3089 2.1812 38.6439 2.9532C39.0093 3.78724 39.2809 4.65934 39.4539 5.5533C40.0341 8.87653 40.1597 12.2631 39.827 15.6202C39.6532 17.082 39.4008 18.5331 39.0709 19.9678C38.9827 20.3315 38.838 20.6793 38.642 20.9981C38.242 21.7071 37.6589 21.7433 37.3729 20.9923C36.9174 19.8605 36.5877 18.6819 36.39 17.4781C36.13 15.6521 36.068 13.8001 35.96 12.4371Z" fill="url(#paint2_linear_1_27571)" />
	<defs>
		<linearGradient id="paint0_linear_1_27571" x1="-0.000976562" y1="11.8796" x2="22.5604" y2="11.8796" gradientUnits="userSpaceOnUse">
			<stop stop-color="#FFF5DD" />
			<stop offset="1" stop-color="#F5B942" />
		</linearGradient>
		<linearGradient id="paint1_linear_1_27571" x1="23.6006" y1="11.9568" x2="34.9681" y2="11.9568" gradientUnits="userSpaceOnUse">
			<stop stop-color="#FFF5DD" />
			<stop offset="1" stop-color="#F5B942" />
		</linearGradient>
		<linearGradient id="paint2_linear_1_27571" x1="35.96" y1="11.9635" x2="40.0083" y2="11.9635" gradientUnits="userSpaceOnUse">
			<stop stop-color="#FFF5DD" />
			<stop offset="1" stop-color="#F5B942" />
		</linearGradient>
	</defs>
</svg>
