<svg width="438" height="784" viewBox="0 0 438 784" fill="none" xmlns="http://www.w3.org/2000/svg">
	<mask id="mask0_1_25177" style="mask-type:luminance" maskUnits="userSpaceOnUse" x="0" y="0" width="438" height="784">
		<path d="M437.466 783.5H0.359985V0.644043H378.148V3.64404H3.36415V780.5H437.466V783.5Z" fill="white" />
	</mask>
	<g mask="url(#mask0_1_25177)">
		<path d="M437.466 0.644043H0.359985V2.20804H437.466V0.644043Z" fill="#8C5110" />
		<path d="M437.466 2.20801H0.359985V3.77201H437.466V2.20801Z" fill="#8D5211" />
		<path d="M437.466 3.771H0.359985V5.335H437.466V3.771Z" fill="#8E5311" />
		<path d="M437.466 5.33496H0.359985V6.89896H437.466V5.33496Z" fill="#8F5412" />
		<path d="M437.466 6.89893H0.359985V8.46293H437.466V6.89893Z" fill="#905512" />
		<path d="M437.466 8.46289H0.359985V10.0269H437.466V8.46289Z" fill="#915613" />
		<path d="M437.466 10.0269H0.359985V11.5909H437.466V10.0269Z" fill="#925713" />
		<path d="M437.466 11.5908H0.359985V13.1548H437.466V11.5908Z" fill="#935814" />
		<path d="M437.466 13.1548H0.359985V14.7188H437.466V13.1548Z" fill="#945914" />
		<path d="M437.466 14.7178H0.359985V16.2818H437.466V14.7178Z" fill="#955A15" />
		<path d="M437.466 16.2822H0.359985V17.8462H437.466V16.2822Z" fill="#965B15" />
		<path d="M437.466 17.8462H0.359985V19.4102H437.466V17.8462Z" fill="#975C16" />
		<path d="M437.466 19.4102H0.359985V20.9742H437.466V19.4102Z" fill="#985D16" />
		<path d="M437.466 20.9741H0.359985V22.5381H437.466V20.9741Z" fill="#995E17" />
		<path d="M437.466 22.5381H0.359985V24.1021H437.466V22.5381Z" fill="#9A5F17" />
		<path d="M437.466 24.1021H0.359985V25.6661H437.466V24.1021Z" fill="#9B5F18" />
		<path d="M437.466 25.666H0.359985V27.23H437.466V25.666Z" fill="#9C6018" />
		<path d="M437.466 27.229H0.359985V28.793H437.466V27.229Z" fill="#9D6119" />
		<path d="M437.466 28.793H0.359985V30.357H437.466V28.793Z" fill="#9E6219" />
		<path d="M437.466 30.3569H0.359985V31.9209H437.466V30.3569Z" fill="#9F631A" />
		<path d="M437.466 31.9209H0.359985V33.4849H437.466V31.9209Z" fill="#A0641A" />
		<path d="M437.466 33.4849H0.359985V35.0489H437.466V33.4849Z" fill="#A1651B" />
		<path d="M437.466 35.0488H0.359985V36.6128H437.466V35.0488Z" fill="#A2661B" />
		<path d="M437.466 36.6128H0.359985V38.1768H437.466V36.6128Z" fill="#A3671C" />
		<path d="M437.466 38.1768H0.359985V39.7408H437.466V38.1768Z" fill="#A4681C" />
		<path d="M437.466 39.7402H0.359985V41.3042H437.466V39.7402Z" fill="#A5691D" />
		<path d="M437.466 41.3042H0.359985V42.8682H437.466V41.3042Z" fill="#A66A1D" />
		<path d="M437.466 42.8682H0.359985V44.4322H437.466V42.8682Z" fill="#A76B1E" />
		<path d="M437.466 44.4321H0.359985V45.9961H437.466V44.4321Z" fill="#A86C1E" />
		<path d="M437.466 45.9961H0.359985V47.5601H437.466V45.9961Z" fill="#A96D1F" />
		<path d="M437.466 47.5601H0.359985V49.1241H437.466V47.5601Z" fill="#AA6E1F" />
		<path d="M437.466 49.124H0.359985V50.688H437.466V49.124Z" fill="#AB6F20" />
		<path d="M437.466 50.688H0.359985V52.252H437.466V50.688Z" fill="#AC7020" />
		<path d="M437.466 52.251H0.359985V53.815H437.466V52.251Z" fill="#AD7121" />
		<path d="M437.466 53.8149H0.359985V55.3789H437.466V53.8149Z" fill="#AE7221" />
		<path d="M437.466 55.3789H0.359985V56.9429H437.466V55.3789Z" fill="#AF7322" />
		<path d="M437.466 56.9429H0.359985V58.5069H437.466V56.9429Z" fill="#B07422" />
		<path d="M437.466 58.5068H0.359985V60.0708H437.466V58.5068Z" fill="#B17523" />
		<path d="M437.466 60.0708H0.359985V61.6348H437.466V60.0708Z" fill="#B27623" />
		<path d="M437.466 61.6348H0.359985V63.1988H437.466V61.6348Z" fill="#B37724" />
		<path d="M437.466 63.1992H0.359985V64.7632H437.466V63.1992Z" fill="#B47824" />
		<path d="M437.466 64.7622H0.359985V66.3262H437.466V64.7622Z" fill="#B57925" />
		<path d="M437.466 66.3262H0.359985V67.8902H437.466V66.3262Z" fill="#B67A25" />
		<path d="M437.466 67.8901H0.359985V69.4541H437.466V67.8901Z" fill="#B77A26" />
		<path d="M437.466 69.4541H0.359985V71.0181H437.466V69.4541Z" fill="#B87B26" />
		<path d="M437.466 71.0181H0.359985V72.5821H437.466V71.0181Z" fill="#B97C27" />
		<path d="M437.466 72.582H0.359985V74.146H437.466V72.582Z" fill="#BA7D27" />
		<path d="M437.466 74.146H0.359985V75.71H437.466V74.146Z" fill="#BB7E28" />
		<path d="M437.466 75.709H0.359985V77.273H437.466V75.709Z" fill="#BC7F28" />
		<path d="M437.466 77.2729H0.359985V78.8369H437.466V77.2729Z" fill="#BD8029" />
		<path d="M437.466 78.8369H0.359985V80.4009H437.466V78.8369Z" fill="#BE8129" />
		<path d="M437.466 80.4009H0.359985V81.9649H437.466V80.4009Z" fill="#BF822A" />
		<path d="M437.466 81.9648H0.359985V83.5288H437.466V81.9648Z" fill="#C0832A" />
		<path d="M437.466 83.5288H0.359985V85.0928H437.466V83.5288Z" fill="#C1842B" />
		<path d="M437.466 85.0928H0.359985V86.6568H437.466V85.0928Z" fill="#C2852B" />
		<path d="M437.466 86.6572H0.359985V88.2212H437.466V86.6572Z" fill="#C3862C" />
		<path d="M437.466 88.2212H0.359985V89.7852H437.466V88.2212Z" fill="#C4872C" />
		<path d="M437.466 89.7842H0.359985V91.3482H437.466V89.7842Z" fill="#C6882D" />
		<path d="M437.466 91.3481H0.359985V92.9121H437.466V91.3481Z" fill="#C7892E" />
		<path d="M437.466 92.9121H0.359985V94.4761H437.466V92.9121Z" fill="#C88A2E" />
		<path d="M437.466 94.4761H0.359985V96.0401H437.466V94.4761Z" fill="#C98B2F" />
		<path d="M437.466 96.04H0.359985V97.604H437.466V96.04Z" fill="#CA8C2F" />
		<path d="M437.466 97.604H0.359985V99.168H437.466V97.604Z" fill="#CB8D30" />
		<path d="M437.466 99.167H0.359985V100.731H437.466V99.167Z" fill="#CC8E30" />
		<path d="M437.466 100.731H0.359985V102.295H437.466V100.731Z" fill="#CD8F31" />
		<path d="M437.466 102.295H0.359985V103.859H437.466V102.295Z" fill="#CE9031" />
		<path d="M437.466 103.859H0.359985V105.423H437.466V103.859Z" fill="#CF9132" />
		<path d="M437.466 105.423H0.359985V106.987H437.466V105.423Z" fill="#D09232" />
		<path d="M437.466 106.987H0.359985V108.551H437.466V106.987Z" fill="#D19333" />
		<path d="M437.466 108.551H0.359985V110.115H437.466V108.551Z" fill="#D29433" />
		<path d="M437.466 110.115H0.359985V111.679H437.466V110.115Z" fill="#D39534" />
		<path d="M437.466 111.679H0.359985V113.243H437.466V111.679Z" fill="#D49634" />
		<path d="M437.466 113.243H0.359985V114.807H437.466V113.243Z" fill="#D59635" />
		<path d="M437.466 114.807H0.359985V116.371H437.466V114.807Z" fill="#D69735" />
		<path d="M437.466 116.37H0.359985V117.934H437.466V116.37Z" fill="#D79836" />
		<path d="M437.466 117.934H0.359985V119.498H437.466V117.934Z" fill="#D89936" />
		<path d="M437.466 119.498H0.359985V121.062H437.466V119.498Z" fill="#D99A37" />
		<path d="M437.466 121.062H0.359985V122.626H437.466V121.062Z" fill="#DA9B37" />
		<path d="M437.466 122.626H0.359985V124.19H437.466V122.626Z" fill="#DB9C38" />
		<path d="M437.466 124.189H0.359985V125.753H437.466V124.189Z" fill="#DC9D38" />
		<path d="M437.466 125.753H0.359985V127.317H437.466V125.753Z" fill="#DD9E39" />
		<path d="M437.466 127.317H0.359985V128.881H437.466V127.317Z" fill="#DE9F39" />
		<path d="M437.466 128.881H0.359985V130.445H437.466V128.881Z" fill="#DFA03A" />
		<path d="M437.466 130.445H0.359985V132.009H437.466V130.445Z" fill="#E0A13A" />
		<path d="M437.466 132.009H0.359985V133.573H437.466V132.009Z" fill="#E1A23B" />
		<path d="M437.466 133.573H0.359985V135.137H437.466V133.573Z" fill="#E2A33B" />
		<path d="M437.466 135.137H0.359985V136.701H437.466V135.137Z" fill="#E3A43C" />
		<path d="M437.466 136.701H0.359985V138.265H437.466V136.701Z" fill="#E4A53C" />
		<path d="M437.466 138.265H0.359985V139.829H437.466V138.265Z" fill="#E5A63D" />
		<path d="M437.466 139.829H0.359985V141.393H437.466V139.829Z" fill="#E6A73D" />
		<path d="M437.466 141.392H0.359985V142.956H437.466V141.392Z" fill="#E7A83E" />
		<path d="M437.466 142.956H0.359985V144.52H437.466V142.956Z" fill="#E8A93E" />
		<path d="M437.466 144.52H0.359985V146.084H437.466V144.52Z" fill="#E9AA3F" />
		<path d="M437.466 146.084H0.359985V147.648H437.466V146.084Z" fill="#EAAB3F" />
		<path d="M437.466 147.648H0.359985V149.212H437.466V147.648Z" fill="#EBAC40" />
		<path d="M437.466 149.211H0.359985V150.775H437.466V149.211Z" fill="#ECAD40" />
		<path d="M437.466 150.775H0.359985V152.339H437.466V150.775Z" fill="#EDAE41" />
		<path d="M437.466 152.339H0.359985V153.903H437.466V152.339Z" fill="#EEAF41" />
		<path d="M437.466 153.903H0.359985V155.467H437.466V153.903Z" fill="#EFB042" />
		<path d="M437.466 155.467H0.359985V157.031H437.466V155.467Z" fill="#F0B142" />
		<path d="M437.466 157.031H0.359985V158.595H437.466V157.031Z" fill="#F1B143" />
		<path d="M437.466 158.595H0.359985V160.159H437.466V158.595Z" fill="#F2B243" />
		<path d="M437.466 160.159H0.359985V161.723H437.466V160.159Z" fill="#F3B344" />
		<path d="M437.466 161.723H0.359985V163.287H437.466V161.723Z" fill="#F4B444" />
		<path d="M437.466 163.287H0.359985V164.851H437.466V163.287Z" fill="#F5B545" />
		<path d="M437.466 164.851H0.359985V166.415H437.466V164.851Z" fill="#F6B645" />
		<path d="M437.466 166.414H0.359985V167.978H437.466V166.414Z" fill="#F7B746" />
		<path d="M437.466 167.978H0.359985V169.542H437.466V167.978Z" fill="#F8B846" />
		<path d="M437.466 169.542H0.359985V171.106H437.466V169.542Z" fill="#F9B947" />
		<path d="M437.466 171.106H0.359985V172.67H437.466V171.106Z" fill="#FABA47" />
		<path d="M437.466 172.67H0.359985V174.234H437.466V172.67Z" fill="#FBBB48" />
		<path d="M437.466 174.234H0.359985V175.798H437.466V174.234Z" fill="#FCBC48" />
		<path d="M437.466 175.797H0.359985V177.361H437.466V175.797Z" fill="#FDBD49" />
		<path d="M437.466 177.361H0.359985V178.925H437.466V177.361Z" fill="#FEBE49" />
		<path d="M437.466 178.925H0.359985V180.489H437.466V178.925Z" fill="#FFBF4A" />
		<path d="M437.466 180.489H0.359985V182.285H437.466V180.489Z" fill="#FFBF4A" />
		<path d="M437.466 182.285H0.359985V184.081H437.466V182.285Z" fill="#FEBE49" />
		<path d="M437.466 184.081H0.359985V185.877H437.466V184.081Z" fill="#FDBD49" />
		<path d="M437.466 185.876H0.359985V187.672H437.466V185.876Z" fill="#FCBC48" />
		<path d="M437.466 187.671H0.359985V189.467H437.466V187.671Z" fill="#FBBB48" />
		<path d="M437.466 189.467H0.359985V191.263H437.466V189.467Z" fill="#FABA47" />
		<path d="M437.466 191.263H0.359985V193.059H437.466V191.263Z" fill="#F9B947" />
		<path d="M437.466 193.059H0.359985V194.855H437.466V193.059Z" fill="#F8B846" />
		<path d="M437.466 194.854H0.359985V196.65H437.466V194.854Z" fill="#F7B746" />
		<path d="M437.466 196.649H0.359985V198.445H437.466V196.649Z" fill="#F6B645" />
		<path d="M437.466 198.445H0.359985V200.241H437.466V198.445Z" fill="#F5B544" />
		<path d="M437.466 200.241H0.359985V202.037H437.466V200.241Z" fill="#F4B444" />
		<path d="M437.466 202.037H0.359985V203.833H437.466V202.037Z" fill="#F3B343" />
		<path d="M437.466 203.832H0.359985V205.628H437.466V203.832Z" fill="#F2B243" />
		<path d="M437.466 205.628H0.359985V207.424H437.466V205.628Z" fill="#F1B142" />
		<path d="M437.466 207.423H0.359985V209.219H437.466V207.423Z" fill="#F0B042" />
		<path d="M437.466 209.219H0.359985V211.015H437.466V209.219Z" fill="#EFAF41" />
		<path d="M437.466 211.015H0.359985V212.811H437.466V211.015Z" fill="#EEAE40" />
		<path d="M437.466 212.81H0.359985V214.606H437.466V212.81Z" fill="#EDAD40" />
		<path d="M437.466 214.606H0.359985V216.402H437.466V214.606Z" fill="#ECAC3F" />
		<path d="M437.466 216.401H0.359985V218.197H437.466V216.401Z" fill="#EBAB3F" />
		<path d="M437.466 218.197H0.359985V219.993H437.466V218.197Z" fill="#EAAA3E" />
		<path d="M437.466 219.993H0.359985V221.789H437.466V219.993Z" fill="#E9A93E" />
		<path d="M437.466 221.788H0.359985V223.584H437.466V221.788Z" fill="#E8A83D" />
		<path d="M437.466 223.584H0.359985V225.38H437.466V223.584Z" fill="#E7A73D" />
		<path d="M437.466 225.379H0.359985V227.175H437.466V225.379Z" fill="#E6A63C" />
		<path d="M437.466 227.175H0.359985V228.971H437.466V227.175Z" fill="#E5A53B" />
		<path d="M437.466 228.971H0.359985V230.767H437.466V228.971Z" fill="#E4A43B" />
		<path d="M437.466 230.766H0.359985V232.562H437.466V230.766Z" fill="#E3A33A" />
		<path d="M437.466 232.562H0.359985V234.358H437.466V232.562Z" fill="#E2A23A" />
		<path d="M437.466 234.357H0.359985V236.153H437.466V234.357Z" fill="#E1A139" />
		<path d="M437.466 236.153H0.359985V237.949H437.466V236.153Z" fill="#E0A039" />
		<path d="M437.466 237.949H0.359985V239.745H437.466V237.949Z" fill="#DF9F38" />
		<path d="M437.466 239.744H0.359985V241.54H437.466V239.744Z" fill="#DE9E38" />
		<path d="M437.466 241.54H0.359985V243.336H437.466V241.54Z" fill="#DD9D37" />
		<path d="M437.466 243.335H0.359985V245.131H437.466V243.335Z" fill="#DC9C36" />
		<path d="M437.466 245.131H0.359985V246.927H437.466V245.131Z" fill="#DB9B36" />
		<path d="M437.466 246.927H0.359985V248.723H437.466V246.927Z" fill="#DA9A35" />
		<path d="M437.466 248.722H0.359985V250.518H437.466V248.722Z" fill="#D99935" />
		<path d="M437.466 250.518H0.359985V252.314H437.466V250.518Z" fill="#D89834" />
		<path d="M437.466 252.313H0.359985V254.109H437.466V252.313Z" fill="#D79734" />
		<path d="M437.466 254.109H0.359985V255.905H437.466V254.109Z" fill="#D69633" />
		<path d="M437.466 255.905H0.359985V257.701H437.466V255.905Z" fill="#D59532" />
		<path d="M437.466 257.7H0.359985V259.496H437.466V257.7Z" fill="#D49432" />
		<path d="M437.466 259.496H0.359985V261.292H437.466V259.496Z" fill="#D39331" />
		<path d="M437.466 261.292H0.359985V263.088H437.466V261.292Z" fill="#D29231" />
		<path d="M437.466 263.087H0.359985V264.883H437.466V263.087Z" fill="#D19130" />
		<path d="M437.466 264.883H0.359985V266.679H437.466V264.883Z" fill="#D09030" />
		<path d="M437.466 266.678H0.359985V268.474H437.466V266.678Z" fill="#CF8F2F" />
		<path d="M437.466 268.474H0.359985V270.27H437.466V268.474Z" fill="#CE8E2F" />
		<path d="M437.466 270.27H0.359985V272.066H437.466V270.27Z" fill="#CD8D2E" />
		<path d="M437.466 272.065H0.359985V273.861H437.466V272.065Z" fill="#CB8B2D" />
		<path d="M437.466 273.861H0.359985V275.657H437.466V273.861Z" fill="#CA8A2D" />
		<path d="M437.466 275.656H0.359985V277.452H437.466V275.656Z" fill="#C9892C" />
		<path d="M437.466 277.452H0.359985V279.248H437.466V277.452Z" fill="#C8882C" />
		<path d="M437.466 279.248H0.359985V281.044H437.466V279.248Z" fill="#C7872B" />
		<path d="M437.466 281.043H0.359985V282.839H437.466V281.043Z" fill="#C6862B" />
		<path d="M437.466 282.839H0.359985V284.635H437.466V282.839Z" fill="#C5852A" />
		<path d="M437.466 284.634H0.359985V286.43H437.466V284.634Z" fill="#C4842A" />
		<path d="M437.466 286.43H0.359985V288.226H437.466V286.43Z" fill="#C38329" />
		<path d="M437.466 288.226H0.359985V290.022H437.466V288.226Z" fill="#C28228" />
		<path d="M437.466 290.021H0.359985V291.817H437.466V290.021Z" fill="#C18128" />
		<path d="M437.466 291.817H0.359985V293.613H437.466V291.817Z" fill="#C08027" />
		<path d="M437.466 293.612H0.359985V295.408H437.466V293.612Z" fill="#BF7F27" />
		<path d="M437.466 295.408H0.359985V297.204H437.466V295.408Z" fill="#BE7E26" />
		<path d="M437.466 297.204H0.359985V299H437.466V297.204Z" fill="#BD7D26" />
		<path d="M437.466 299H0.359985V300.796H437.466V299Z" fill="#BC7C25" />
		<path d="M437.466 300.795H0.359985V302.591H437.466V300.795Z" fill="#BB7B24" />
		<path d="M437.466 302.591H0.359985V304.387H437.466V302.591Z" fill="#BA7A24" />
		<path d="M437.466 304.386H0.359985V306.182H437.466V304.386Z" fill="#B97923" />
		<path d="M437.466 306.182H0.359985V307.978H437.466V306.182Z" fill="#B87823" />
		<path d="M437.466 307.978H0.359985V309.774H437.466V307.978Z" fill="#B77722" />
		<path d="M437.466 309.773H0.359985V311.569H437.466V309.773Z" fill="#B67622" />
		<path d="M437.466 311.569H0.359985V313.365H437.466V311.569Z" fill="#B57521" />
		<path d="M437.466 313.364H0.359985V315.16H437.466V313.364Z" fill="#B47421" />
		<path d="M437.466 315.16H0.359985V316.956H437.466V315.16Z" fill="#B37320" />
		<path d="M437.466 316.956H0.359985V318.752H437.466V316.956Z" fill="#B2721F" />
		<path d="M437.466 318.751H0.359985V320.547H437.466V318.751Z" fill="#B1711F" />
		<path d="M437.466 320.547H0.359985V322.343H437.466V320.547Z" fill="#B0701E" />
		<path d="M437.466 322.342H0.359985V324.138H437.466V322.342Z" fill="#AF6F1E" />
		<path d="M437.466 324.138H0.359985V325.934H437.466V324.138Z" fill="#AE6E1D" />
		<path d="M437.466 325.934H0.359985V327.73H437.466V325.934Z" fill="#AD6D1D" />
		<path d="M437.466 327.729H0.359985V329.525H437.466V327.729Z" fill="#AC6C1C" />
		<path d="M437.466 329.525H0.359985V331.321H437.466V329.525Z" fill="#AB6B1C" />
		<path d="M437.466 331.32H0.359985V333.116H437.466V331.32Z" fill="#AA6A1B" />
		<path d="M437.466 333.116H0.359985V334.912H437.466V333.116Z" fill="#A9691A" />
		<path d="M437.466 334.912H0.359985V336.708H437.466V334.912Z" fill="#A8681A" />
		<path d="M437.466 336.707H0.359985V338.503H437.466V336.707Z" fill="#A76719" />
		<path d="M437.466 338.503H0.359985V340.299H437.466V338.503Z" fill="#A66619" />
		<path d="M437.466 340.298H0.359985V342.094H437.466V340.298Z" fill="#A56518" />
		<path d="M437.466 342.094H0.359985V343.89H437.466V342.094Z" fill="#A46418" />
		<path d="M437.466 343.89H0.359985V345.686H437.466V343.89Z" fill="#A36317" />
		<path d="M437.466 345.685H0.359985V347.481H437.466V345.685Z" fill="#A26216" />
		<path d="M437.466 347.481H0.359985V349.277H437.466V347.481Z" fill="#A16116" />
		<path d="M437.466 349.276H0.359985V351.072H437.466V349.276Z" fill="#A06015" />
		<path d="M437.466 351.072H0.359985V352.868H437.466V351.072Z" fill="#9F5F15" />
		<path d="M437.466 352.868H0.359985V354.664H437.466V352.868Z" fill="#9E5E14" />
		<path d="M437.466 354.663H0.359985V356.459H437.466V354.663Z" fill="#9D5D14" />
		<path d="M437.466 356.459H0.359985V358.255H437.466V356.459Z" fill="#9C5C13" />
		<path d="M437.466 358.254H0.359985V360.05H437.466V358.254Z" fill="#9B5B13" />
		<path d="M437.466 360.05H0.359985V361.846H437.466V360.05Z" fill="#9A5A12" />
		<path d="M437.466 361.846H0.359985V365.217H437.466V361.846Z" fill="#9A5A12" />
		<path d="M437.466 365.217H0.359985V368.588H437.466V365.217Z" fill="#995912" />
		<path d="M437.466 368.588H0.359985V371.959H437.466V368.588Z" fill="#985912" />
		<path d="M437.466 371.96H0.359985V375.331H437.466V371.96Z" fill="#975811" />
		<path d="M437.466 375.331H0.359985V378.702H437.466V375.331Z" fill="#965711" />
		<path d="M437.466 378.703H0.359985V382.074H437.466V378.703Z" fill="#955711" />
		<path d="M437.466 382.074H0.359985V385.445H437.466V382.074Z" fill="#945611" />
		<path d="M437.466 385.445H0.359985V388.816H437.466V385.445Z" fill="#935511" />
		<path d="M437.466 388.817H0.359985V392.188H437.466V388.817Z" fill="#925510" />
		<path d="M437.466 392.188H0.359985V395.559H437.466V392.188Z" fill="#915410" />
		<path d="M437.466 395.56H0.359985V398.931H437.466V395.56Z" fill="#905310" />
		<path d="M437.466 398.931H0.359985V402.302H437.466V398.931Z" fill="#8F5310" />
		<path d="M437.466 402.302H0.359985V405.673H437.466V402.302Z" fill="#8E5210" />
		<path d="M437.466 405.673H0.359985V409.044H437.466V405.673Z" fill="#8D510F" />
		<path d="M437.466 409.045H0.359985V412.416H437.466V409.045Z" fill="#8C510F" />
		<path d="M437.466 412.417H0.359985V415.788H437.466V412.417Z" fill="#8B500F" />
		<path d="M437.466 415.788H0.359985V419.159H437.466V415.788Z" fill="#8A4F0F" />
		<path d="M437.466 419.159H0.359985V422.53H437.466V419.159Z" fill="#894F0F" />
		<path d="M437.466 422.53H0.359985V425.901H437.466V422.53Z" fill="#884E0E" />
		<path d="M437.466 425.902H0.359985V429.273H437.466V425.902Z" fill="#874D0E" />
		<path d="M437.466 429.273H0.359985V432.644H437.466V429.273Z" fill="#864D0E" />
		<path d="M437.466 432.645H0.359985V436.016H437.466V432.645Z" fill="#854C0E" />
		<path d="M437.466 436.016H0.359985V439.387H437.466V436.016Z" fill="#844B0E" />
		<path d="M437.466 439.387H0.359985V442.758H437.466V439.387Z" fill="#834B0D" />
		<path d="M437.466 442.759H0.359985V446.13H437.466V442.759Z" fill="#824A0D" />
		<path d="M437.466 446.13H0.359985V449.501H437.466V446.13Z" fill="#81490D" />
		<path d="M437.466 449.501H0.359985V452.872H437.466V449.501Z" fill="#80490D" />
		<path d="M437.466 452.873H0.359985V456.244H437.466V452.873Z" fill="#7F480D" />
		<path d="M437.466 456.244H0.359985V459.615H437.466V456.244Z" fill="#7E470C" />
		<path d="M437.466 459.616H0.359985V462.987H437.466V459.616Z" fill="#7D470C" />
		<path d="M437.466 462.987H0.359985V466.358H437.466V462.987Z" fill="#7C460C" />
		<path d="M437.466 466.358H0.359985V469.729H437.466V466.358Z" fill="#7B450C" />
		<path d="M437.466 469.729H0.359985V473.1H437.466V469.729Z" fill="#7A450C" />
		<path d="M437.466 473.101H0.359985V476.472H437.466V473.101Z" fill="#79440B" />
		<path d="M437.466 476.473H0.359985V479.844H437.466V476.473Z" fill="#78430B" />
		<path d="M437.466 479.844H0.359985V483.215H437.466V479.844Z" fill="#77430B" />
		<path d="M437.466 483.215H0.359985V486.586H437.466V483.215Z" fill="#76420B" />
		<path d="M437.466 486.586H0.359985V489.957H437.466V486.586Z" fill="#75410B" />
		<path d="M437.466 489.958H0.359985V493.329H437.466V489.958Z" fill="#74410A" />
		<path d="M437.466 493.329H0.359985V496.7H437.466V493.329Z" fill="#73400A" />
		<path d="M437.466 496.701H0.359985V500.072H437.466V496.701Z" fill="#723F0A" />
		<path d="M437.466 500.072H0.359985V503.443H437.466V500.072Z" fill="#713F0A" />
		<path d="M437.466 503.443H0.359985V506.814H437.466V503.443Z" fill="#703E0A" />
		<path d="M437.466 506.815H0.359985V510.186H437.466V506.815Z" fill="#6F3D09" />
		<path d="M437.466 510.186H0.359985V513.557H437.466V510.186Z" fill="#6E3D09" />
		<path d="M437.466 513.558H0.359985V516.929H437.466V513.558Z" fill="#6D3C09" />
		<path d="M437.466 516.929H0.359985V520.3H437.466V516.929Z" fill="#6B3B09" />
		<path d="M437.466 520.3H0.359985V523.671H437.466V520.3Z" fill="#6A3B09" />
		<path d="M437.466 523.672H0.359985V527.043H437.466V523.672Z" fill="#693A08" />
		<path d="M437.466 527.043H0.359985V530.414H437.466V527.043Z" fill="#683908" />
		<path d="M437.466 530.415H0.359985V533.786H437.466V530.415Z" fill="#673908" />
		<path d="M437.466 533.786H0.359985V537.157H437.466V533.786Z" fill="#663808" />
		<path d="M437.466 537.157H0.359985V540.528H437.466V537.157Z" fill="#653708" />
		<path d="M437.466 540.529H0.359985V543.9H437.466V540.529Z" fill="#643707" />
		<path d="M437.466 543.9H0.359985V547.271H437.466V543.9Z" fill="#633607" />
		<path d="M437.466 547.271H0.359985V550.642H437.466V547.271Z" fill="#623507" />
		<path d="M437.466 550.643H0.359985V554.014H437.466V550.643Z" fill="#613507" />
		<path d="M437.466 554.014H0.359985V557.385H437.466V554.014Z" fill="#603407" />
		<path d="M437.466 557.385H0.359985V560.756H437.466V557.385Z" fill="#5F3306" />
		<path d="M437.466 560.757H0.359985V564.128H437.466V560.757Z" fill="#5E3306" />
		<path d="M437.466 564.128H0.359985V567.499H437.466V564.128Z" fill="#5D3206" />
		<path d="M437.466 567.5H0.359985V570.871H437.466V567.5Z" fill="#5C3106" />
		<path d="M437.466 570.871H0.359985V574.242H437.466V570.871Z" fill="#5B3106" />
		<path d="M437.466 574.242H0.359985V577.613H437.466V574.242Z" fill="#5A3005" />
		<path d="M437.466 577.614H0.359985V580.985H437.466V577.614Z" fill="#592F05" />
		<path d="M437.466 580.985H0.359985V584.356H437.466V580.985Z" fill="#582F05" />
		<path d="M437.466 584.356H0.359985V587.727H437.466V584.356Z" fill="#572E05" />
		<path d="M437.466 587.728H0.359985V591.099H437.466V587.728Z" fill="#562D05" />
		<path d="M437.466 591.099H0.359985V594.47H437.466V591.099Z" fill="#552D04" />
		<path d="M437.466 594.471H0.359985V597.842H437.466V594.471Z" fill="#542C04" />
		<path d="M437.466 597.842H0.359985V601.213H437.466V597.842Z" fill="#532B04" />
		<path d="M437.466 601.213H0.359985V604.584H437.466V601.213Z" fill="#522B04" />
		<path d="M437.466 604.585H0.359985V607.956H437.466V604.585Z" fill="#512A04" />
		<path d="M437.466 607.956H0.359985V611.327H437.466V607.956Z" fill="#502903" />
		<path d="M437.466 611.328H0.359985V614.699H437.466V611.328Z" fill="#4F2903" />
		<path d="M437.466 614.699H0.359985V618.07H437.466V614.699Z" fill="#4E2803" />
		<path d="M437.466 618.07H0.359985V621.441H437.466V618.07Z" fill="#4D2703" />
		<path d="M437.466 621.441H0.359985V624.812H437.466V621.441Z" fill="#4C2703" />
		<path d="M437.466 624.813H0.359985V628.184H437.466V624.813Z" fill="#4B2602" />
		<path d="M437.466 628.185H0.359985V631.556H437.466V628.185Z" fill="#4A2502" />
		<path d="M437.466 631.556H0.359985V634.927H437.466V631.556Z" fill="#492502" />
		<path d="M437.466 634.927H0.359985V638.298H437.466V634.927Z" fill="#482402" />
		<path d="M437.466 638.298H0.359985V641.669H437.466V638.298Z" fill="#472302" />
		<path d="M437.466 641.67H0.359985V645.041H437.466V641.67Z" fill="#462301" />
		<path d="M437.466 645.041H0.359985V648.412H437.466V645.041Z" fill="#452201" />
		<path d="M437.466 648.413H0.359985V651.784H437.466V648.413Z" fill="#442101" />
		<path d="M437.466 651.784H0.359985V655.155H437.466V651.784Z" fill="#432101" />
		<path d="M437.466 655.155H0.359985V658.526H437.466V655.155Z" fill="#422001" />
		<path d="M437.466 658.527H0.359985V661.898H437.466V658.527Z" fill="#411F00" />
		<path d="M437.466 661.898H0.359985V665.269H437.466V661.898Z" fill="#401F00" />
		<path d="M437.466 665.27H0.359985V668.641H437.466V665.27Z" fill="#3F1E00" />
		<path d="M437.466 668.641H0.359985V669.605H437.466V668.641Z" fill="#3F1E00" />
		<path d="M437.466 669.605H0.359985V670.569H437.466V669.605Z" fill="#401F00" />
		<path d="M437.466 670.569H0.359985V671.533H437.466V670.569Z" fill="#411F00" />
		<path d="M437.466 671.534H0.359985V672.498H437.466V671.534Z" fill="#422001" />
		<path d="M437.466 672.498H0.359985V673.462H437.466V672.498Z" fill="#432101" />
		<path d="M437.466 673.462H0.359985V674.426H437.466V673.462Z" fill="#442101" />
		<path d="M437.466 674.427H0.359985V675.391H437.466V674.427Z" fill="#452201" />
		<path d="M437.466 675.391H0.359985V676.355H437.466V675.391Z" fill="#462301" />
		<path d="M437.466 676.355H0.359985V677.319H437.466V676.355Z" fill="#472302" />
		<path d="M437.466 677.32H0.359985V678.284H437.466V677.32Z" fill="#482402" />
		<path d="M437.466 678.284H0.359985V679.248H437.466V678.284Z" fill="#492502" />
		<path d="M437.466 679.249H0.359985V680.213H437.466V679.249Z" fill="#4A2502" />
		<path d="M437.466 680.213H0.359985V681.177H437.466V680.213Z" fill="#4B2602" />
		<path d="M437.466 681.177H0.359985V682.141H437.466V681.177Z" fill="#4C2703" />
		<path d="M437.466 682.142H0.359985V683.106H437.466V682.142Z" fill="#4D2703" />
		<path d="M437.466 683.106H0.359985V684.07H437.466V683.106Z" fill="#4E2803" />
		<path d="M437.466 684.07H0.359985V685.034H437.466V684.07Z" fill="#4F2903" />
		<path d="M437.466 685.035H0.359985V685.999H437.466V685.035Z" fill="#502903" />
		<path d="M437.466 685.999H0.359985V686.963H437.466V685.999Z" fill="#512A03" />
		<path d="M437.466 686.963H0.359985V687.927H437.466V686.963Z" fill="#522B04" />
		<path d="M437.466 687.928H0.359985V688.892H437.466V687.928Z" fill="#532B04" />
		<path d="M437.466 688.892H0.359985V689.856H437.466V688.892Z" fill="#542C04" />
		<path d="M437.466 689.856H0.359985V690.82H437.466V689.856Z" fill="#552D04" />
		<path d="M437.466 690.821H0.359985V691.785H437.466V690.821Z" fill="#562D04" />
		<path d="M437.466 691.785H0.359985V692.749H437.466V691.785Z" fill="#572E05" />
		<path d="M437.466 692.75H0.359985V693.714H437.466V692.75Z" fill="#582F05" />
		<path d="M437.466 693.714H0.359985V694.678H437.466V693.714Z" fill="#592F05" />
		<path d="M437.466 694.678H0.359985V695.642H437.466V694.678Z" fill="#5A3005" />
		<path d="M437.466 695.643H0.359985V696.607H437.466V695.643Z" fill="#5B3105" />
		<path d="M437.466 696.607H0.359985V697.571H437.466V696.607Z" fill="#5C3106" />
		<path d="M437.466 697.571H0.359985V698.535H437.466V697.571Z" fill="#5D3206" />
		<path d="M437.466 698.536H0.359985V699.5H437.466V698.536Z" fill="#5E3306" />
		<path d="M437.466 699.5H0.359985V700.464H437.466V699.5Z" fill="#5F3306" />
		<path d="M437.466 700.464H0.359985V701.428H437.466V700.464Z" fill="#603406" />
		<path d="M437.466 701.429H0.359985V702.393H437.466V701.429Z" fill="#613507" />
		<path d="M437.466 702.393H0.359985V703.357H437.466V702.393Z" fill="#623507" />
		<path d="M437.466 703.357H0.359985V704.321H437.466V703.357Z" fill="#633607" />
		<path d="M437.466 704.322H0.359985V705.286H437.466V704.322Z" fill="#643707" />
		<path d="M437.466 705.286H0.359985V706.25H437.466V705.286Z" fill="#653707" />
		<path d="M437.466 706.25H0.359985V707.214H437.466V706.25Z" fill="#663808" />
		<path d="M437.466 707.215H0.359985V708.179H437.466V707.215Z" fill="#673908" />
		<path d="M437.466 708.179H0.359985V709.143H437.466V708.179Z" fill="#683908" />
		<path d="M437.466 709.144H0.359985V710.108H437.466V709.144Z" fill="#693A08" />
		<path d="M437.466 710.108H0.359985V711.072H437.466V710.108Z" fill="#6A3B08" />
		<path d="M437.466 711.072H0.359985V712.036H437.466V711.072Z" fill="#6B3B08" />
		<path d="M437.466 712.037H0.359985V713.001H437.466V712.037Z" fill="#6C3C09" />
		<path d="M437.466 713.001H0.359985V713.965H437.466V713.001Z" fill="#6D3D09" />
		<path d="M437.466 713.965H0.359985V714.929H437.466V713.965Z" fill="#6E3D09" />
		<path d="M437.466 714.93H0.359985V715.894H437.466V714.93Z" fill="#6F3E09" />
		<path d="M437.466 715.894H0.359985V716.858H437.466V715.894Z" fill="#703F09" />
		<path d="M437.466 716.858H0.359985V717.822H437.466V716.858Z" fill="#713F0A" />
		<path d="M437.466 717.823H0.359985V718.787H437.466V717.823Z" fill="#72400A" />
		<path d="M437.466 718.787H0.359985V719.751H437.466V718.787Z" fill="#74410A" />
		<path d="M437.466 719.751H0.359985V720.715H437.466V719.751Z" fill="#75410A" />
		<path d="M437.466 720.716H0.359985V721.68H437.466V720.716Z" fill="#76420A" />
		<path d="M437.466 721.68H0.359985V722.644H437.466V721.68Z" fill="#77420B" />
		<path d="M437.466 722.645H0.359985V723.609H437.466V722.645Z" fill="#78430B" />
		<path d="M437.466 723.609H0.359985V724.573H437.466V723.609Z" fill="#79440B" />
		<path d="M437.466 724.573H0.359985V725.537H437.466V724.573Z" fill="#7A440B" />
		<path d="M437.466 725.538H0.359985V726.502H437.466V725.538Z" fill="#7B450B" />
		<path d="M437.466 726.502H0.359985V727.466H437.466V726.502Z" fill="#7C460C" />
		<path d="M437.466 727.466H0.359985V728.43H437.466V727.466Z" fill="#7D460C" />
		<path d="M437.466 728.431H0.359985V729.395H437.466V728.431Z" fill="#7E470C" />
		<path d="M437.466 729.395H0.359985V730.359H437.466V729.395Z" fill="#7F480C" />
		<path d="M437.466 730.359H0.359985V731.323H437.466V730.359Z" fill="#80480C" />
		<path d="M437.466 731.324H0.359985V732.288H437.466V731.324Z" fill="#81490D" />
		<path d="M437.466 732.288H0.359985V733.252H437.466V732.288Z" fill="#824A0D" />
		<path d="M437.466 733.252H0.359985V734.216H437.466V733.252Z" fill="#834A0D" />
		<path d="M437.466 734.217H0.359985V735.181H437.466V734.217Z" fill="#844B0D" />
		<path d="M437.466 735.181H0.359985V736.145H437.466V735.181Z" fill="#854C0D" />
		<path d="M437.466 736.146H0.359985V737.11H437.466V736.146Z" fill="#864C0D" />
		<path d="M437.466 737.11H0.359985V738.074H437.466V737.11Z" fill="#874D0E" />
		<path d="M437.466 738.074H0.359985V739.038H437.466V738.074Z" fill="#884E0E" />
		<path d="M437.466 739.039H0.359985V740.003H437.466V739.039Z" fill="#894E0E" />
		<path d="M437.466 740.003H0.359985V740.967H437.466V740.003Z" fill="#8A4F0E" />
		<path d="M437.466 740.967H0.359985V741.931H437.466V740.967Z" fill="#8B500E" />
		<path d="M437.466 741.932H0.359985V742.896H437.466V741.932Z" fill="#8C500F" />
		<path d="M437.466 742.896H0.359985V743.86H437.466V742.896Z" fill="#8D510F" />
		<path d="M437.466 743.86H0.359985V744.824H437.466V743.86Z" fill="#8E520F" />
		<path d="M437.466 744.825H0.359985V745.789H437.466V744.825Z" fill="#8F520F" />
		<path d="M437.466 745.789H0.359985V746.753H437.466V745.789Z" fill="#90530F" />
		<path d="M437.466 746.753H0.359985V747.717H437.466V746.753Z" fill="#915410" />
		<path d="M437.466 747.718H0.359985V748.682H437.466V747.718Z" fill="#925410" />
		<path d="M437.466 748.682H0.359985V749.646H437.466V748.682Z" fill="#935510" />
		<path d="M437.466 749.646H0.359985V750.61H437.466V749.646Z" fill="#945610" />
		<path d="M437.466 750.611H0.359985V751.575H437.466V750.611Z" fill="#955610" />
		<path d="M437.466 751.575H0.359985V752.539H437.466V751.575Z" fill="#965711" />
		<path d="M437.466 752.54H0.359985V753.504H437.466V752.54Z" fill="#975811" />
		<path d="M437.466 753.504H0.359985V754.468H437.466V753.504Z" fill="#985811" />
		<path d="M437.466 754.468H0.359985V755.432H437.466V754.468Z" fill="#995911" />
		<path d="M437.466 755.433H0.359985V756.397H437.466V755.433Z" fill="#9A5A11" />
		<path d="M437.466 756.397H0.359985V757.361H437.466V756.397Z" fill="#9B5A12" />
		<path d="M437.466 757.361H0.359985V758.325H437.466V757.361Z" fill="#9C5B12" />
		<path d="M437.466 758.326H0.359985V759.29H437.466V758.326Z" fill="#9D5C12" />
		<path d="M437.466 759.29H0.359985V760.254H437.466V759.29Z" fill="#9E5C12" />
		<path d="M437.466 760.254H0.359985V761.218H437.466V760.254Z" fill="#9F5D12" />
		<path d="M437.466 761.219H0.359985V762.183H437.466V761.219Z" fill="#A05E12" />
		<path d="M437.466 762.183H0.359985V763.147H437.466V762.183Z" fill="#A15E13" />
		<path d="M437.466 763.147H0.359985V764.111H437.466V763.147Z" fill="#A25F13" />
		<path d="M437.466 764.112H0.359985V765.076H437.466V764.112Z" fill="#A36013" />
		<path d="M437.466 765.076H0.359985V766.04H437.466V765.076Z" fill="#A46013" />
		<path d="M437.466 766.041H0.359985V767.005H437.466V766.041Z" fill="#A56113" />
		<path d="M437.466 767.005H0.359985V767.969H437.466V767.005Z" fill="#A66214" />
		<path d="M437.466 767.969H0.359985V768.933H437.466V767.969Z" fill="#A76214" />
		<path d="M437.466 768.934H0.359985V769.898H437.466V768.934Z" fill="#A86314" />
		<path d="M437.466 769.898H0.359985V783.5H437.466V769.898Z" fill="#A86314" />
	</g>
</svg>
