<svg width="441" height="784" viewBox="0 0 441 784" fill="none" xmlns="http://www.w3.org/2000/svg">
	<mask id="mask0_1_25597" style="mask-type:luminance" maskUnits="userSpaceOnUse" x="0" y="0" width="441" height="784">
		<path d="M440.938 783.5H0.828735V780.5H437.935V3.64307H63.1491V0.643066H440.938V783.5Z" fill="white" />
	</mask>
	<g mask="url(#mask0_1_25597)">
		<path d="M440.938 0.643066H0.828735V2.20707H440.938V0.643066Z" fill="#8C5110" />
		<path d="M440.938 2.20703H0.828735V3.77103H440.938V2.20703Z" fill="#8D5211" />
		<path d="M440.938 3.771H0.828735V5.335H440.938V3.771Z" fill="#8E5311" />
		<path d="M440.938 5.33398H0.828735V6.89798H440.938V5.33398Z" fill="#8F5412" />
		<path d="M440.938 6.89795H0.828735V8.46195H440.938V6.89795Z" fill="#905512" />
		<path d="M440.938 8.46191H0.828735V10.0259H440.938V8.46191Z" fill="#915613" />
		<path d="M440.938 10.0259H0.828735V11.5899H440.938V10.0259Z" fill="#925713" />
		<path d="M440.938 11.5898H0.828735V13.1538H440.938V11.5898Z" fill="#935814" />
		<path d="M440.938 13.1538H0.828735V14.7178H440.938V13.1538Z" fill="#945914" />
		<path d="M440.938 14.7168H0.828735V16.2808H440.938V14.7168Z" fill="#955A15" />
		<path d="M440.938 16.2808H0.828735V17.8448H440.938V16.2808Z" fill="#965B15" />
		<path d="M440.938 17.8452H0.828735V19.4092H440.938V17.8452Z" fill="#975C16" />
		<path d="M440.938 19.4092H0.828735V20.9732H440.938V19.4092Z" fill="#985D16" />
		<path d="M440.938 20.9731H0.828735V22.5371H440.938V20.9731Z" fill="#995E17" />
		<path d="M440.938 22.5371H0.828735V24.1011H440.938V22.5371Z" fill="#9A5F17" />
		<path d="M440.938 24.1011H0.828735V25.6651H440.938V24.1011Z" fill="#9B5F18" />
		<path d="M440.938 25.665H0.828735V27.229H440.938V25.665Z" fill="#9C6018" />
		<path d="M440.938 27.229H0.828735V28.793H440.938V27.229Z" fill="#9D6119" />
		<path d="M440.938 28.792H0.828735V30.356H440.938V28.792Z" fill="#9E6219" />
		<path d="M440.938 30.356H0.828735V31.92H440.938V30.356Z" fill="#9F631A" />
		<path d="M440.938 31.9199H0.828735V33.4839H440.938V31.9199Z" fill="#A0641A" />
		<path d="M440.938 33.4839H0.828735V35.0479H440.938V33.4839Z" fill="#A1651B" />
		<path d="M440.938 35.0479H0.828735V36.6119H440.938V35.0479Z" fill="#A2661B" />
		<path d="M440.938 36.6118H0.828735V38.1758H440.938V36.6118Z" fill="#A3671C" />
		<path d="M440.938 38.1758H0.828735V39.7398H440.938V38.1758Z" fill="#A4681C" />
		<path d="M440.938 39.7388H0.828735V41.3028H440.938V39.7388Z" fill="#A5691D" />
		<path d="M440.938 41.3032H0.828735V42.8672H440.938V41.3032Z" fill="#A66A1D" />
		<path d="M440.938 42.8672H0.828735V44.4312H440.938V42.8672Z" fill="#A76B1E" />
		<path d="M440.938 44.4312H0.828735V45.9952H440.938V44.4312Z" fill="#A86C1E" />
		<path d="M440.938 45.9951H0.828735V47.5591H440.938V45.9951Z" fill="#A96D1F" />
		<path d="M440.938 47.5591H0.828735V49.1231H440.938V47.5591Z" fill="#AA6E1F" />
		<path d="M440.938 49.123H0.828735V50.687H440.938V49.123Z" fill="#AB6F20" />
		<path d="M440.938 50.687H0.828735V52.251H440.938V50.687Z" fill="#AC7020" />
		<path d="M440.938 52.25H0.828735V53.814H440.938V52.25Z" fill="#AD7121" />
		<path d="M440.938 53.814H0.828735V55.378H440.938V53.814Z" fill="#AE7221" />
		<path d="M440.938 55.3779H0.828735V56.9419H440.938V55.3779Z" fill="#AF7322" />
		<path d="M440.938 56.9419H0.828735V58.5059H440.938V56.9419Z" fill="#B07422" />
		<path d="M440.938 58.5059H0.828735V60.0699H440.938V58.5059Z" fill="#B17523" />
		<path d="M440.938 60.0698H0.828735V61.6338H440.938V60.0698Z" fill="#B27623" />
		<path d="M440.938 61.6338H0.828735V63.1978H440.938V61.6338Z" fill="#B37724" />
		<path d="M440.938 63.1982H0.828735V64.7622H440.938V63.1982Z" fill="#B47824" />
		<path d="M440.938 64.7622H0.828735V66.3262H440.938V64.7622Z" fill="#B57925" />
		<path d="M440.938 66.3252H0.828735V67.8892H440.938V66.3252Z" fill="#B67A25" />
		<path d="M440.938 67.8892H0.828735V69.4532H440.938V67.8892Z" fill="#B77A26" />
		<path d="M440.938 69.4531H0.828735V71.0171H440.938V69.4531Z" fill="#B87B26" />
		<path d="M440.938 71.0171H0.828735V72.5811H440.938V71.0171Z" fill="#B97C27" />
		<path d="M440.938 72.5811H0.828735V74.1451H440.938V72.5811Z" fill="#BA7D27" />
		<path d="M440.938 74.145H0.828735V75.709H440.938V74.145Z" fill="#BB7E28" />
		<path d="M440.938 75.708H0.828735V77.272H440.938V75.708Z" fill="#BC7F28" />
		<path d="M440.938 77.272H0.828735V78.836H440.938V77.272Z" fill="#BD8029" />
		<path d="M440.938 78.8359H0.828735V80.3999H440.938V78.8359Z" fill="#BE8129" />
		<path d="M440.938 80.3999H0.828735V81.9639H440.938V80.3999Z" fill="#BF822A" />
		<path d="M440.938 81.9639H0.828735V83.5279H440.938V81.9639Z" fill="#C0832A" />
		<path d="M440.938 83.5278H0.828735V85.0918H440.938V83.5278Z" fill="#C1842B" />
		<path d="M440.938 85.0918H0.828735V86.6558H440.938V85.0918Z" fill="#C2852B" />
		<path d="M440.938 86.6558H0.828735V88.2198H440.938V86.6558Z" fill="#C3862C" />
		<path d="M440.938 88.2202H0.828735V89.7842H440.938V88.2202Z" fill="#C4872C" />
		<path d="M440.938 89.7842H0.828735V91.3482H440.938V89.7842Z" fill="#C6882D" />
		<path d="M440.938 91.3481H0.828735V92.9121H440.938V91.3481Z" fill="#C7892E" />
		<path d="M440.938 92.9111H0.828735V94.4751H440.938V92.9111Z" fill="#C88A2E" />
		<path d="M440.938 94.4751H0.828735V96.0391H440.938V94.4751Z" fill="#C98B2F" />
		<path d="M440.938 96.0391H0.828735V97.6031H440.938V96.0391Z" fill="#CA8C2F" />
		<path d="M440.938 97.603H0.828735V99.167H440.938V97.603Z" fill="#CB8D30" />
		<path d="M440.938 99.167H0.828735V100.731H440.938V99.167Z" fill="#CC8E30" />
		<path d="M440.938 100.73H0.828735V102.294H440.938V100.73Z" fill="#CD8F31" />
		<path d="M440.938 102.294H0.828735V103.858H440.938V102.294Z" fill="#CE9031" />
		<path d="M440.938 103.858H0.828735V105.422H440.938V103.858Z" fill="#CF9132" />
		<path d="M440.938 105.422H0.828735V106.986H440.938V105.422Z" fill="#D09232" />
		<path d="M440.938 106.986H0.828735V108.55H440.938V106.986Z" fill="#D19333" />
		<path d="M440.938 108.55H0.828735V110.114H440.938V108.55Z" fill="#D29433" />
		<path d="M440.938 110.114H0.828735V111.678H440.938V110.114Z" fill="#D39534" />
		<path d="M440.938 111.678H0.828735V113.242H440.938V111.678Z" fill="#D49634" />
		<path d="M440.938 113.242H0.828735V114.806H440.938V113.242Z" fill="#D59635" />
		<path d="M440.938 114.806H0.828735V116.37H440.938V114.806Z" fill="#D69735" />
		<path d="M440.938 116.37H0.828735V117.934H440.938V116.37Z" fill="#D79836" />
		<path d="M440.938 117.933H0.828735V119.497H440.938V117.933Z" fill="#D89936" />
		<path d="M440.938 119.497H0.828735V121.061H440.938V119.497Z" fill="#D99A37" />
		<path d="M440.938 121.061H0.828735V122.625H440.938V121.061Z" fill="#DA9B37" />
		<path d="M440.938 122.625H0.828735V124.189H440.938V122.625Z" fill="#DB9C38" />
		<path d="M440.938 124.189H0.828735V125.753H440.938V124.189Z" fill="#DC9D38" />
		<path d="M440.938 125.753H0.828735V127.317H440.938V125.753Z" fill="#DD9E39" />
		<path d="M440.938 127.316H0.828735V128.88H440.938V127.316Z" fill="#DE9F39" />
		<path d="M440.938 128.88H0.828735V130.444H440.938V128.88Z" fill="#DFA03A" />
		<path d="M440.938 130.444H0.828735V132.008H440.938V130.444Z" fill="#E0A13A" />
		<path d="M440.938 132.008H0.828735V133.572H440.938V132.008Z" fill="#E1A23B" />
		<path d="M440.938 133.572H0.828735V135.136H440.938V133.572Z" fill="#E2A33B" />
		<path d="M440.938 135.136H0.828735V136.7H440.938V135.136Z" fill="#E3A43C" />
		<path d="M440.938 136.7H0.828735V138.264H440.938V136.7Z" fill="#E4A53C" />
		<path d="M440.938 138.264H0.828735V139.828H440.938V138.264Z" fill="#E5A63D" />
		<path d="M440.938 139.828H0.828735V141.392H440.938V139.828Z" fill="#E6A73D" />
		<path d="M440.938 141.392H0.828735V142.956H440.938V141.392Z" fill="#E7A83E" />
		<path d="M440.938 142.956H0.828735V144.52H440.938V142.956Z" fill="#E8A93E" />
		<path d="M440.938 144.519H0.828735V146.083H440.938V144.519Z" fill="#E9AA3F" />
		<path d="M440.938 146.083H0.828735V147.647H440.938V146.083Z" fill="#EAAB3F" />
		<path d="M440.938 147.647H0.828735V149.211H440.938V147.647Z" fill="#EBAC40" />
		<path d="M440.938 149.211H0.828735V150.775H440.938V149.211Z" fill="#ECAD40" />
		<path d="M440.938 150.775H0.828735V152.339H440.938V150.775Z" fill="#EDAE41" />
		<path d="M440.938 152.339H0.828735V153.903H440.938V152.339Z" fill="#EEAF41" />
		<path d="M440.938 153.902H0.828735V155.466H440.938V153.902Z" fill="#EFB042" />
		<path d="M440.938 155.466H0.828735V157.03H440.938V155.466Z" fill="#F0B142" />
		<path d="M440.938 157.03H0.828735V158.594H440.938V157.03Z" fill="#F1B143" />
		<path d="M440.938 158.594H0.828735V160.158H440.938V158.594Z" fill="#F2B243" />
		<path d="M440.938 160.158H0.828735V161.722H440.938V160.158Z" fill="#F3B344" />
		<path d="M440.938 161.722H0.828735V163.286H440.938V161.722Z" fill="#F4B444" />
		<path d="M440.938 163.286H0.828735V164.85H440.938V163.286Z" fill="#F5B545" />
		<path d="M440.938 164.85H0.828735V166.414H440.938V164.85Z" fill="#F6B645" />
		<path d="M440.938 166.414H0.828735V167.978H440.938V166.414Z" fill="#F7B746" />
		<path d="M440.938 167.978H0.828735V169.542H440.938V167.978Z" fill="#F8B846" />
		<path d="M440.938 169.542H0.828735V171.106H440.938V169.542Z" fill="#F9B947" />
		<path d="M440.938 171.105H0.828735V172.669H440.938V171.105Z" fill="#FABA47" />
		<path d="M440.938 172.669H0.828735V174.233H440.938V172.669Z" fill="#FBBB48" />
		<path d="M440.938 174.233H0.828735V175.797H440.938V174.233Z" fill="#FCBC48" />
		<path d="M440.938 175.797H0.828735V177.361H440.938V175.797Z" fill="#FDBD49" />
		<path d="M440.938 177.361H0.828735V178.925H440.938V177.361Z" fill="#FEBE49" />
		<path d="M440.938 178.924H0.828735V180.488H440.938V178.924Z" fill="#FFBF4A" />
		<path d="M440.938 180.488H0.828735V182.284H440.938V180.488Z" fill="#FFBF4A" />
		<path d="M440.938 182.284H0.828735V184.08H440.938V182.284Z" fill="#FEBE49" />
		<path d="M440.938 184.08H0.828735V185.876H440.938V184.08Z" fill="#FDBD49" />
		<path d="M440.938 185.875H0.828735V187.671H440.938V185.875Z" fill="#FCBC48" />
		<path d="M440.938 187.671H0.828735V189.467H440.938V187.671Z" fill="#FBBB48" />
		<path d="M440.938 189.466H0.828735V191.262H440.938V189.466Z" fill="#FABA47" />
		<path d="M440.938 191.262H0.828735V193.058H440.938V191.262Z" fill="#F9B947" />
		<path d="M440.938 193.058H0.828735V194.854H440.938V193.058Z" fill="#F8B846" />
		<path d="M440.938 194.854H0.828735V196.65H440.938V194.854Z" fill="#F7B746" />
		<path d="M440.938 196.649H0.828735V198.445H440.938V196.649Z" fill="#F6B645" />
		<path d="M440.938 198.444H0.828735V200.24H440.938V198.444Z" fill="#F5B544" />
		<path d="M440.938 200.24H0.828735V202.036H440.938V200.24Z" fill="#F4B444" />
		<path d="M440.938 202.036H0.828735V203.832H440.938V202.036Z" fill="#F3B343" />
		<path d="M440.938 203.832H0.828735V205.628H440.938V203.832Z" fill="#F2B243" />
		<path d="M440.938 205.627H0.828735V207.423H440.938V205.627Z" fill="#F1B142" />
		<path d="M440.938 207.422H0.828735V209.218H440.938V207.422Z" fill="#F0B042" />
		<path d="M440.938 209.218H0.828735V211.014H440.938V209.218Z" fill="#EFAF41" />
		<path d="M440.938 211.014H0.828735V212.81H440.938V211.014Z" fill="#EEAE40" />
		<path d="M440.938 212.81H0.828735V214.606H440.938V212.81Z" fill="#EDAD40" />
		<path d="M440.938 214.605H0.828735V216.401H440.938V214.605Z" fill="#ECAC3F" />
		<path d="M440.938 216.401H0.828735V218.197H440.938V216.401Z" fill="#EBAB3F" />
		<path d="M440.938 218.196H0.828735V219.992H440.938V218.196Z" fill="#EAAA3E" />
		<path d="M440.938 219.992H0.828735V221.788H440.938V219.992Z" fill="#E9A93E" />
		<path d="M440.938 221.788H0.828735V223.584H440.938V221.788Z" fill="#E8A83D" />
		<path d="M440.938 223.583H0.828735V225.379H440.938V223.583Z" fill="#E7A73D" />
		<path d="M440.938 225.379H0.828735V227.175H440.938V225.379Z" fill="#E6A63C" />
		<path d="M440.938 227.174H0.828735V228.97H440.938V227.174Z" fill="#E5A53B" />
		<path d="M440.938 228.97H0.828735V230.766H440.938V228.97Z" fill="#E4A43B" />
		<path d="M440.938 230.766H0.828735V232.562H440.938V230.766Z" fill="#E3A33A" />
		<path d="M440.938 232.561H0.828735V234.357H440.938V232.561Z" fill="#E2A23A" />
		<path d="M440.938 234.357H0.828735V236.153H440.938V234.357Z" fill="#E1A139" />
		<path d="M440.938 236.152H0.828735V237.948H440.938V236.152Z" fill="#E0A039" />
		<path d="M440.938 237.948H0.828735V239.744H440.938V237.948Z" fill="#DF9F38" />
		<path d="M440.938 239.744H0.828735V241.54H440.938V239.744Z" fill="#DE9E38" />
		<path d="M440.938 241.539H0.828735V243.335H440.938V241.539Z" fill="#DD9D37" />
		<path d="M440.938 243.335H0.828735V245.131H440.938V243.335Z" fill="#DC9C36" />
		<path d="M440.938 245.13H0.828735V246.926H440.938V245.13Z" fill="#DB9B36" />
		<path d="M440.938 246.926H0.828735V248.722H440.938V246.926Z" fill="#DA9A35" />
		<path d="M440.938 248.722H0.828735V250.518H440.938V248.722Z" fill="#D99935" />
		<path d="M440.938 250.517H0.828735V252.313H440.938V250.517Z" fill="#D89834" />
		<path d="M440.938 252.313H0.828735V254.109H440.938V252.313Z" fill="#D79734" />
		<path d="M440.938 254.108H0.828735V255.904H440.938V254.108Z" fill="#D69633" />
		<path d="M440.938 255.904H0.828735V257.7H440.938V255.904Z" fill="#D59532" />
		<path d="M440.938 257.7H0.828735V259.496H440.938V257.7Z" fill="#D49432" />
		<path d="M440.938 259.495H0.828735V261.291H440.938V259.495Z" fill="#D39331" />
		<path d="M440.938 261.291H0.828735V263.087H440.938V261.291Z" fill="#D29231" />
		<path d="M440.938 263.086H0.828735V264.882H440.938V263.086Z" fill="#D19130" />
		<path d="M440.938 264.882H0.828735V266.678H440.938V264.882Z" fill="#D09030" />
		<path d="M440.938 266.678H0.828735V268.474H440.938V266.678Z" fill="#CF8F2F" />
		<path d="M440.938 268.473H0.828735V270.269H440.938V268.473Z" fill="#CE8E2F" />
		<path d="M440.938 270.269H0.828735V272.065H440.938V270.269Z" fill="#CD8D2E" />
		<path d="M440.938 272.064H0.828735V273.86H440.938V272.064Z" fill="#CB8B2D" />
		<path d="M440.938 273.86H0.828735V275.656H440.938V273.86Z" fill="#CA8A2D" />
		<path d="M440.938 275.656H0.828735V277.452H440.938V275.656Z" fill="#C9892C" />
		<path d="M440.938 277.452H0.828735V279.248H440.938V277.452Z" fill="#C8882C" />
		<path d="M440.938 279.247H0.828735V281.043H440.938V279.247Z" fill="#C7872B" />
		<path d="M440.938 281.042H0.828735V282.838H440.938V281.042Z" fill="#C6862B" />
		<path d="M440.938 282.838H0.828735V284.634H440.938V282.838Z" fill="#C5852A" />
		<path d="M440.938 284.634H0.828735V286.43H440.938V284.634Z" fill="#C4842A" />
		<path d="M440.938 286.43H0.828735V288.226H440.938V286.43Z" fill="#C38329" />
		<path d="M440.938 288.225H0.828735V290.021H440.938V288.225Z" fill="#C28228" />
		<path d="M440.938 290.021H0.828735V291.817H440.938V290.021Z" fill="#C18128" />
		<path d="M440.938 291.816H0.828735V293.612H440.938V291.816Z" fill="#C08027" />
		<path d="M440.938 293.612H0.828735V295.408H440.938V293.612Z" fill="#BF7F27" />
		<path d="M440.938 295.408H0.828735V297.204H440.938V295.408Z" fill="#BE7E26" />
		<path d="M440.938 297.203H0.828735V298.999H440.938V297.203Z" fill="#BD7D26" />
		<path d="M440.938 298.999H0.828735V300.795H440.938V298.999Z" fill="#BC7C25" />
		<path d="M440.938 300.794H0.828735V302.59H440.938V300.794Z" fill="#BB7B24" />
		<path d="M440.938 302.59H0.828735V304.386H440.938V302.59Z" fill="#BA7A24" />
		<path d="M440.938 304.386H0.828735V306.182H440.938V304.386Z" fill="#B97923" />
		<path d="M440.938 306.181H0.828735V307.977H440.938V306.181Z" fill="#B87823" />
		<path d="M440.938 307.977H0.828735V309.773H440.938V307.977Z" fill="#B77722" />
		<path d="M440.938 309.772H0.828735V311.568H440.938V309.772Z" fill="#B67622" />
		<path d="M440.938 311.568H0.828735V313.364H440.938V311.568Z" fill="#B57521" />
		<path d="M440.938 313.364H0.828735V315.16H440.938V313.364Z" fill="#B47421" />
		<path d="M440.938 315.159H0.828735V316.955H440.938V315.159Z" fill="#B37320" />
		<path d="M440.938 316.955H0.828735V318.751H440.938V316.955Z" fill="#B2721F" />
		<path d="M440.938 318.75H0.828735V320.546H440.938V318.75Z" fill="#B1711F" />
		<path d="M440.938 320.546H0.828735V322.342H440.938V320.546Z" fill="#B0701E" />
		<path d="M440.938 322.342H0.828735V324.138H440.938V322.342Z" fill="#AF6F1E" />
		<path d="M440.938 324.137H0.828735V325.933H440.938V324.137Z" fill="#AE6E1D" />
		<path d="M440.938 325.933H0.828735V327.729H440.938V325.933Z" fill="#AD6D1D" />
		<path d="M440.938 327.729H0.828735V329.525H440.938V327.729Z" fill="#AC6C1C" />
		<path d="M440.938 329.524H0.828735V331.32H440.938V329.524Z" fill="#AB6B1C" />
		<path d="M440.938 331.32H0.828735V333.116H440.938V331.32Z" fill="#AA6A1B" />
		<path d="M440.938 333.115H0.828735V334.911H440.938V333.115Z" fill="#A9691A" />
		<path d="M440.938 334.911H0.828735V336.707H440.938V334.911Z" fill="#A8681A" />
		<path d="M440.938 336.707H0.828735V338.503H440.938V336.707Z" fill="#A76719" />
		<path d="M440.938 338.502H0.828735V340.298H440.938V338.502Z" fill="#A66619" />
		<path d="M440.938 340.298H0.828735V342.094H440.938V340.298Z" fill="#A56518" />
		<path d="M440.938 342.093H0.828735V343.889H440.938V342.093Z" fill="#A46418" />
		<path d="M440.938 343.889H0.828735V345.685H440.938V343.889Z" fill="#A36317" />
		<path d="M440.938 345.685H0.828735V347.481H440.938V345.685Z" fill="#A26216" />
		<path d="M440.938 347.48H0.828735V349.276H440.938V347.48Z" fill="#A16116" />
		<path d="M440.938 349.276H0.828735V351.072H440.938V349.276Z" fill="#A06015" />
		<path d="M440.938 351.071H0.828735V352.867H440.938V351.071Z" fill="#9F5F15" />
		<path d="M440.938 352.867H0.828735V354.663H440.938V352.867Z" fill="#9E5E14" />
		<path d="M440.938 354.663H0.828735V356.459H440.938V354.663Z" fill="#9D5D14" />
		<path d="M440.938 356.458H0.828735V358.254H440.938V356.458Z" fill="#9C5C13" />
		<path d="M440.938 358.254H0.828735V360.05H440.938V358.254Z" fill="#9B5B13" />
		<path d="M440.938 360.049H0.828735V361.845H440.938V360.049Z" fill="#9A5A12" />
		<path d="M440.938 361.845H0.828735V365.216H440.938V361.845Z" fill="#9A5A12" />
		<path d="M440.938 365.216H0.828735V368.587H440.938V365.216Z" fill="#995912" />
		<path d="M440.938 368.588H0.828735V371.959H440.938V368.588Z" fill="#985912" />
		<path d="M440.938 371.959H0.828735V375.33H440.938V371.959Z" fill="#975811" />
		<path d="M440.938 375.331H0.828735V378.702H440.938V375.331Z" fill="#965711" />
		<path d="M440.938 378.702H0.828735V382.073H440.938V378.702Z" fill="#955711" />
		<path d="M440.938 382.073H0.828735V385.444H440.938V382.073Z" fill="#945611" />
		<path d="M440.938 385.445H0.828735V388.816H440.938V385.445Z" fill="#935511" />
		<path d="M440.938 388.816H0.828735V392.187H440.938V388.816Z" fill="#925510" />
		<path d="M440.938 392.188H0.828735V395.559H440.938V392.188Z" fill="#915410" />
		<path d="M440.938 395.559H0.828735V398.93H440.938V395.559Z" fill="#905310" />
		<path d="M440.938 398.93H0.828735V402.301H440.938V398.93Z" fill="#8F5310" />
		<path d="M440.938 402.302H0.828735V405.673H440.938V402.302Z" fill="#8E5210" />
		<path d="M440.938 405.673H0.828735V409.044H440.938V405.673Z" fill="#8D510F" />
		<path d="M440.938 409.044H0.828735V412.415H440.938V409.044Z" fill="#8C510F" />
		<path d="M440.938 412.416H0.828735V415.787H440.938V412.416Z" fill="#8B500F" />
		<path d="M440.938 415.787H0.828735V419.158H440.938V415.787Z" fill="#8A4F0F" />
		<path d="M440.938 419.159H0.828735V422.53H440.938V419.159Z" fill="#894F0F" />
		<path d="M440.938 422.53H0.828735V425.901H440.938V422.53Z" fill="#884E0E" />
		<path d="M440.938 425.901H0.828735V429.272H440.938V425.901Z" fill="#874D0E" />
		<path d="M440.938 429.273H0.828735V432.644H440.938V429.273Z" fill="#864D0E" />
		<path d="M440.938 432.644H0.828735V436.015H440.938V432.644Z" fill="#854C0E" />
		<path d="M440.938 436.016H0.828735V439.387H440.938V436.016Z" fill="#844B0E" />
		<path d="M440.938 439.387H0.828735V442.758H440.938V439.387Z" fill="#834B0D" />
		<path d="M440.938 442.758H0.828735V446.129H440.938V442.758Z" fill="#824A0D" />
		<path d="M440.938 446.13H0.828735V449.501H440.938V446.13Z" fill="#81490D" />
		<path d="M440.938 449.501H0.828735V452.872H440.938V449.501Z" fill="#80490D" />
		<path d="M440.938 452.873H0.828735V456.244H440.938V452.873Z" fill="#7F480D" />
		<path d="M440.938 456.244H0.828735V459.615H440.938V456.244Z" fill="#7E470C" />
		<path d="M440.938 459.615H0.828735V462.986H440.938V459.615Z" fill="#7D470C" />
		<path d="M440.938 462.986H0.828735V466.357H440.938V462.986Z" fill="#7C460C" />
		<path d="M440.938 466.358H0.828735V469.729H440.938V466.358Z" fill="#7B450C" />
		<path d="M440.938 469.729H0.828735V473.1H440.938V469.729Z" fill="#7A450C" />
		<path d="M440.938 473.101H0.828735V476.472H440.938V473.101Z" fill="#79440B" />
		<path d="M440.938 476.472H0.828735V479.843H440.938V476.472Z" fill="#78430B" />
		<path d="M440.938 479.843H0.828735V483.214H440.938V479.843Z" fill="#77430B" />
		<path d="M440.938 483.215H0.828735V486.586H440.938V483.215Z" fill="#76420B" />
		<path d="M440.938 486.586H0.828735V489.957H440.938V486.586Z" fill="#75410B" />
		<path d="M440.938 489.958H0.828735V493.329H440.938V489.958Z" fill="#74410A" />
		<path d="M440.938 493.329H0.828735V496.7H440.938V493.329Z" fill="#73400A" />
		<path d="M440.938 496.7H0.828735V500.071H440.938V496.7Z" fill="#723F0A" />
		<path d="M440.938 500.072H0.828735V503.443H440.938V500.072Z" fill="#713F0A" />
		<path d="M440.938 503.443H0.828735V506.814H440.938V503.443Z" fill="#703E0A" />
		<path d="M440.938 506.814H0.828735V510.185H440.938V506.814Z" fill="#6F3D09" />
		<path d="M440.938 510.186H0.828735V513.557H440.938V510.186Z" fill="#6E3D09" />
		<path d="M440.938 513.557H0.828735V516.928H440.938V513.557Z" fill="#6D3C09" />
		<path d="M440.938 516.929H0.828735V520.3H440.938V516.929Z" fill="#6B3B09" />
		<path d="M440.938 520.3H0.828735V523.671H440.938V520.3Z" fill="#6A3B09" />
		<path d="M440.938 523.671H0.828735V527.042H440.938V523.671Z" fill="#693A08" />
		<path d="M440.938 527.043H0.828735V530.414H440.938V527.043Z" fill="#683908" />
		<path d="M440.938 530.414H0.828735V533.785H440.938V530.414Z" fill="#673908" />
		<path d="M440.938 533.786H0.828735V537.157H440.938V533.786Z" fill="#663808" />
		<path d="M440.938 537.157H0.828735V540.528H440.938V537.157Z" fill="#653708" />
		<path d="M440.938 540.528H0.828735V543.899H440.938V540.528Z" fill="#643707" />
		<path d="M440.938 543.9H0.828735V547.271H440.938V543.9Z" fill="#633607" />
		<path d="M440.938 547.271H0.828735V550.642H440.938V547.271Z" fill="#623507" />
		<path d="M440.938 550.643H0.828735V554.014H440.938V550.643Z" fill="#613507" />
		<path d="M440.938 554.014H0.828735V557.385H440.938V554.014Z" fill="#603407" />
		<path d="M440.938 557.385H0.828735V560.756H440.938V557.385Z" fill="#5F3306" />
		<path d="M440.938 560.756H0.828735V564.127H440.938V560.756Z" fill="#5E3306" />
		<path d="M440.938 564.128H0.828735V567.499H440.938V564.128Z" fill="#5D3206" />
		<path d="M440.938 567.5H0.828735V570.871H440.938V567.5Z" fill="#5C3106" />
		<path d="M440.938 570.871H0.828735V574.242H440.938V570.871Z" fill="#5B3106" />
		<path d="M440.938 574.242H0.828735V577.613H440.938V574.242Z" fill="#5A3005" />
		<path d="M440.938 577.613H0.828735V580.984H440.938V577.613Z" fill="#592F05" />
		<path d="M440.938 580.985H0.828735V584.356H440.938V580.985Z" fill="#582F05" />
		<path d="M440.938 584.356H0.828735V587.727H440.938V584.356Z" fill="#572E05" />
		<path d="M440.938 587.728H0.828735V591.099H440.938V587.728Z" fill="#562D05" />
		<path d="M440.938 591.099H0.828735V594.47H440.938V591.099Z" fill="#552D04" />
		<path d="M440.938 594.47H0.828735V597.841H440.938V594.47Z" fill="#542C04" />
		<path d="M440.938 597.842H0.828735V601.213H440.938V597.842Z" fill="#532B04" />
		<path d="M440.938 601.213H0.828735V604.584H440.938V601.213Z" fill="#522B04" />
		<path d="M440.938 604.584H0.828735V607.955H440.938V604.584Z" fill="#512A04" />
		<path d="M440.938 607.956H0.828735V611.327H440.938V607.956Z" fill="#502903" />
		<path d="M440.938 611.327H0.828735V614.698H440.938V611.327Z" fill="#4F2903" />
		<path d="M440.938 614.699H0.828735V618.07H440.938V614.699Z" fill="#4E2803" />
		<path d="M440.938 618.07H0.828735V621.441H440.938V618.07Z" fill="#4D2703" />
		<path d="M440.938 621.441H0.828735V624.812H440.938V621.441Z" fill="#4C2703" />
		<path d="M440.938 624.813H0.828735V628.184H440.938V624.813Z" fill="#4B2602" />
		<path d="M440.938 628.184H0.828735V631.555H440.938V628.184Z" fill="#4A2502" />
		<path d="M440.938 631.556H0.828735V634.927H440.938V631.556Z" fill="#492502" />
		<path d="M440.938 634.927H0.828735V638.298H440.938V634.927Z" fill="#482402" />
		<path d="M440.938 638.298H0.828735V641.669H440.938V638.298Z" fill="#472302" />
		<path d="M440.938 641.67H0.828735V645.041H440.938V641.67Z" fill="#462301" />
		<path d="M440.938 645.041H0.828735V648.412H440.938V645.041Z" fill="#452201" />
		<path d="M440.938 648.413H0.828735V651.784H440.938V648.413Z" fill="#442101" />
		<path d="M440.938 651.784H0.828735V655.155H440.938V651.784Z" fill="#432101" />
		<path d="M440.938 655.155H0.828735V658.526H440.938V655.155Z" fill="#422001" />
		<path d="M440.938 658.526H0.828735V661.897H440.938V658.526Z" fill="#411F00" />
		<path d="M440.938 661.898H0.828735V665.269H440.938V661.898Z" fill="#401F00" />
		<path d="M440.938 665.27H0.828735V668.641H440.938V665.27Z" fill="#3F1E00" />
		<path d="M440.938 668.641H0.828735V669.605H440.938V668.641Z" fill="#3F1E00" />
		<path d="M440.938 669.605H0.828735V670.569H440.938V669.605Z" fill="#401F00" />
		<path d="M440.938 670.569H0.828735V671.533H440.938V670.569Z" fill="#411F00" />
		<path d="M440.938 671.534H0.828735V672.498H440.938V671.534Z" fill="#422001" />
		<path d="M440.938 672.498H0.828735V673.462H440.938V672.498Z" fill="#432101" />
		<path d="M440.938 673.462H0.828735V674.426H440.938V673.462Z" fill="#442101" />
		<path d="M440.938 674.427H0.828735V675.391H440.938V674.427Z" fill="#452201" />
		<path d="M440.938 675.391H0.828735V676.355H440.938V675.391Z" fill="#462301" />
		<path d="M440.938 676.355H0.828735V677.319H440.938V676.355Z" fill="#472302" />
		<path d="M440.938 677.32H0.828735V678.284H440.938V677.32Z" fill="#482402" />
		<path d="M440.938 678.284H0.828735V679.248H440.938V678.284Z" fill="#492502" />
		<path d="M440.938 679.249H0.828735V680.213H440.938V679.249Z" fill="#4A2502" />
		<path d="M440.938 680.213H0.828735V681.177H440.938V680.213Z" fill="#4B2602" />
		<path d="M440.938 681.177H0.828735V682.141H440.938V681.177Z" fill="#4C2703" />
		<path d="M440.938 682.142H0.828735V683.106H440.938V682.142Z" fill="#4D2703" />
		<path d="M440.938 683.106H0.828735V684.07H440.938V683.106Z" fill="#4E2803" />
		<path d="M440.938 684.07H0.828735V685.034H440.938V684.07Z" fill="#4F2903" />
		<path d="M440.938 685.035H0.828735V685.999H440.938V685.035Z" fill="#502903" />
		<path d="M440.938 685.999H0.828735V686.963H440.938V685.999Z" fill="#512A03" />
		<path d="M440.938 686.963H0.828735V687.927H440.938V686.963Z" fill="#522B04" />
		<path d="M440.938 687.928H0.828735V688.892H440.938V687.928Z" fill="#532B04" />
		<path d="M440.938 688.892H0.828735V689.856H440.938V688.892Z" fill="#542C04" />
		<path d="M440.938 689.856H0.828735V690.82H440.938V689.856Z" fill="#552D04" />
		<path d="M440.938 690.821H0.828735V691.785H440.938V690.821Z" fill="#562D04" />
		<path d="M440.938 691.785H0.828735V692.749H440.938V691.785Z" fill="#572E05" />
		<path d="M440.938 692.75H0.828735V693.714H440.938V692.75Z" fill="#582F05" />
		<path d="M440.938 693.714H0.828735V694.678H440.938V693.714Z" fill="#592F05" />
		<path d="M440.938 694.678H0.828735V695.642H440.938V694.678Z" fill="#5A3005" />
		<path d="M440.938 695.643H0.828735V696.607H440.938V695.643Z" fill="#5B3105" />
		<path d="M440.938 696.607H0.828735V697.571H440.938V696.607Z" fill="#5C3106" />
		<path d="M440.938 697.571H0.828735V698.535H440.938V697.571Z" fill="#5D3206" />
		<path d="M440.938 698.536H0.828735V699.5H440.938V698.536Z" fill="#5E3306" />
		<path d="M440.938 699.5H0.828735V700.464H440.938V699.5Z" fill="#5F3306" />
		<path d="M440.938 700.464H0.828735V701.428H440.938V700.464Z" fill="#603406" />
		<path d="M440.938 701.429H0.828735V702.393H440.938V701.429Z" fill="#613507" />
		<path d="M440.938 702.393H0.828735V703.357H440.938V702.393Z" fill="#623507" />
		<path d="M440.938 703.357H0.828735V704.321H440.938V703.357Z" fill="#633607" />
		<path d="M440.938 704.322H0.828735V705.286H440.938V704.322Z" fill="#643707" />
		<path d="M440.938 705.286H0.828735V706.25H440.938V705.286Z" fill="#653707" />
		<path d="M440.938 706.25H0.828735V707.214H440.938V706.25Z" fill="#663808" />
		<path d="M440.938 707.215H0.828735V708.179H440.938V707.215Z" fill="#673908" />
		<path d="M440.938 708.179H0.828735V709.143H440.938V708.179Z" fill="#683908" />
		<path d="M440.938 709.144H0.828735V710.108H440.938V709.144Z" fill="#693A08" />
		<path d="M440.938 710.108H0.828735V711.072H440.938V710.108Z" fill="#6A3B08" />
		<path d="M440.938 711.072H0.828735V712.036H440.938V711.072Z" fill="#6B3B08" />
		<path d="M440.938 712.037H0.828735V713.001H440.938V712.037Z" fill="#6C3C09" />
		<path d="M440.938 713.001H0.828735V713.965H440.938V713.001Z" fill="#6D3D09" />
		<path d="M440.938 713.965H0.828735V714.929H440.938V713.965Z" fill="#6E3D09" />
		<path d="M440.938 714.93H0.828735V715.894H440.938V714.93Z" fill="#6F3E09" />
		<path d="M440.938 715.894H0.828735V716.858H440.938V715.894Z" fill="#703F09" />
		<path d="M440.938 716.858H0.828735V717.822H440.938V716.858Z" fill="#713F0A" />
		<path d="M440.938 717.823H0.828735V718.787H440.938V717.823Z" fill="#72400A" />
		<path d="M440.938 718.787H0.828735V719.751H440.938V718.787Z" fill="#74410A" />
		<path d="M440.938 719.751H0.828735V720.715H440.938V719.751Z" fill="#75410A" />
		<path d="M440.938 720.716H0.828735V721.68H440.938V720.716Z" fill="#76420A" />
		<path d="M440.938 721.68H0.828735V722.644H440.938V721.68Z" fill="#77420B" />
		<path d="M440.938 722.645H0.828735V723.609H440.938V722.645Z" fill="#78430B" />
		<path d="M440.938 723.609H0.828735V724.573H440.938V723.609Z" fill="#79440B" />
		<path d="M440.938 724.573H0.828735V725.537H440.938V724.573Z" fill="#7A440B" />
		<path d="M440.938 725.538H0.828735V726.502H440.938V725.538Z" fill="#7B450B" />
		<path d="M440.938 726.502H0.828735V727.466H440.938V726.502Z" fill="#7C460C" />
		<path d="M440.938 727.466H0.828735V728.43H440.938V727.466Z" fill="#7D460C" />
		<path d="M440.938 728.431H0.828735V729.395H440.938V728.431Z" fill="#7E470C" />
		<path d="M440.938 729.395H0.828735V730.359H440.938V729.395Z" fill="#7F480C" />
		<path d="M440.938 730.359H0.828735V731.323H440.938V730.359Z" fill="#80480C" />
		<path d="M440.938 731.324H0.828735V732.288H440.938V731.324Z" fill="#81490D" />
		<path d="M440.938 732.288H0.828735V733.252H440.938V732.288Z" fill="#824A0D" />
		<path d="M440.938 733.252H0.828735V734.216H440.938V733.252Z" fill="#834A0D" />
		<path d="M440.938 734.217H0.828735V735.181H440.938V734.217Z" fill="#844B0D" />
		<path d="M440.938 735.181H0.828735V736.145H440.938V735.181Z" fill="#854C0D" />
		<path d="M440.938 736.146H0.828735V737.11H440.938V736.146Z" fill="#864C0D" />
		<path d="M440.938 737.11H0.828735V738.074H440.938V737.11Z" fill="#874D0E" />
		<path d="M440.938 738.074H0.828735V739.038H440.938V738.074Z" fill="#884E0E" />
		<path d="M440.938 739.039H0.828735V740.003H440.938V739.039Z" fill="#894E0E" />
		<path d="M440.938 740.003H0.828735V740.967H440.938V740.003Z" fill="#8A4F0E" />
		<path d="M440.938 740.967H0.828735V741.931H440.938V740.967Z" fill="#8B500E" />
		<path d="M440.938 741.932H0.828735V742.896H440.938V741.932Z" fill="#8C500F" />
		<path d="M440.938 742.896H0.828735V743.86H440.938V742.896Z" fill="#8D510F" />
		<path d="M440.938 743.86H0.828735V744.824H440.938V743.86Z" fill="#8E520F" />
		<path d="M440.938 744.825H0.828735V745.789H440.938V744.825Z" fill="#8F520F" />
		<path d="M440.938 745.789H0.828735V746.753H440.938V745.789Z" fill="#90530F" />
		<path d="M440.938 746.753H0.828735V747.717H440.938V746.753Z" fill="#915410" />
		<path d="M440.938 747.718H0.828735V748.682H440.938V747.718Z" fill="#925410" />
		<path d="M440.938 748.682H0.828735V749.646H440.938V748.682Z" fill="#935510" />
		<path d="M440.938 749.646H0.828735V750.61H440.938V749.646Z" fill="#945610" />
		<path d="M440.938 750.611H0.828735V751.575H440.938V750.611Z" fill="#955610" />
		<path d="M440.938 751.575H0.828735V752.539H440.938V751.575Z" fill="#965711" />
		<path d="M440.938 752.54H0.828735V753.504H440.938V752.54Z" fill="#975811" />
		<path d="M440.938 753.504H0.828735V754.468H440.938V753.504Z" fill="#985811" />
		<path d="M440.938 754.468H0.828735V755.432H440.938V754.468Z" fill="#995911" />
		<path d="M440.938 755.433H0.828735V756.397H440.938V755.433Z" fill="#9A5A11" />
		<path d="M440.938 756.397H0.828735V757.361H440.938V756.397Z" fill="#9B5A12" />
		<path d="M440.938 757.361H0.828735V758.325H440.938V757.361Z" fill="#9C5B12" />
		<path d="M440.938 758.326H0.828735V759.29H440.938V758.326Z" fill="#9D5C12" />
		<path d="M440.938 759.29H0.828735V760.254H440.938V759.29Z" fill="#9E5C12" />
		<path d="M440.938 760.254H0.828735V761.218H440.938V760.254Z" fill="#9F5D12" />
		<path d="M440.938 761.219H0.828735V762.183H440.938V761.219Z" fill="#A05E12" />
		<path d="M440.938 762.183H0.828735V763.147H440.938V762.183Z" fill="#A15E13" />
		<path d="M440.938 763.147H0.828735V764.111H440.938V763.147Z" fill="#A25F13" />
		<path d="M440.938 764.112H0.828735V765.076H440.938V764.112Z" fill="#A36013" />
		<path d="M440.938 765.076H0.828735V766.04H440.938V765.076Z" fill="#A46013" />
		<path d="M440.938 766.041H0.828735V767.005H440.938V766.041Z" fill="#A56113" />
		<path d="M440.938 767.005H0.828735V767.969H440.938V767.005Z" fill="#A66214" />
		<path d="M440.938 767.969H0.828735V768.933H440.938V767.969Z" fill="#A76214" />
		<path d="M440.938 768.934H0.828735V769.898H440.938V768.934Z" fill="#A86314" />
		<path d="M440.938 769.898H0.828735V783.5H440.938V769.898Z" fill="#A86314" />
	</g>
</svg>
