<svg width="27" height="17" viewBox="0 0 27 17" fill="none" xmlns="http://www.w3.org/2000/svg">
	<path d="M21.1 16.9622C20.9416 16.9598 20.7839 16.9416 20.629 16.9081C20.3753 16.856 20.1178 16.8246 19.859 16.8141C19.4722 16.7325 19.0951 16.6101 18.734 16.4491C18.3498 16.2793 17.9864 16.0659 17.651 15.8131C16.99 15.2269 16.4552 14.5125 16.079 13.7131C15.7011 12.9337 15.5032 12.0793 15.5 11.2131C15.4991 10.6438 15.6039 10.0792 15.809 9.5481C16.0356 8.95721 16.3284 8.39399 16.682 7.86914L22.354 0.308105L24.201 1.6731L21.067 5.91309H23.05C23.2443 6.04371 23.4478 6.16004 23.659 6.26111C23.8022 6.33277 23.9414 6.41226 24.076 6.49915C24.2389 6.6085 24.4078 6.70859 24.582 6.79907C25.2192 7.36749 25.7443 8.05033 26.13 8.81213C26.5174 9.60674 26.7126 10.4812 26.7 11.3651C26.7021 11.9708 26.635 12.5747 26.5 13.1652C26.3644 13.7067 26.1006 14.2077 25.731 14.6261C25.18 15.3652 24.4693 15.9706 23.652 16.3971C22.8572 16.7825 21.9831 16.9761 21.1 16.9622ZM5.59998 16.9622C5.44158 16.9598 5.28386 16.9416 5.12903 16.9081C4.87532 16.856 4.6178 16.8246 4.35901 16.8141C3.97218 16.7325 3.59508 16.6101 3.23401 16.4491C2.84982 16.2793 2.48643 16.0659 2.15101 15.8131C1.49005 15.2269 0.955184 14.5125 0.578986 13.7131C0.201065 12.9337 0.00320754 12.0793 6.08146e-06 11.2131C-0.000919767 10.6438 0.103876 10.0792 0.309027 9.5481C0.535588 8.95721 0.828447 8.39399 1.18201 7.86914L6.85401 0.308105L8.70099 1.6731L5.56702 5.91309H7.54999C7.74428 6.04371 7.94783 6.16004 8.159 6.26111C8.30224 6.33277 8.44144 6.41226 8.57599 6.49915C8.73893 6.6085 8.90785 6.70859 9.08198 6.79907C9.71919 7.36749 10.2443 8.05033 10.63 8.81213C11.0174 9.60674 11.2126 10.4812 11.2 11.3651C11.2021 11.9708 11.135 12.5747 11 13.1652C10.8644 13.7067 10.6006 14.2077 10.231 14.6261C9.67997 15.3652 8.9693 15.9706 8.15198 16.3971C7.35725 16.7825 6.48314 16.9761 5.59998 16.9622Z" fill="url(#paint0_linear_1_24424)" />
	<defs>
		<linearGradient id="paint0_linear_1_24424" x1="13.3503" y1="16.9629" x2="13.3503" y2="0.308105" gradientUnits="userSpaceOnUse">
			<stop stop-color="#8C5110" />
			<stop offset="0.983" stop-color="#E2B588" />
		</linearGradient>
	</defs>
</svg>
