<svg width="28" height="17" viewBox="0 0 28 17" fill="none" xmlns="http://www.w3.org/2000/svg">
	<path d="M18.3001 15.3273L21.4361 11.0883H19.4521C19.2591 10.9621 19.0587 10.8476 18.8521 10.7453C18.708 10.676 18.5687 10.5972 18.4351 10.5093C18.2781 10.4093 18.1091 10.3093 17.9211 10.2093C17.2751 9.62763 16.7512 8.92328 16.38 8.13727C16.0022 7.35782 15.8044 6.50345 15.8011 5.63727C15.7992 5.05078 15.8851 4.46735 16.0561 3.90631C16.235 3.33349 16.4964 2.78977 16.8321 2.2923C17.3729 1.59482 18.065 1.02931 18.8564 0.638492C19.6477 0.247677 20.5175 0.0417949 21.4001 0.0363189H22.0761C22.1578 0.0341555 22.2389 0.0508762 22.313 0.0852691L22.428 0.142276L22.554 0.1673C22.9726 0.251209 23.381 0.379985 23.772 0.551334C24.1545 0.723205 24.517 0.936464 24.8531 1.18732C25.5042 1.76322 26.04 2.45754 26.432 3.23334C26.8183 4.02829 27.0131 4.90258 27.001 5.78632C27.0024 6.37351 26.9161 6.95764 26.745 7.51935C26.5609 8.08007 26.268 8.59894 25.8831 9.04633L20.147 16.6923L18.3001 15.3273ZM2.80008 15.3273L5.93607 11.0883H3.95206C3.75908 10.9621 3.55874 10.8476 3.35208 10.7453C3.20797 10.676 3.06867 10.5972 2.93509 10.5093C2.77809 10.4093 2.60905 10.3093 2.42105 10.2093C1.77508 9.62763 1.25124 8.92328 0.880036 8.13727C0.502244 7.35782 0.304394 6.50345 0.301056 5.63727C0.299162 5.05078 0.38512 4.46735 0.556061 3.90631C0.73499 3.33349 0.996402 2.78977 1.33206 2.2923C1.87286 1.59482 2.56502 1.02931 3.35635 0.638492C4.14769 0.247677 5.0175 0.0417949 5.90005 0.0363189H6.57608C6.6578 0.0341555 6.73885 0.0508762 6.81302 0.0852691L6.92801 0.142276L7.05399 0.1673C7.47259 0.251209 7.88096 0.379985 8.272 0.551334C8.65449 0.723205 9.01704 0.936464 9.35306 1.18732C10.0042 1.76322 10.54 2.45754 10.932 3.23334C11.3183 4.02829 11.5131 4.90258 11.501 5.78632C11.5024 6.37351 11.4161 6.95764 11.245 7.51935C11.0609 8.08007 10.768 8.59894 10.3831 9.04633L4.647 16.6923L2.80008 15.3273Z" fill="url(#paint0_linear_1_24426)" />
	<defs>
		<linearGradient id="paint0_linear_1_24426" x1="13.6513" y1="0.0361328" x2="13.6513" y2="16.6923" gradientUnits="userSpaceOnUse">
			<stop offset="0.017" stop-color="#E2B588" />
			<stop offset="1" stop-color="#8C5110" />
		</linearGradient>
	</defs>
</svg>
