<svg width="41" height="40" viewBox="0 0 41 40" fill="none" xmlns="http://www.w3.org/2000/svg">
	<path d="M8.64606 16.8502C12.0591 14.5948 16.0304 13.329 20.1191 13.194C20.6011 10.994 21.0791 8.81828 21.5551 6.64028C21.8991 5.06528 22.234 3.48916 22.585 1.91616C22.828 0.828162 23.058 0.694994 24.162 0.943994C26.495 1.46999 28.8321 1.97728 31.1561 2.53628C31.3447 2.6062 31.5522 2.60517 31.7403 2.53384C31.9284 2.4625 32.0842 2.32551 32.179 2.1481C32.6206 1.52574 33.2689 1.08026 34.0082 0.89126C34.7476 0.70226 35.5299 0.782281 36.216 1.11636C36.9142 1.45229 37.4772 2.01613 37.8118 2.71499C38.1465 3.41385 38.233 4.20552 38.0569 4.96011C37.8809 5.7147 37.4529 6.38675 36.8436 6.86538C36.2342 7.34401 35.4798 7.60064 34.705 7.59292C33.9317 7.55462 33.195 7.25215 32.6179 6.73599C32.0407 6.21982 31.6582 5.52127 31.5341 4.75698C31.5093 4.63288 31.4571 4.51607 31.3813 4.4147C31.3055 4.31332 31.208 4.23001 31.096 4.17105C28.796 3.61205 26.4961 3.09519 24.0711 2.54019L21.7341 13.195C25.7837 13.286 29.7278 14.5037 33.1241 16.7111C33.8804 16.2738 34.6745 15.9055 35.497 15.611C36.4896 15.3468 37.5443 15.4508 38.4662 15.9035C39.3882 16.3562 40.1151 17.1275 40.513 18.0744C40.9685 19.0223 41.0731 20.1011 40.8079 21.1188C40.5428 22.1365 39.9251 23.0268 39.065 23.632C38.734 23.868 38.497 24.038 38.584 24.546C38.8503 26.1192 38.7362 27.7335 38.2514 29.2536C37.7666 30.7737 36.925 32.1558 35.7971 33.2843C33.1392 36.1202 29.6186 37.998 25.783 38.6261C20.1288 39.9073 14.1976 38.9141 9.2691 35.861C7.86437 35.0785 6.63413 34.0175 5.65399 32.7428C4.67385 31.4681 3.96438 30.007 3.56903 28.4484C3.35891 27.1974 3.29353 25.9263 3.37408 24.6603C3.37408 24.2203 3.35407 23.9789 2.96307 23.7179C2.16363 23.2131 1.54955 22.4628 1.21307 21.5792C0.876598 20.6957 0.835931 19.7267 1.09711 18.818C1.30546 17.9229 1.79397 17.1179 2.49164 16.5197C3.1893 15.9215 4.05962 15.5616 4.97601 15.4923C5.65035 15.43 6.33014 15.5195 6.96527 15.7545C7.6004 15.9896 8.17474 16.364 8.64606 16.8502ZM16.908 24.4821C16.9207 24.0414 16.845 23.6026 16.6856 23.1916C16.5262 22.7805 16.2862 22.4054 15.9797 22.0885C15.6732 21.7716 15.3063 21.5194 14.9008 21.3463C14.4953 21.1733 14.0593 21.0832 13.6185 21.0812C13.1776 21.0792 12.7407 21.1653 12.3337 21.3346C11.9266 21.5039 11.5575 21.753 11.2481 22.067C10.9387 22.3811 10.6953 22.7542 10.5322 23.1637C10.369 23.5733 10.2894 24.0115 10.298 24.4523C10.2961 24.8863 10.3796 25.3162 10.5439 25.7179C10.7082 26.1197 10.9499 26.4853 11.2554 26.7936C11.8724 27.4162 12.7115 27.7681 13.5881 27.7721C14.4646 27.7761 15.3068 27.4316 15.9294 26.8146C16.552 26.1976 16.904 25.3586 16.908 24.4821ZM31.596 24.5221C31.6112 24.0828 31.5387 23.6449 31.3826 23.234C31.2265 22.8231 30.9901 22.4475 30.6871 22.1291C30.3841 21.8106 30.0206 21.5558 29.618 21.3795C29.2153 21.2033 28.7815 21.1088 28.342 21.1022C27.9025 21.0955 27.4661 21.1769 27.0583 21.341C26.6505 21.505 26.2796 21.7486 25.9671 22.0578C25.6546 22.3669 25.4069 22.7353 25.2385 23.1413C25.07 23.5473 24.9841 23.9825 24.986 24.422C24.9709 24.8613 25.0434 25.2992 25.1995 25.7101C25.3556 26.121 25.5921 26.4967 25.8951 26.8151C26.1981 27.1335 26.5615 27.3883 26.9642 27.5646C27.3668 27.7409 27.8006 27.8353 28.2401 27.8419C28.6795 27.8486 29.1159 27.7677 29.5237 27.6037C29.9315 27.4396 30.3026 27.1955 30.6151 26.8864C30.9275 26.5773 31.1752 26.2094 31.3437 25.8034C31.5121 25.3974 31.5979 24.9617 31.596 24.5221ZM20.9361 34.8571C21.7631 34.7811 22.5971 34.7503 23.4151 34.6193C25.1563 34.433 26.8063 33.7467 28.1661 32.6432C28.5941 32.2662 28.7791 31.8339 28.3521 31.3639C27.9521 30.9289 27.552 31.0923 27.111 31.3883C26.4992 31.8648 25.8158 32.2409 25.0861 32.5031C21.4431 33.4671 17.863 33.6801 14.58 31.2941C14.4158 31.2245 14.2375 31.1948 14.0596 31.2077C13.8818 31.2205 13.7095 31.2758 13.5571 31.3683C13.4683 31.4274 13.3952 31.507 13.3443 31.6007C13.2934 31.6944 13.2661 31.7993 13.2648 31.9059C13.2636 32.0125 13.2883 32.1177 13.337 32.2125C13.3856 32.3074 13.4567 32.3892 13.544 32.4503C14.0253 32.8833 14.5544 33.2601 15.121 33.5734C16.9363 34.4385 18.9253 34.8774 20.9361 34.8571Z" fill="url(#paint0_linear_1_27484)" />
	<defs>
		<linearGradient id="paint0_linear_1_27484" x1="36.5888" y1="32.5323" x2="12.6255" y2="6.46551" gradientUnits="userSpaceOnUse">
			<stop stop-color="#FFF5DD" />
			<stop offset="1" stop-color="#F5B942" />
		</linearGradient>
	</defs>
</svg>
