<svg width="157" height="156" viewBox="0 0 157 156" fill="none" xmlns="http://www.w3.org/2000/svg">
	<path d="M85.4964 8.16536C84.425 8.76536 83.4386 9.54936 82.4322 10.2544C81.3036 11.0434 80.0619 11.7244 78.9894 12.5874C78.9484 12.6214 78.8783 12.5784 78.9113 12.5274C79.6273 11.3904 80.145 10.1154 80.7839 8.92736C81.4228 7.73936 82.1468 6.57535 82.6705 5.33935C83.1942 4.10335 85.0588 4.06835 85.914 4.92235C86.1344 5.14723 86.3009 5.41905 86.401 5.71738C86.5011 6.01572 86.5322 6.33282 86.4921 6.64489C86.4519 6.95696 86.3414 7.25589 86.169 7.51923C85.9965 7.78256 85.7666 8.00347 85.4964 8.16536Z" fill="url(#paint0_linear_1_22164)" />
	<path d="M77.3882 12.0004C77.3772 12.0464 77.2991 12.0494 77.2881 12.0004C76.8694 9.39657 76.301 6.81897 75.5857 4.28038C74.5924 0.800383 80.6748 1.11538 79.5683 4.28038C78.6961 6.81051 77.9682 9.38798 77.3882 12.0004Z" fill="url(#paint1_linear_1_22164)" />
	<path d="M75.7008 12.6181C74.7405 11.7591 73.6319 11.0561 72.6215 10.2561C71.6111 9.4561 70.6398 8.5841 69.5663 7.8841C69.2766 7.71264 69.0334 7.47288 68.8579 7.18581C68.6825 6.89875 68.5801 6.57311 68.5599 6.23741C68.5396 5.90171 68.6021 5.56616 68.7417 5.26014C68.8814 4.95412 69.0941 4.68694 69.3611 4.48199C69.6281 4.27703 69.9413 4.14055 70.2734 4.08447C70.6055 4.0284 70.9462 4.05444 71.2659 4.16033C71.5855 4.26622 71.8743 4.44873 72.107 4.69188C72.3397 4.93503 72.5091 5.23141 72.6005 5.5551C73.0301 6.7471 73.665 7.8911 74.2027 9.0391C74.7405 10.1871 75.1701 11.4311 75.7819 12.5581C75.7899 12.5688 75.7933 12.5823 75.7913 12.5955C75.7893 12.6087 75.7822 12.6206 75.7714 12.6286C75.7607 12.6366 75.7472 12.6399 75.7339 12.6379C75.7207 12.636 75.7088 12.6288 75.7008 12.6181Z" fill="url(#paint2_linear_1_22164)" />
	<path d="M74.8947 14.1223C72.1907 14.0835 69.4867 14.197 66.7955 14.4623C63.585 14.7883 64.5994 8.80527 67.8379 10.6183C70.1271 11.8882 72.4876 13.0254 74.9077 14.0243C74.9568 14.0443 74.9548 14.1233 74.8947 14.1223Z" fill="url(#paint3_linear_1_22164)" />
	<path d="M67.3783 17.6814C68.6962 17.4464 69.991 17.0314 71.2837 16.6814C72.5765 16.3314 73.9204 16.1164 75.1892 15.7004C75.2342 15.6854 75.2773 15.7524 75.2372 15.7834C74.2058 16.6014 73.3005 17.5834 72.3152 18.4594C71.3298 19.3354 70.2874 20.1694 69.3821 21.1234C66.8937 23.7594 64.1118 18.2654 67.3783 17.6814Z" fill="url(#paint4_linear_1_22164)" />
	<path d="M76.5791 16.8531C76.074 19.3824 75.7268 21.9407 75.5396 24.5131C75.2913 28.2451 69.5403 26.0491 72.0137 23.0551C73.6322 21.0688 75.1261 18.9845 76.487 16.8141C76.4936 16.8044 76.5034 16.7973 76.5147 16.794C76.526 16.7907 76.5381 16.7914 76.549 16.796C76.5598 16.8006 76.5687 16.8088 76.5742 16.8192C76.5797 16.8296 76.5814 16.8415 76.5791 16.8531Z" fill="url(#paint5_linear_1_22164)" />
	<path d="M78.7762 24.6632C78.7471 22.0446 78.5528 19.4304 78.1943 16.8362C78.1873 16.7842 78.2564 16.7442 78.2855 16.7982C79.5907 19.1593 81.0397 21.4383 82.6245 23.6222C84.5492 26.2542 78.8012 28.3482 78.7762 24.6632Z" fill="url(#paint6_linear_1_22164)" />
	<path d="M83.3455 16.8538C84.5972 17.2688 85.849 17.7538 87.1297 18.0598C90.6206 18.8928 87.286 24.0718 85.121 21.5068C84.2588 20.4868 83.2534 19.5758 82.3091 18.6318C81.3647 17.6878 80.5066 16.6378 79.5052 15.7458C79.4691 15.7138 79.5052 15.6458 79.5542 15.6628C80.7849 16.1468 82.0918 16.4388 83.3455 16.8538Z" fill="url(#paint7_linear_1_22164)" />
	<path d="M87.4581 14.8187C84.9295 14.4285 82.381 14.1798 79.8245 14.0737C79.8112 14.0755 79.7978 14.0718 79.7872 14.0637C79.7766 14.0555 79.7697 14.0435 79.7679 14.0302C79.7662 14.017 79.7698 14.0036 79.778 13.993C79.7862 13.9824 79.7982 13.9755 79.8115 13.9737C82.2494 13.1332 84.6378 12.156 86.9654 11.0467C90.3471 9.41274 91.3004 15.4377 87.4581 14.8187Z" fill="url(#paint8_linear_1_22164)" />
	<path d="M108.572 5.73095C112.979 3.10495 118.265 1.21495 123.467 1.74095C124.765 1.85721 126.026 2.23354 127.174 2.84745C128.323 3.46136 129.336 4.30024 130.152 5.31395C133.938 7.98195 137.319 11.269 141.781 12.677C144.364 13.492 146.909 13.362 149.021 11.577C150.007 10.9184 150.724 9.92746 151.04 8.78495C150.169 5.85162 149.107 5.01562 147.854 6.27695C146.591 6.12895 145.669 7.27695 144.555 5.85195C144.061 5.33357 143.785 4.64522 143.785 3.92945C143.785 3.21368 144.061 2.52533 144.555 2.00695C147.636 -0.777045 152.302 -0.793047 154.832 2.75995C157.55 6.57795 155.982 11.8669 152.652 14.7429C144.797 21.5269 138.053 14.5819 131.858 8.47695C132.408 10.185 132.479 12.0108 132.063 13.7562C131.646 15.5016 130.759 17.0997 129.497 18.3769C129.13 18.7409 128.672 19.0019 128.172 19.1341C127.671 19.2662 127.144 19.2648 126.645 19.1299L125.708 18.8949C125.195 18.7485 124.759 18.4066 124.495 17.9428C124.232 17.479 124.161 16.9304 124.298 16.415C125.552 12.688 130.219 9.22495 124.923 5.81495C120.283 2.82395 112.43 6.26295 108.315 8.60995C103.154 11.555 97.7114 18.9019 91.1092 16.9599C91.096 16.9582 91.0839 16.9513 91.0757 16.9407C91.0676 16.9301 91.0639 16.9167 91.0657 16.9035C91.0674 16.8902 91.0743 16.8782 91.0849 16.87C91.0955 16.8618 91.109 16.8582 91.1222 16.86C98.0699 16.457 102.902 9.11195 108.572 5.73095Z" fill="url(#paint9_linear_1_22164)" />
	<path d="M36.5255 6.36081C31.793 1.06081 24.5429 2.14481 20.4272 7.39081C19.663 6.83551 18.8687 6.32273 18.0479 5.85482C13.802 3.46582 6.96353 0.289815 1.94257 1.46881C0.761933 6.48281 3.94535 13.3118 6.33466 17.5518C6.80323 18.3715 7.31673 19.1647 7.8728 19.9278C2.61951 24.0378 1.53501 31.2778 6.84137 36.0038C14.4419 42.7728 27.3698 39.7418 36.9621 36.4398C40.2687 26.8598 43.3029 13.9508 36.5255 6.36081ZM25.3781 16.8788C28.2287 20.5914 29.9192 25.0613 30.2378 29.7288C25.5638 29.4107 21.0877 27.7225 17.37 24.8758C14.2182 22.3272 11.7007 19.0841 10.0148 15.4008C8.85076 12.9388 7.98414 10.3473 7.43319 7.68081C7.3671 7.38081 7.31202 7.08081 7.25995 6.78081C7.56037 6.83281 7.86078 6.88781 8.1612 6.95381C10.8314 7.50401 13.4265 8.36942 15.8919 9.53181C19.5798 11.2162 22.8268 13.731 25.3781 16.8788ZM36.2592 35.7418C28.0788 37.3698 18.3113 38.2798 11.8253 33.5318C8.74901 31.2788 7.71959 27.1458 11.2385 24.7158C11.4356 24.5796 11.6169 24.422 11.7792 24.2458C13.0283 25.3478 14.3823 26.3251 15.8218 27.1638C20.3749 29.8358 25.6678 30.9745 30.9188 30.4118C31.4821 25.1682 30.3418 19.8826 27.6662 15.3358C26.8263 13.8982 25.8477 12.5461 24.7442 11.2988C24.9206 11.1367 25.0784 10.9556 25.2149 10.7588C27.6482 7.24482 31.787 8.27281 34.0431 11.3448C38.8047 17.8188 37.8954 27.5728 36.2632 35.7418H36.2592Z" fill="url(#paint10_linear_1_22164)" />
	<path d="M60.1093 15.7351C60.3186 17.9411 56.5333 17.9931 56.6355 15.7351C56.6911 14.159 57.2751 12.6473 58.2937 11.4422C59.3124 10.2371 60.7067 9.40843 62.2532 9.08908C62.3794 9.06108 62.5036 9.22708 62.3894 9.32408C61.5133 10.1249 60.8472 11.1282 60.4497 12.246C60.0521 13.3637 59.9352 14.5617 60.1093 15.7351Z" fill="url(#paint11_linear_1_22164)" />
	<path d="M54.161 21.3354L53.9867 21.4424C53.7147 21.6062 53.4031 21.6927 53.0855 21.6927C52.7679 21.6927 52.4562 21.6062 52.1842 21.4424C50.1734 19.9974 51.0156 16.4684 51.8428 14.5164C52.8158 12.2909 54.598 10.5169 56.8297 9.55239C56.8777 9.52739 56.9358 9.59338 56.8898 9.63038C54.6627 11.4214 53.0154 15.8074 54.4063 18.6064C54.6157 18.7776 54.7799 18.9973 54.8847 19.2465C54.9895 19.4957 55.0316 19.7666 55.0074 20.0358C54.9832 20.3049 54.8934 20.5641 54.7459 20.7906C54.5984 21.0171 54.3975 21.2042 54.161 21.3354Z" fill="url(#paint12_linear_1_22164)" />
	<path d="M57.6158 4.71731C55.5289 5.17031 52.4726 4.71731 51.28 2.71731C51.1145 2.41245 51.0631 2.05872 51.1349 1.71945C51.2068 1.38018 51.3972 1.07753 51.6721 0.865675C51.947 0.65382 52.2885 0.546592 52.6353 0.5632C52.9822 0.579807 53.3118 0.719163 53.5651 0.956312C54.201 1.53231 54.5665 2.32131 55.2305 2.89931C55.9186 3.49857 56.7343 3.93355 57.6158 4.17131C57.6757 4.18766 57.7286 4.22324 57.7663 4.27257C57.804 4.3219 57.8245 4.38225 57.8245 4.44431C57.8245 4.50637 57.804 4.56672 57.7663 4.61605C57.7286 4.66538 57.6757 4.70096 57.6158 4.71731Z" fill="url(#paint13_linear_1_22164)" />
	<path d="M51.0557 6.86442C49.5668 7.47959 47.9424 7.69382 46.3447 7.4857C44.747 7.27758 43.232 6.6544 41.951 5.67842C39.8081 4.12142 42.4818 1.16842 44.054 2.95442C45.8669 5.00035 48.3377 6.3506 51.0406 6.77242C51.0521 6.77205 51.0632 6.77585 51.0721 6.7831C51.0809 6.79036 51.0868 6.80056 51.0886 6.81183C51.0905 6.82309 51.0881 6.83464 51.0821 6.84432C51.076 6.854 51.0666 6.86114 51.0557 6.86442Z" fill="url(#paint14_linear_1_22164)" />
	<path d="M42.1814 9.24317C43.0339 9.54671 43.9203 9.74518 44.821 9.83417C45.5786 9.82927 46.336 9.86265 47.0902 9.93417C47.1139 9.94081 47.1354 9.95351 47.1526 9.97101C47.1699 9.98851 47.1822 10.0102 47.1885 10.0339C47.1948 10.0577 47.1947 10.0826 47.1884 10.1064C47.182 10.1301 47.1696 10.1517 47.1523 10.1692C45.9846 11.3452 43.7475 11.8632 42.1814 12.2252C39.4976 12.8462 39.8712 8.46117 42.1814 9.24317Z" fill="url(#paint15_linear_1_22164)" />
	<path d="M91.8873 15.54C91.8082 15.601 91.679 15.524 91.7391 15.426C92.318 14.5499 92.7076 13.5627 92.883 12.5277C93.0583 11.4927 93.0156 10.4326 92.7575 9.41502C92.1697 6.84202 96.4076 6.83702 95.8358 9.41502C95.2494 11.8431 93.8578 14.0017 91.8873 15.54Z" fill="url(#paint16_linear_1_22164)" />
	<path d="M97.2898 12.6998C97.2817 12.7075 97.2711 12.7121 97.26 12.7127C97.2488 12.7134 97.2378 12.71 97.2289 12.7033C97.22 12.6965 97.2137 12.6869 97.2113 12.676C97.2089 12.665 97.2105 12.6536 97.2157 12.6438C98.0371 11.1876 98.589 9.59545 98.845 7.94377C99.0452 6.60377 98.6116 5.22378 99.8864 4.39678C100.075 4.28855 100.294 4.24502 100.51 4.27283C100.725 4.30064 100.926 4.39827 101.081 4.55078L101.281 4.76677C101.451 4.93587 101.572 5.14671 101.633 5.37786C101.694 5.60901 101.693 5.85222 101.63 6.08277C100.788 8.62976 99.2915 10.9115 97.2898 12.6998Z" fill="url(#paint17_linear_1_22164)" />
	<path d="M107.683 4.1214C106.897 4.46904 106.167 4.93031 105.515 5.49039C104.823 5.99493 104.157 6.5343 103.519 7.1064C103.505 7.12045 103.486 7.12933 103.465 7.1317C103.445 7.13407 103.425 7.1298 103.407 7.11953C103.389 7.10927 103.376 7.09356 103.368 7.07478C103.36 7.056 103.358 7.03515 103.363 7.01539C103.49 6.01624 103.857 5.06252 104.433 4.23539C105.111 3.39447 105.915 2.66261 106.816 2.0654C108.11 1.1864 109.247 3.4624 107.683 4.1214Z" fill="url(#paint18_linear_1_22164)" />
	<path d="M91.8963 18.5216C93.2672 18.8466 94.6451 19.1576 96.02 19.4616C97.3549 19.7616 98.8389 19.6556 100.026 20.3506C100.951 20.8906 100.909 22.6606 99.7001 22.8346C98.144 23.0596 96.761 22.3346 95.3771 21.6516C93.982 20.9732 92.7232 20.0452 91.663 18.9136C91.6275 18.8762 91.6051 18.8282 91.5994 18.7769C91.5937 18.7257 91.6049 18.6739 91.6313 18.6296C91.6577 18.5852 91.6978 18.5507 91.7457 18.5312C91.7935 18.5117 91.8464 18.5084 91.8963 18.5216Z" fill="url(#paint19_linear_1_22164)" />
	<path d="M98.8349 16.8999C100.424 16.9558 102.013 16.796 103.558 16.4249C104.86 16.0999 105.968 15.3899 107.211 16.1709C107.465 16.3246 107.65 16.5717 107.725 16.8595C107.8 17.1472 107.759 17.4528 107.611 17.7109C106.596 19.1109 105.134 18.8239 103.555 18.5849C101.901 18.3236 100.289 17.8451 98.7608 17.1619C98.6326 17.1069 98.7037 16.8999 98.8349 16.8999Z" fill="url(#paint20_linear_1_22164)" />
	<path d="M108.547 11.7512C109.837 11.1662 110.91 10.3132 112.353 10.2432C112.612 10.2489 112.863 10.3296 113.077 10.4757C113.291 10.6217 113.457 10.8266 113.556 11.0656C113.656 11.3045 113.683 11.567 113.635 11.8212C113.588 12.0754 113.467 12.3103 113.288 12.4972C112.058 13.5802 110.384 13.6482 108.801 13.8142C107.155 14.0167 105.488 13.9668 103.858 13.6662C103.808 13.6562 103.819 13.5912 103.858 13.5762C105.413 12.9592 107.02 12.4442 108.547 11.7512Z" fill="url(#paint21_linear_1_22164)" />
	<path d="M120.902 7.37158C122.773 8.46558 120.589 11.1936 119.123 9.67157C117.675 8.17157 115.496 7.15757 113.41 8.05957C113.399 8.06467 113.386 8.06541 113.374 8.06163C113.362 8.05786 113.352 8.04984 113.346 8.03914C113.34 8.02844 113.338 8.01582 113.341 8.0037C113.343 7.99159 113.35 7.98086 113.36 7.97358C115.676 6.47958 118.374 5.89358 120.902 7.37158Z" fill="url(#paint22_linear_1_22164)" />
	<path d="M76.4429 13.1341L76.6812 13.0891C76.8973 13.0292 77.1244 13.02 77.3447 13.0621C77.565 13.1043 77.7725 13.1968 77.9511 13.3324C78.1296 13.4679 78.2744 13.6429 78.3741 13.8435C78.4737 14.0442 78.5256 14.2651 78.5256 14.4891C78.5256 14.7131 78.4737 14.9341 78.3741 15.1347C78.2744 15.3354 78.1296 15.5104 77.9511 15.6459C77.7725 15.7814 77.565 15.8739 77.3447 15.9161C77.1244 15.9583 76.8973 15.9491 76.6812 15.8891L76.4429 15.8441C76.1523 15.7554 75.898 15.5758 75.7173 15.3319C75.5366 15.088 75.439 14.7926 75.439 14.4891C75.439 14.1857 75.5366 13.8903 75.7173 13.6464C75.898 13.4025 76.1523 13.2229 76.4429 13.1341Z" fill="url(#paint23_linear_1_22164)" />
	<path d="M134.161 12.8366C135.252 13.8946 136.18 15.1077 136.916 16.4366C137.645 17.9753 137.943 19.6824 137.778 21.3766C137.663 25.1656 131.89 24.4076 132.655 20.6846C132.913 19.4276 132.927 18.1716 133.214 16.9196C133.478 15.6756 133.554 14.3992 133.44 13.1326C133.442 13.0503 133.469 12.9704 133.515 12.9026C133.562 12.8348 133.628 12.7821 133.704 12.7507C133.781 12.7194 133.864 12.7109 133.945 12.7261C134.026 12.7413 134.101 12.7797 134.161 12.8366Z" fill="url(#paint24_linear_1_22164)" />
	<path d="M64.1448 36.8077C62.5036 44.0207 54.0518 47.4217 48.2498 42.2427C43.8247 38.2917 44.3694 31.3427 45.3758 25.2117C45.6592 28.6707 47.0782 31.8287 50.526 33.5117C55.2255 35.7977 62.9622 32.7337 62.8641 26.8517C62.795 22.7117 57.5858 21.0237 55.9625 25.0877C55.4828 26.2877 57.2583 27.1877 58.0814 26.3197C58.8639 29.7777 57.5507 31.4344 54.142 31.2897C52.735 31.2679 51.3734 30.7891 50.2632 29.9258C49.1529 29.0624 48.3544 27.8615 47.9885 26.5047C47.1132 23.9697 47.5058 20.5307 48.0155 17.9907C49.2933 11.6197 53.7334 5.64469 60.8002 5.88369C60.8653 5.88369 60.8633 5.78868 60.8002 5.78368C53.9307 5.16468 48.9758 9.64469 46.7677 15.9177C45.8954 18.3526 45.4076 20.9081 45.3217 23.4927C43.2479 31.7627 40.6923 41.4927 49.3624 46.5077C50.9802 47.4539 52.8063 47.988 54.6797 48.0627C54.1633 48.9599 53.5505 49.7982 52.8522 50.5627C52.5878 50.8807 52.3004 51.1747 52.008 51.4627C51.7156 51.7507 51.4242 52.0417 51.1068 52.3057C50.3396 53.0034 49.4985 53.6153 48.5983 54.1307C48.5235 52.2599 47.9887 50.4362 47.0411 48.8207C42.0162 40.1627 32.2757 42.7147 23.9942 44.7857C21.406 44.8714 18.8469 45.3586 16.4086 46.2297C10.1269 48.4347 5.64071 53.3827 6.26057 60.2427C6.26057 60.3057 6.36071 60.3077 6.36071 60.2427C6.12137 53.1857 12.1047 48.7517 18.4845 47.4757C21.0281 46.9667 24.4718 46.5757 27.0103 47.4487C28.3691 47.8142 29.5716 48.6115 30.4362 49.7203C31.3007 50.829 31.7802 52.1887 31.802 53.5937C31.9475 56.9977 30.2886 58.309 26.8251 57.5277C27.6973 56.7057 26.795 54.9277 25.5914 55.4117C21.5217 57.0327 23.2121 62.2347 27.3578 62.3037C33.248 62.4037 36.3163 54.6757 34.0271 49.9827C32.3458 46.5367 29.1834 45.1227 25.7156 44.8397C31.8541 43.8347 38.8137 43.2907 42.7702 47.7097C47.9564 53.5037 44.5507 61.9437 37.3277 63.5827C35.1476 64.0777 36.0749 67.4347 38.2509 66.9277C39.1898 66.7066 40.1027 66.3876 40.9747 65.9757C43.1854 67.3845 45.6825 68.2838 48.2847 68.6083C50.887 68.9328 53.5289 68.6743 56.0186 67.8517C58.924 66.8778 61.625 65.3782 63.9866 63.4277C65.9398 61.0693 67.4416 58.372 68.4168 55.4707C69.2406 52.9844 69.4994 50.3462 69.1744 47.7476C68.8495 45.149 67.9489 42.6553 66.5382 40.4477C66.9506 39.5769 67.2702 38.6652 67.4915 37.7277C68.0022 35.5567 64.6405 34.6307 64.1448 36.8077ZM58.1235 47.6707C57.6458 49.1243 56.9164 50.4828 55.9685 51.6847C55.4146 52.3725 54.7963 53.0061 54.122 53.5767C53.5505 54.2501 52.9161 54.8676 52.2273 55.4207C51.0244 56.3671 49.6646 57.0954 48.2098 57.5727C48.5058 56.4941 48.6408 55.3777 48.6103 54.2597C49.6538 54.0376 50.67 53.7023 51.6405 53.2597C52.1037 53.0094 52.5515 52.7316 52.9814 52.4277C53.2857 51.9984 53.5639 51.5513 53.8145 51.0887C54.2578 50.1195 54.5936 49.1048 54.8159 48.0627C55.9317 48.0947 57.0462 47.9627 58.1235 47.6707ZM61.2508 46.3177C61.0385 48.4537 59.6666 51.0177 58.8705 52.4977C58.2009 53.728 57.4114 54.8893 56.5133 55.9647C55.4364 56.8615 54.2735 57.65 53.0414 58.3187C51.5574 59.1137 48.9918 60.4837 46.8529 60.6957C47.4173 59.7655 47.857 58.7652 48.1607 57.7207C50.7004 57.2227 53.0979 56.1684 55.1804 54.6337C56.7173 52.5541 57.7731 50.1599 58.2717 47.6237C59.3181 47.3205 60.32 46.8815 61.2518 46.3177H61.2508ZM63.3538 51.6817C62.337 54.1931 60.8829 56.5048 59.0588 58.5097C57.0511 60.3313 54.7362 61.7834 52.2213 62.7987C49.752 63.5393 47.1595 63.7804 44.5957 63.5077C45.358 62.7884 46.0338 61.983 46.6095 61.1077C50.2015 61.7217 54.5365 59.4287 57.6589 57.1167C59.9741 53.9987 62.2652 49.6697 61.6554 46.0827C62.5319 45.5078 63.3385 44.8329 64.0587 44.0717C64.3341 46.6297 64.0957 49.2168 63.3578 51.6817H63.3538ZM65.8692 41.6897C66.7474 44.0707 67.1267 46.6065 66.9836 49.1399C66.8405 51.6733 66.1779 54.1504 65.0371 56.4177C64.1348 58.1334 63.025 59.7321 61.7325 61.1777C60.2849 62.4684 58.684 63.5767 56.9659 64.4777C54.6955 65.6169 52.2149 66.2785 49.678 66.4215C47.1411 66.5644 44.6018 66.1857 42.2174 65.3087C42.9193 64.8833 43.5818 64.3964 44.1972 63.8537C47.2194 64.6197 49.9411 65.0457 53.1406 63.9077C55.7258 62.9064 58.1219 61.4737 60.2264 59.6707C62.0323 57.5701 63.4677 55.1784 64.4713 52.5977C65.6109 49.3977 65.1843 46.6847 64.4172 43.6667C64.9603 43.0521 65.4476 42.3905 65.8733 41.6897H65.8692Z" fill="url(#paint25_linear_1_22164)" />
	<path d="M68.0813 39.8664C70.6208 37.7244 73.0402 35.3984 75.7689 33.5064C77.9089 32.0234 80.142 35.8254 77.8058 36.9874C74.8386 38.4644 71.6342 39.4584 68.5379 40.6504C68.4385 40.6753 68.3337 40.6673 68.2392 40.6275C68.1448 40.5877 68.0659 40.5184 68.0143 40.4299C67.9628 40.3414 67.9415 40.2386 67.9535 40.137C67.9656 40.0353 68.0104 39.9404 68.0813 39.8664Z" fill="url(#paint26_linear_1_22164)" />
	<path d="M69.7656 42.2999C72.202 40.7309 75.4205 39.0869 78.4056 39.2779C78.8414 39.2962 79.2533 39.4821 79.5552 39.7965C79.8571 40.111 80.0257 40.5298 80.0257 40.9654C80.0257 41.401 79.8571 41.8198 79.5552 42.1343C79.2533 42.4487 78.8414 42.6345 78.4056 42.6529C77.1038 42.8219 75.7499 42.6309 74.4331 42.7199C72.9997 42.7986 71.5732 42.973 70.1632 43.2419C70.0436 43.2706 69.9177 43.2559 69.808 43.2005C69.6982 43.1451 69.6118 43.0525 69.564 42.9394C69.5163 42.8262 69.5103 42.6998 69.5472 42.5827C69.5842 42.4655 69.6616 42.3653 69.7656 42.2999Z" fill="url(#paint27_linear_1_22164)" />
	<path d="M78.5768 49.2342C77.2892 48.656 75.9692 48.1529 74.6233 47.7272C73.2975 47.3662 71.9526 47.2272 70.6398 46.8272C70.5786 46.8086 70.5241 46.7728 70.4828 46.7241C70.4414 46.6754 70.4151 46.6157 70.4068 46.5524C70.3986 46.4891 70.4088 46.4247 70.4363 46.367C70.4637 46.3094 70.5073 46.2608 70.5617 46.2272C73.1372 44.9542 76.7703 45.1272 79.474 45.9832C81.5779 46.6482 80.5625 50.0272 78.5768 49.2342Z" fill="url(#paint28_linear_1_22164)" />
	<path d="M77.4272 55.3222C75.3524 54.1278 73.171 53.1281 70.9112 52.3362C70.7952 52.3003 70.6938 52.2282 70.6218 52.1306C70.5498 52.033 70.5109 51.9149 70.5109 51.7937C70.5109 51.6724 70.5498 51.5544 70.6218 51.4568C70.6938 51.3592 70.7952 51.2871 70.9112 51.2512C73.5899 50.4612 76.6642 51.2902 79.1226 52.4252C81.0693 53.3232 79.2668 56.5182 77.4272 55.3222Z" fill="url(#paint29_linear_1_22164)" />
	<path d="M69.298 56.8596C72.202 56.2486 75.2442 57.6706 77.5835 59.2816C77.7888 59.4133 77.9646 59.5862 78.0995 59.7894C78.2344 59.9925 78.3256 60.2214 78.3672 60.4616C78.4089 60.7018 78.4 60.948 78.3413 61.1847C78.2826 61.4213 78.1753 61.6431 78.0262 61.8361C77.8771 62.0291 77.6894 62.1891 77.4751 62.3058C77.2609 62.4225 77.0246 62.4935 76.7814 62.5142C76.5382 62.535 76.2933 62.505 76.0623 62.4262C75.8313 62.3474 75.6192 62.2215 75.4395 62.0566C73.4678 60.3416 71.0784 59.1446 69.1528 57.4076C69.1128 57.3667 69.0841 57.3162 69.0695 57.261C69.0549 57.2057 69.0549 57.1476 69.0695 57.0924C69.0842 57.0372 69.1129 56.9867 69.153 56.9458C69.193 56.905 69.243 56.8753 69.298 56.8596Z" fill="url(#paint30_linear_1_22164)" />
	<path d="M71.8866 68.9308C70.5423 66.9388 68.7891 65.2553 66.7434 63.9918C66.5887 63.8944 66.4737 63.7454 66.4189 63.5712C66.3641 63.397 66.373 63.2091 66.4441 63.0408C66.5152 62.8726 66.6439 62.7352 66.8071 62.6529C66.9703 62.5706 67.1575 62.549 67.3352 62.5918C70.1592 63.3242 72.7926 64.6543 75.057 66.4918C77.2149 68.1998 73.623 71.5288 71.8866 68.9308Z" fill="url(#paint31_linear_1_22164)" />
	<path d="M53.3169 40.7151C49.9121 39.9251 47.8202 37.3371 46.2571 34.3951C46.2506 34.3837 46.2488 34.3702 46.2522 34.3575C46.2555 34.3448 46.2637 34.334 46.275 34.3273C46.2863 34.3206 46.2998 34.3186 46.3125 34.3218C46.3253 34.3249 46.3363 34.3329 46.3432 34.3441C47.9895 36.6271 50.7323 38.4501 53.6433 38.3081C55.8644 38.1991 57.1131 36.5201 59.1179 36.0581C59.3653 35.9947 59.6251 35.9968 59.8714 36.0641C60.1178 36.1314 60.3424 36.2617 60.5231 36.442C60.7038 36.6223 60.8343 36.8466 60.9019 37.0926C60.9694 37.3386 60.9717 37.5979 60.9084 37.8451C60.0732 40.8801 55.9565 41.3261 53.3169 40.7151Z" fill="url(#paint32_linear_1_22164)" />
	<path d="M41.9561 19.1118C42.0578 17.9024 42.4519 16.7357 43.1046 15.7118C43.7159 14.8613 44.487 14.1376 45.3748 13.5808C45.4169 13.5498 45.4659 13.6098 45.4429 13.6498C44.7284 15.2339 44.5917 17.0177 45.0564 18.6918C45.5661 21.0928 41.7678 21.2618 41.9561 19.1118Z" fill="url(#paint33_linear_1_22164)" />
	<path d="M33.8027 30.6414C34.9954 26.8354 33.8928 22.3634 32.6011 18.6704C31.869 16.5844 30.5823 15.5784 29.5969 13.8024C29.2614 13.2945 29.1111 12.6868 29.1713 12.0814C29.1738 11.9178 29.2286 11.7593 29.3277 11.6291C29.4268 11.4988 29.5649 11.4036 29.7221 11.3574L30.2818 11.2114C30.5464 11.1373 30.826 11.1353 31.0915 11.2056C31.3571 11.276 31.5989 11.4161 31.7919 11.6114C35.8135 16.3694 36.2271 25.0954 33.8999 30.6694C33.8758 30.7254 33.7837 30.7004 33.8027 30.6414Z" fill="url(#paint34_linear_1_22164)" />
	<path d="M8.64787 84.9068C8.48567 85.176 8.26462 85.405 8.00126 85.5767C7.73791 85.7484 7.43906 85.8585 7.1271 85.8986C6.81514 85.9387 6.49814 85.9078 6.19981 85.8083C5.90148 85.7088 5.62955 85.5432 5.40438 85.3239C4.54919 84.4699 4.57222 82.6129 5.82196 82.0849C7.07169 81.5569 8.2323 80.8379 9.41494 80.2009C10.5976 79.5639 11.8774 79.0458 13.0199 78.3308C13.071 78.2978 13.1141 78.3678 13.08 78.4088C12.2158 79.4798 11.5339 80.7199 10.7438 81.8469C10.0338 82.8519 9.25572 83.8368 8.64787 84.9068Z" fill="url(#paint35_linear_1_22164)" />
	<path d="M4.74947 75.0162C7.29159 75.7305 9.87276 76.2981 12.4802 76.7162C12.5293 76.7242 12.5263 76.8022 12.4802 76.8162C9.86404 77.3974 7.28299 78.1262 4.74947 78.9992C1.58408 80.1002 1.26864 74.0242 4.74947 75.0162Z" fill="url(#paint36_linear_1_22164)" />
	<path d="M8.36647 69C9.06744 70.072 9.94466 71.049 10.7418 72.051C11.5389 73.053 12.2438 74.167 13.107 75.126C13.1157 75.1345 13.121 75.1459 13.1219 75.1581C13.1228 75.1702 13.1192 75.1822 13.1118 75.1919C13.1045 75.2016 13.0938 75.2083 13.0819 75.2107C13.0699 75.2131 13.0575 75.2111 13.047 75.205C11.9184 74.594 10.6867 74.171 9.52307 73.628C8.35946 73.085 7.22789 72.459 6.03424 72.028C5.7101 71.9367 5.4133 71.7675 5.16981 71.5352C4.92632 71.3028 4.74357 71.0144 4.63753 70.6952C4.5315 70.376 4.50541 70.0357 4.56156 69.7041C4.61771 69.3725 4.75439 69.0597 4.95963 68.7931C5.16487 68.5264 5.43242 68.3141 5.73887 68.1746C6.04532 68.0351 6.38132 67.9728 6.71749 67.993C7.05366 68.0132 7.37974 68.1154 7.66721 68.2906C7.95468 68.4658 8.19476 68.7087 8.36647 68.998V69Z" fill="url(#paint37_linear_1_22164)" />
	<path d="M14.515 74.3333C13.5148 71.9165 12.376 69.5593 11.1043 67.2733C9.28876 64.0393 15.2801 63.0263 14.9536 66.2323C14.688 68.9198 14.5743 71.62 14.6131 74.3203C14.6141 74.3803 14.535 74.3823 14.515 74.3333Z" fill="url(#paint38_linear_1_22164)" />
	<path d="M21.6289 68.8209C20.6735 69.7209 19.8354 70.7669 18.9612 71.7499C18.087 72.7329 17.1006 73.6379 16.2815 74.6679C16.2504 74.7079 16.1813 74.6679 16.1983 74.6199C16.6149 73.3479 16.8342 72.0089 17.1807 70.7199C17.5272 69.4309 17.9418 68.1349 18.1821 66.8199C18.7619 63.5519 24.2635 66.3299 21.6289 68.8209Z" fill="url(#paint39_linear_1_22164)" />
	<path d="M25.0185 74.9638C22.4426 75.1508 19.8808 75.4974 17.3479 76.0018C17.3364 76.0042 17.3244 76.0024 17.314 75.9969C17.3036 75.9915 17.2954 75.9826 17.2908 75.9717C17.2862 75.9609 17.2855 75.9489 17.2888 75.9376C17.2921 75.9263 17.2992 75.9165 17.3088 75.9098C19.4823 74.5509 21.5695 73.059 23.5585 71.4428C26.5567 68.9728 28.7557 74.7158 25.0185 74.9638Z" fill="url(#paint40_linear_1_22164)" />
	<path d="M24.1263 82.039C21.9394 80.4565 19.6573 79.0094 17.2928 77.706C17.2388 77.677 17.2788 77.606 17.3309 77.615C19.9287 77.973 22.5465 78.1671 25.1688 78.196C28.8589 78.221 26.762 83.961 24.1263 82.039Z" fill="url(#paint41_linear_1_22164)" />
	<path d="M16.1563 78.9763C16.1373 78.9293 16.2074 78.8914 16.2394 78.9274C17.1327 79.9214 18.1831 80.7794 19.1294 81.7274C20.0757 82.6754 20.987 83.6744 22.0084 84.5354C24.577 86.6974 19.3908 90.0273 18.5566 86.5413C18.2502 85.2603 17.7645 84.0123 17.349 82.7623C16.9334 81.5123 16.641 80.2003 16.1563 78.9763Z" fill="url(#paint42_linear_1_22164)" />
	<path d="M14.5631 79.2434C14.6693 81.7963 14.9183 84.3412 15.3091 86.8664C15.9289 90.7034 9.89558 89.7514 11.5339 86.3744C12.6447 84.05 13.6232 81.6649 14.4649 79.2304C14.4683 79.2189 14.4756 79.209 14.4856 79.2025C14.4957 79.1959 14.5077 79.1932 14.5196 79.1948C14.5314 79.1963 14.5424 79.2021 14.5503 79.211C14.5583 79.22 14.5628 79.2314 14.5631 79.2434Z" fill="url(#paint43_linear_1_22164)" />
	<path d="M3.23632 154.146C-0.321613 151.62 -0.305589 146.96 2.48228 143.884C3.00138 143.39 3.69068 143.115 4.40745 143.115C5.12421 143.115 5.81352 143.39 6.33262 143.884C7.7616 144.996 6.61001 145.917 6.75821 147.178C5.49847 148.43 6.33562 149.49 9.26969 150.36C10.4138 150.044 11.4061 149.328 12.0656 148.343C13.852 146.234 13.9822 143.693 13.1671 141.113C11.7571 136.658 8.46558 133.281 5.79387 129.501C4.77875 128.685 3.93871 127.674 3.32394 126.527C2.70918 125.38 2.33233 124.12 2.21591 122.825C1.68918 117.63 3.5818 112.35 6.21145 107.951C9.59714 102.288 16.9523 97.4627 17.3519 90.5247C17.3502 90.5114 17.3538 90.498 17.362 90.4874C17.3701 90.4768 17.3822 90.4699 17.3955 90.4682C17.4087 90.4665 17.4222 90.4701 17.4328 90.4782C17.4434 90.4864 17.4503 90.4984 17.452 90.5117C19.3967 97.1047 12.0445 102.54 9.09044 107.694C6.74018 111.803 3.29641 119.645 6.29156 124.279C9.7083 129.568 13.1761 124.907 16.9063 123.655C17.4224 123.518 17.9718 123.588 18.4363 123.852C18.9008 124.115 19.2431 124.55 19.3897 125.063C19.4678 125.374 19.5469 125.686 19.6251 125.998C19.7601 126.497 19.7615 127.023 19.6292 127.523C19.4969 128.023 19.2354 128.479 18.871 128.847C17.5925 130.106 15.993 130.991 14.2462 131.407C12.4994 131.822 10.6719 131.752 8.96227 131.204C15.0757 137.391 22.0304 144.125 15.237 151.969C12.36 155.295 7.05962 156.861 3.23632 154.146Z" fill="url(#paint44_linear_1_22164)" />
	<path d="M16.2284 56.0859C18.4895 55.9859 18.4374 59.7639 16.2284 59.5549C15.0534 59.3812 13.8537 59.4979 12.7344 59.8949C11.6151 60.2919 10.6104 60.957 9.80846 61.8319C9.70833 61.9459 9.5451 61.8219 9.57314 61.6959C9.89294 60.1516 10.7227 58.7592 11.9295 57.7419C13.1363 56.7247 14.6501 56.1415 16.2284 56.0859Z" fill="url(#paint45_linear_1_22164)" />
	<path d="M15.0077 51.2997C16.9624 50.4737 20.4963 49.6327 21.9433 51.6407C22.1073 51.9123 22.194 52.2235 22.194 52.5407C22.194 52.8579 22.1073 53.1691 21.9433 53.4407L21.8362 53.6147C21.705 53.8511 21.5179 54.0519 21.2912 54.1996C21.0645 54.3472 20.8051 54.4372 20.5355 54.4616C20.266 54.4861 19.9946 54.4443 19.7449 54.3399C19.4953 54.2355 19.275 54.0717 19.1034 53.8627C16.2995 52.4737 11.9084 54.1187 10.1149 56.3427C10.0778 56.3887 10.0148 56.3307 10.0368 56.2827C11.002 54.053 12.7785 52.2721 15.0077 51.2997Z" fill="url(#paint46_linear_1_22164)" />
	<path d="M3.19627 50.7376C5.19905 51.9286 5.64867 54.9806 5.19905 57.0646C5.1815 57.1228 5.14562 57.1739 5.09674 57.2101C5.04786 57.2464 4.98857 57.266 4.92767 57.266C4.86676 57.266 4.80747 57.2464 4.75859 57.2101C4.70971 57.1739 4.67384 57.1228 4.65629 57.0646C4.4182 56.1843 3.98261 55.3697 3.38252 54.6826C2.80372 54.0216 2.01363 53.6546 1.43683 53.0196C1.20126 52.7665 1.06317 52.4383 1.04711 52.0932C1.03105 51.7481 1.13806 51.4085 1.34912 51.1347C1.56017 50.861 1.86161 50.6709 2.19982 50.5981C2.53802 50.5254 2.8911 50.5748 3.19627 50.7376Z" fill="url(#paint47_linear_1_22164)" />
	<path d="M6.15738 41.4219C7.13471 42.7011 7.75876 44.2141 7.96717 45.8095C8.17558 47.405 7.96106 49.0272 7.34503 50.5139C7.34179 50.5247 7.3348 50.5339 7.32532 50.54C7.31585 50.546 7.30452 50.5485 7.29338 50.5469C7.28224 50.5453 7.27204 50.5398 7.26462 50.5314C7.25719 50.523 7.25304 50.5122 7.2529 50.5009C6.8305 47.8018 5.47837 45.3343 3.4296 43.5239C1.64512 41.9519 4.59822 39.2819 6.15738 41.4219Z" fill="url(#paint48_linear_1_22164)" />
	<path d="M9.7273 41.652C8.94421 39.345 13.3323 38.972 12.7154 41.652C12.3529 43.214 11.8342 45.452 10.6566 46.616C10.6391 46.6333 10.6174 46.6458 10.5937 46.6521C10.5699 46.6584 10.5449 46.6585 10.5212 46.6522C10.4974 46.646 10.4757 46.6336 10.4582 46.6164C10.4406 46.5992 10.4279 46.5777 10.4213 46.554C10.3496 45.8009 10.3162 45.0446 10.3211 44.288C10.2314 43.3885 10.0319 42.5033 9.7273 41.652Z" fill="url(#paint49_linear_1_22164)" />
	<path d="M9.89964 95.2324C7.31806 95.8034 7.32307 91.5714 9.89964 92.1584C10.9186 92.4161 11.9803 92.4588 13.0167 92.2837C14.0531 92.1086 15.0416 91.7195 15.919 91.1414C16.0191 91.0814 16.0942 91.2104 16.0331 91.2894C14.4927 93.2572 12.3311 94.6468 9.89964 95.2324Z" fill="url(#paint50_linear_1_22164)" />
	<path d="M6.55991 101.019C6.32904 101.082 6.08549 101.083 5.85402 101.022C5.62255 100.961 5.41142 100.84 5.24209 100.671L5.02578 100.471C4.87306 100.316 4.7753 100.116 4.74745 99.9004C4.7196 99.6849 4.7632 99.4663 4.87157 99.278C5.69972 98.005 7.08163 98.434 8.42349 98.238C10.0775 97.9824 11.6718 97.4312 13.13 96.6109C13.1399 96.6057 13.1513 96.6042 13.1622 96.6066C13.1732 96.609 13.1829 96.6152 13.1896 96.6241C13.1964 96.633 13.1997 96.644 13.1991 96.6552C13.1984 96.6663 13.1938 96.6769 13.1861 96.6849C11.3953 98.6838 9.11041 100.178 6.55991 101.019Z" fill="url(#paint51_linear_1_22164)" />
	<path d="M5.96913 104.9C5.40827 105.55 4.94635 106.28 4.59822 107.065C3.93831 108.627 1.65915 107.491 2.53937 106.199C3.13741 105.299 3.87029 104.496 4.71239 103.819C5.54067 103.244 6.4957 102.878 7.49625 102.751C7.51603 102.746 7.5369 102.747 7.55571 102.755C7.57452 102.763 7.59025 102.777 7.60053 102.795C7.61081 102.812 7.61508 102.833 7.61271 102.853C7.61034 102.873 7.60144 102.892 7.58737 102.907C7.01448 103.543 6.47437 104.209 5.96913 104.9Z" fill="url(#paint52_linear_1_22164)" />
	<path d="M19.4118 91.0688C20.5449 92.1275 21.4742 93.3846 22.1536 94.7778C22.8336 96.1598 23.5636 97.5408 23.3383 99.0948C23.164 100.302 21.3916 100.344 20.8508 99.4198C20.1548 98.2308 20.256 96.7488 19.9606 95.4198C19.6602 94.0468 19.3447 92.6708 19.0193 91.3018C19.006 91.252 19.0094 91.1992 19.0289 91.1514C19.0484 91.1036 19.083 91.0635 19.1274 91.0372C19.1718 91.0108 19.2236 90.9997 19.2749 91.0054C19.3262 91.0111 19.3743 91.0334 19.4118 91.0688Z" fill="url(#paint53_linear_1_22164)" />
	<path d="M18.2101 106.994C17.9516 107.141 17.6456 107.182 17.3575 107.107C17.0693 107.032 16.8219 106.848 16.668 106.594C15.8859 105.353 16.5969 104.249 16.9223 102.947C17.294 101.403 17.454 99.8162 17.398 98.2296C17.398 98.0986 17.5982 98.0296 17.6603 98.1586C18.3445 99.6849 18.8236 101.295 19.0853 102.947C19.3246 104.52 19.614 105.98 18.2101 106.994Z" fill="url(#paint54_linear_1_22164)" />
	<path d="M10.7287 111.722C10.7988 110.285 11.653 109.214 12.2388 107.922C12.9328 106.397 13.4485 104.792 14.0663 103.235C14.0813 103.196 14.1464 103.185 14.1565 103.235C14.4575 104.863 14.5075 106.527 14.3047 108.171C14.1384 109.755 14.0703 111.424 12.9858 112.652C12.7989 112.83 12.5641 112.951 12.3099 112.998C12.0557 113.046 11.7931 113.019 11.554 112.921C11.3149 112.822 11.1096 112.656 10.9631 112.444C10.8166 112.231 10.7352 111.98 10.7287 111.722Z" fill="url(#paint55_linear_1_22164)" />
	<path d="M7.85379 120.263C6.37374 117.739 6.96056 115.045 8.45463 112.732C8.46192 112.722 8.47267 112.715 8.4848 112.712C8.49692 112.709 8.50957 112.711 8.52029 112.718C8.53101 112.724 8.53903 112.734 8.54281 112.746C8.54659 112.757 8.54586 112.77 8.54075 112.782C7.6395 114.865 8.65291 117.041 10.155 118.487C11.6811 119.951 8.94931 122.132 7.85379 120.263Z" fill="url(#paint56_linear_1_22164)" />
	<path d="M14.9816 77.9431C14.7595 77.9375 14.5415 77.8822 14.3436 77.7812C14.1458 77.6803 13.9732 77.5362 13.8386 77.3596C13.704 77.1831 13.6109 76.9786 13.5661 76.7613C13.5212 76.544 13.5259 76.3194 13.5797 76.1041L13.6247 75.8661C13.7131 75.5752 13.8928 75.3203 14.1373 75.1392C14.3818 74.9581 14.6782 74.8604 14.9826 74.8604C15.2871 74.8604 15.5834 74.9581 15.8279 75.1392C16.0724 75.3203 16.2522 75.5752 16.3405 75.8661L16.3856 76.1041C16.44 76.3196 16.445 76.5445 16.4003 76.7622C16.3556 76.9799 16.2624 77.1848 16.1275 77.3615C15.9925 77.5382 15.8194 77.6823 15.6211 77.783C15.4227 77.8837 15.2041 77.9384 14.9816 77.9431Z" fill="url(#paint57_linear_1_22164)" />
	<path d="M13.3264 133.5C13.2692 133.44 13.2307 133.365 13.2156 133.283C13.2005 133.202 13.2094 133.118 13.2413 133.042C13.2731 132.965 13.3265 132.9 13.395 132.853C13.4635 132.807 13.544 132.781 13.6268 132.78C14.8951 132.894 16.1734 132.817 17.4191 132.554C18.6728 132.268 19.9305 132.254 21.1893 131.996C24.9175 131.232 25.6765 136.996 21.8823 137.112C20.1857 137.276 18.4762 136.978 16.9354 136.251C15.6032 135.516 14.387 134.589 13.3264 133.5Z" fill="url(#paint58_linear_1_22164)" />
	<path d="M34.0241 75.1926C35.9187 72.4676 38.2479 70.0516 40.3929 67.5156C40.467 67.4449 40.5621 67.4001 40.6639 67.3881C40.7656 67.376 40.8686 67.3973 40.9572 67.4488C41.0458 67.5002 41.1152 67.579 41.1551 67.6733C41.1949 67.7677 41.2029 67.8723 41.178 67.9716C39.9843 71.0636 38.989 74.2636 37.5099 77.2266C36.3463 79.5596 32.539 77.3296 34.0241 75.1926Z" fill="url(#paint59_linear_1_22164)" />
	<path d="M43.1868 77.826C43.1684 78.2612 42.9823 78.6726 42.6674 78.974C42.3525 79.2755 41.9332 79.4438 41.4969 79.4438C41.0607 79.4438 40.6413 79.2755 40.3264 78.974C40.0115 78.6726 39.8255 78.2612 39.8071 77.826C39.6158 74.845 41.2621 71.626 42.8333 69.198C42.8987 69.0933 42.9994 69.0153 43.1173 68.9781C43.2351 68.941 43.3624 68.9471 43.4762 68.9953C43.5899 69.0435 43.6827 69.1308 43.7378 69.2413C43.7929 69.3518 43.8066 69.4783 43.7766 69.598C43.5073 71.0061 43.3327 72.4306 43.2539 73.862C43.1647 75.174 43.356 76.529 43.1868 77.826Z" fill="url(#paint60_linear_1_22164)" />
	<path d="M46.7587 69.9933C46.7924 69.939 46.841 69.8955 46.8987 69.8681C46.9565 69.8407 47.0209 69.8305 47.0844 69.8387C47.1478 69.8469 47.2075 69.8733 47.2563 69.9145C47.3051 69.9558 47.341 70.0102 47.3596 70.0713C47.7601 71.3823 47.9033 72.7253 48.2608 74.0493C48.6882 75.3944 49.1935 76.7136 49.7739 78.0003C50.568 79.9833 47.1843 81.0003 46.5144 78.9003C45.6532 76.2003 45.484 72.5653 46.7587 69.9933Z" fill="url(#paint61_linear_1_22164)" />
	<path d="M51.7937 70.3421C51.8297 70.2263 51.9018 70.125 51.9996 70.0531C52.0973 69.9812 52.2155 69.9424 52.337 69.9424C52.4584 69.9424 52.5766 69.9812 52.6743 70.0531C52.7721 70.125 52.8442 70.2263 52.8802 70.3421C53.6733 72.5988 54.6743 74.7771 55.8703 76.8491C57.072 78.6861 53.8676 80.4861 52.9663 78.5431C51.8327 76.0871 51.0026 73.0171 51.7937 70.3421Z" fill="url(#paint62_linear_1_22164)" />
	<path d="M57.4105 68.7313C57.4262 68.6764 57.456 68.6265 57.4969 68.5865C57.5377 68.5465 57.5883 68.5178 57.6436 68.5032C57.6989 68.4885 57.7571 68.4885 57.8124 68.5031C57.8677 68.5177 57.9183 68.5463 57.9592 68.5863C59.6986 70.5093 60.8973 72.8953 62.6147 74.8643C62.7799 75.0437 62.906 75.2555 62.9849 75.4862C63.0637 75.7169 63.0938 75.9615 63.073 76.2043C63.0523 76.4472 62.9812 76.6831 62.8643 76.8971C62.7474 77.1111 62.5872 77.2985 62.3939 77.4474C62.2007 77.5963 61.9785 77.7035 61.7416 77.7621C61.5046 77.8207 61.2581 77.8296 61.0176 77.788C60.777 77.7464 60.5478 77.6554 60.3443 77.5206C60.1409 77.3859 59.9678 77.2104 59.8358 77.0053C58.2236 74.6693 56.7986 71.6273 57.4105 68.7313Z" fill="url(#paint63_linear_1_22164)" />
	<path d="M64.5524 66.1799C65.8176 68.2228 67.5036 69.9735 69.4982 71.3159C72.1019 73.0499 68.7632 76.6369 67.0518 74.4819C65.2118 72.2207 63.8799 69.591 63.1464 66.7709C63.1005 66.592 63.1204 66.4027 63.2026 66.2373C63.2848 66.0719 63.4238 65.9415 63.5942 65.8699C63.7646 65.7983 63.9551 65.7902 64.131 65.8471C64.3069 65.904 64.4564 66.0221 64.5524 66.1799Z" fill="url(#paint64_linear_1_22164)" />
	<path d="M34.8632 45.8074C34.852 45.8005 34.844 45.7895 34.8409 45.7768C34.8377 45.7641 34.8397 45.7506 34.8464 45.7393C34.8531 45.7281 34.864 45.7199 34.8767 45.7165C34.8894 45.7132 34.9029 45.7149 34.9143 45.7214C37.8604 47.2824 40.452 49.3664 41.2431 52.7714C41.8549 55.4084 41.4083 59.5194 38.3691 60.3524C38.1216 60.4156 37.8619 60.4134 37.6155 60.3459C37.3692 60.2785 37.1446 60.1481 36.9641 59.9677C36.7835 59.7872 36.6531 59.563 36.5857 59.3169C36.5182 59.0708 36.5162 58.8115 36.5796 58.5644C37.0422 56.5644 38.7236 55.3154 38.8327 53.0974C38.9749 50.1904 37.1494 47.4514 34.8632 45.8074Z" fill="url(#paint65_linear_1_22164)" />
	<path d="M19.6101 41.4267C21.763 41.2387 21.5938 45.0267 19.1905 44.5267C17.514 44.0627 15.7277 44.1992 14.1415 44.9127C14.1014 44.9357 14.0413 44.8867 14.0724 44.8447C14.6299 43.9581 15.3546 43.1881 16.2063 42.5777C17.2309 41.9246 18.3989 41.5297 19.6101 41.4267Z" fill="url(#paint66_linear_1_22164)" />
	<path d="M31.1861 33.3824C25.6043 35.7064 16.8662 35.2934 12.1016 31.2774C11.9061 31.0847 11.7658 30.8432 11.6953 30.578C11.6249 30.3128 11.6269 30.0336 11.7011 29.7694L11.8473 29.2104C11.8936 29.0535 11.9889 28.9155 12.1194 28.8166C12.2498 28.7176 12.4085 28.6629 12.5723 28.6604C13.1786 28.6003 13.7871 28.7504 14.2957 29.0854C16.0741 30.0654 17.0815 31.3504 19.1704 32.0854C22.8685 33.3794 27.3468 34.4804 31.158 33.2854C31.2181 33.2664 31.2392 33.3584 31.1861 33.3824Z" fill="url(#paint67_linear_1_22164)" />
	<defs>
		<linearGradient id="paint0_linear_1_22164" x1="1911.13" y1="-31.187" x2="2075.8" y2="125.752" gradientUnits="userSpaceOnUse">
			<stop stop-color="#B87B26" />
			<stop offset="0.33" stop-color="#FFBF4A" />
			<stop offset="1" stop-color="#C0822A" />
		</linearGradient>
		<linearGradient id="paint1_linear_1_22164" x1="1914.17" y1="-34.6786" x2="2091.92" y2="-0.653718" gradientUnits="userSpaceOnUse">
			<stop stop-color="#B87B26" />
			<stop offset="0.33" stop-color="#FFBF4A" />
			<stop offset="1" stop-color="#C0822A" />
		</linearGradient>
		<linearGradient id="paint2_linear_1_22164" x1="1918.54" y1="-36.112" x2="2094.43" y2="104.279" gradientUnits="userSpaceOnUse">
			<stop stop-color="#B87B26" />
			<stop offset="0.33" stop-color="#FFBF4A" />
			<stop offset="1" stop-color="#C0822A" />
		</linearGradient>
		<linearGradient id="paint3_linear_1_22164" x1="1915.17" y1="-35.5651" x2="1944.25" y2="153.807" gradientUnits="userSpaceOnUse">
			<stop stop-color="#B87B26" />
			<stop offset="0.33" stop-color="#FFBF4A" />
			<stop offset="1" stop-color="#C0822A" />
		</linearGradient>
		<linearGradient id="paint4_linear_1_22164" x1="1911.44" y1="-33.3031" x2="1987.55" y2="166.105" gradientUnits="userSpaceOnUse">
			<stop stop-color="#B87B26" />
			<stop offset="0.33" stop-color="#FFBF4A" />
			<stop offset="1" stop-color="#C0822A" />
		</linearGradient>
		<linearGradient id="paint5_linear_1_22164" x1="1907.65" y1="-28.8733" x2="2094.77" y2="31.3412" gradientUnits="userSpaceOnUse">
			<stop stop-color="#B87B26" />
			<stop offset="0.33" stop-color="#FFBF4A" />
			<stop offset="1" stop-color="#C0822A" />
		</linearGradient>
		<linearGradient id="paint6_linear_1_22164" x1="1905.08" y1="-26.6238" x2="2089.21" y2="22.81" gradientUnits="userSpaceOnUse">
			<stop stop-color="#B87B26" />
			<stop offset="0.33" stop-color="#FFBF4A" />
			<stop offset="1" stop-color="#C0822A" />
		</linearGradient>
		<linearGradient id="paint7_linear_1_22164" x1="1905.23" y1="-26.1641" x2="1995.64" y2="172.286" gradientUnits="userSpaceOnUse">
			<stop stop-color="#B87B26" />
			<stop offset="0.33" stop-color="#FFBF4A" />
			<stop offset="1" stop-color="#C0822A" />
		</linearGradient>
		<linearGradient id="paint8_linear_1_22164" x1="1907.78" y1="-27.6913" x2="1934.97" y2="160.881" gradientUnits="userSpaceOnUse">
			<stop stop-color="#B87B26" />
			<stop offset="0.33" stop-color="#FFBF4A" />
			<stop offset="1" stop-color="#C0822A" />
		</linearGradient>
		<linearGradient id="paint9_linear_1_22164" x1="1884.82" y1="-8.44431" x2="1898.86" y2="172.862" gradientUnits="userSpaceOnUse">
			<stop stop-color="#B87B26" />
			<stop offset="0.33" stop-color="#FFBF4A" />
			<stop offset="1" stop-color="#C0822A" />
		</linearGradient>
		<linearGradient id="paint10_linear_1_22164" x1="1940.29" y1="-57.8667" x2="2091.68" y2="112.903" gradientUnits="userSpaceOnUse">
			<stop stop-color="#B87B26" />
			<stop offset="0.33" stop-color="#FFBF4A" />
			<stop offset="1" stop-color="#C0822A" />
		</linearGradient>
		<linearGradient id="paint11_linear_1_22164" x1="1920.57" y1="-40.3621" x2="2109.1" y2="62.6588" gradientUnits="userSpaceOnUse">
			<stop stop-color="#B87B26" />
			<stop offset="0.33" stop-color="#FFBF4A" />
			<stop offset="1" stop-color="#C0822A" />
		</linearGradient>
		<linearGradient id="paint12_linear_1_22164" x1="1922.21" y1="-41.8179" x2="2106.54" y2="8.20292" gradientUnits="userSpaceOnUse">
			<stop stop-color="#B87B26" />
			<stop offset="0.33" stop-color="#FFBF4A" />
			<stop offset="1" stop-color="#C0822A" />
		</linearGradient>
		<linearGradient id="paint13_linear_1_22164" x1="1919.39" y1="-47.6871" x2="1991.98" y2="151.835" gradientUnits="userSpaceOnUse">
			<stop stop-color="#B87B26" />
			<stop offset="0.33" stop-color="#FFBF4A" />
			<stop offset="1" stop-color="#C0822A" />
		</linearGradient>
		<linearGradient id="paint14_linear_1_22164" x1="1932.35" y1="-50.7443" x2="1979.33" y2="145.059" gradientUnits="userSpaceOnUse">
			<stop stop-color="#B87B26" />
			<stop offset="0.33" stop-color="#FFBF4A" />
			<stop offset="1" stop-color="#C0822A" />
		</linearGradient>
		<linearGradient id="paint15_linear_1_22164" x1="1931.55" y1="-49.6956" x2="1966.95" y2="142.215" gradientUnits="userSpaceOnUse">
			<stop stop-color="#B87B26" />
			<stop offset="0.33" stop-color="#FFBF4A" />
			<stop offset="1" stop-color="#C0822A" />
		</linearGradient>
		<linearGradient id="paint16_linear_1_22164" x1="1903" y1="-24.7734" x2="2088.99" y2="30.8523" gradientUnits="userSpaceOnUse">
			<stop stop-color="#B87B26" />
			<stop offset="0.33" stop-color="#FFBF4A" />
			<stop offset="1" stop-color="#C0822A" />
		</linearGradient>
		<linearGradient id="paint17_linear_1_22164" x1="1897.12" y1="-23.1919" x2="2083.6" y2="35.5952" gradientUnits="userSpaceOnUse">
			<stop stop-color="#B87B26" />
			<stop offset="0.33" stop-color="#FFBF4A" />
			<stop offset="1" stop-color="#C0822A" />
		</linearGradient>
		<linearGradient id="paint18_linear_1_22164" x1="1899.6" y1="-21.3838" x2="2057.11" y2="143.489" gradientUnits="userSpaceOnUse">
			<stop stop-color="#B87B26" />
			<stop offset="0.33" stop-color="#FFBF4A" />
			<stop offset="1" stop-color="#C0822A" />
		</linearGradient>
		<linearGradient id="paint19_linear_1_22164" x1="1896.4" y1="-19.2154" x2="1936.19" y2="174.36" gradientUnits="userSpaceOnUse">
			<stop stop-color="#B87B26" />
			<stop offset="0.33" stop-color="#FFBF4A" />
			<stop offset="1" stop-color="#C0822A" />
		</linearGradient>
		<linearGradient id="paint20_linear_1_22164" x1="1891.11" y1="-17.0611" x2="1908.51" y2="166.18" gradientUnits="userSpaceOnUse">
			<stop stop-color="#B87B26" />
			<stop offset="0.33" stop-color="#FFBF4A" />
			<stop offset="1" stop-color="#C0822A" />
		</linearGradient>
		<linearGradient id="paint21_linear_1_22164" x1="1890.87" y1="-16.302" x2="1914.23" y2="170.372" gradientUnits="userSpaceOnUse">
			<stop stop-color="#B87B26" />
			<stop offset="0.33" stop-color="#FFBF4A" />
			<stop offset="1" stop-color="#C0822A" />
		</linearGradient>
		<linearGradient id="paint22_linear_1_22164" x1="1889.84" y1="-13.8417" x2="1921.97" y2="176.796" gradientUnits="userSpaceOnUse">
			<stop stop-color="#B87B26" />
			<stop offset="0.33" stop-color="#FFBF4A" />
			<stop offset="1" stop-color="#C0822A" />
		</linearGradient>
		<linearGradient id="paint23_linear_1_22164" x1="1909.67" y1="-32.0011" x2="2050.48" y2="149.418" gradientUnits="userSpaceOnUse">
			<stop stop-color="#B87B26" />
			<stop offset="0.33" stop-color="#FFBF4A" />
			<stop offset="1" stop-color="#C0822A" />
		</linearGradient>
		<linearGradient id="paint24_linear_1_22164" x1="1886.6" y1="-0.845605" x2="2070.03" y2="44.3707" gradientUnits="userSpaceOnUse">
			<stop stop-color="#B87B26" />
			<stop offset="0.33" stop-color="#FFBF4A" />
			<stop offset="1" stop-color="#C0822A" />
		</linearGradient>
		<linearGradient id="paint25_linear_1_22164" x1="1911.72" y1="-32.5251" x2="2063.07" y2="138.277" gradientUnits="userSpaceOnUse">
			<stop stop-color="#B87B26" />
			<stop offset="0.33" stop-color="#FFBF4A" />
			<stop offset="1" stop-color="#C0822A" />
		</linearGradient>
		<linearGradient id="paint26_linear_1_22164" x1="1899.49" y1="-22.6217" x2="1983.92" y2="176.144" gradientUnits="userSpaceOnUse">
			<stop stop-color="#B87B26" />
			<stop offset="0.33" stop-color="#FFBF4A" />
			<stop offset="1" stop-color="#C0822A" />
		</linearGradient>
		<linearGradient id="paint27_linear_1_22164" x1="1895.63" y1="-20.2885" x2="1919.63" y2="166.706" gradientUnits="userSpaceOnUse">
			<stop stop-color="#B87B26" />
			<stop offset="0.33" stop-color="#FFBF4A" />
			<stop offset="1" stop-color="#C0822A" />
		</linearGradient>
		<linearGradient id="paint28_linear_1_22164" x1="1894.2" y1="-17.452" x2="1920.32" y2="170.318" gradientUnits="userSpaceOnUse">
			<stop stop-color="#B87B26" />
			<stop offset="0.33" stop-color="#FFBF4A" />
			<stop offset="1" stop-color="#C0822A" />
		</linearGradient>
		<linearGradient id="paint29_linear_1_22164" x1="1892.13" y1="-15.2058" x2="1933.86" y2="178.964" gradientUnits="userSpaceOnUse">
			<stop stop-color="#B87B26" />
			<stop offset="0.33" stop-color="#FFBF4A" />
			<stop offset="1" stop-color="#C0822A" />
		</linearGradient>
		<linearGradient id="paint30_linear_1_22164" x1="1884.09" y1="-12.8499" x2="1952.38" y2="185.389" gradientUnits="userSpaceOnUse">
			<stop stop-color="#B87B26" />
			<stop offset="0.33" stop-color="#FFBF4A" />
			<stop offset="1" stop-color="#C0822A" />
		</linearGradient>
		<linearGradient id="paint31_linear_1_22164" x1="1887.29" y1="-11.5946" x2="1993.66" y2="183.465" gradientUnits="userSpaceOnUse">
			<stop stop-color="#B87B26" />
			<stop offset="0.33" stop-color="#FFBF4A" />
			<stop offset="1" stop-color="#C0822A" />
		</linearGradient>
		<linearGradient id="paint32_linear_1_22164" x1="1911.53" y1="-33.2758" x2="1946.16" y2="158.423" gradientUnits="userSpaceOnUse">
			<stop stop-color="#B87B26" />
			<stop offset="0.33" stop-color="#FFBF4A" />
			<stop offset="1" stop-color="#C0822A" />
		</linearGradient>
		<linearGradient id="paint33_linear_1_22164" x1="1927.19" y1="-46.2256" x2="2111.93" y2="5.08287" gradientUnits="userSpaceOnUse">
			<stop stop-color="#B87B26" />
			<stop offset="0.33" stop-color="#FFBF4A" />
			<stop offset="1" stop-color="#C0822A" />
		</linearGradient>
		<linearGradient id="paint34_linear_1_22164" x1="1934.49" y1="-50.886" x2="2103.23" y2="-32.0301" gradientUnits="userSpaceOnUse">
			<stop stop-color="#B87B26" />
			<stop offset="0.33" stop-color="#FFBF4A" />
			<stop offset="1" stop-color="#C0822A" />
		</linearGradient>
		<linearGradient id="paint35_linear_1_22164" x1="1916.03" y1="-35.5327" x2="2052.32" y2="146.577" gradientUnits="userSpaceOnUse">
			<stop stop-color="#B87B26" />
			<stop offset="0.33" stop-color="#FFBF4A" />
			<stop offset="1" stop-color="#C0822A" />
		</linearGradient>
		<linearGradient id="paint36_linear_1_22164" x1="1917.95" y1="-38.6583" x2="1946.47" y2="150.635" gradientUnits="userSpaceOnUse">
			<stop stop-color="#B87B26" />
			<stop offset="0.33" stop-color="#FFBF4A" />
			<stop offset="1" stop-color="#C0822A" />
		</linearGradient>
		<linearGradient id="paint37_linear_1_22164" x1="1918.28" y1="-39.7693" x2="2037.92" y2="150.94" gradientUnits="userSpaceOnUse">
			<stop stop-color="#B87B26" />
			<stop offset="0.33" stop-color="#FFBF4A" />
			<stop offset="1" stop-color="#C0822A" />
		</linearGradient>
		<linearGradient id="paint38_linear_1_22164" x1="1918.77" y1="-38.7569" x2="2096.91" y2="-3.94443" gradientUnits="userSpaceOnUse">
			<stop stop-color="#B87B26" />
			<stop offset="0.33" stop-color="#FFBF4A" />
			<stop offset="1" stop-color="#C0822A" />
		</linearGradient>
		<linearGradient id="paint39_linear_1_22164" x1="1916.05" y1="-36.1867" x2="2105.76" y2="55.8768" gradientUnits="userSpaceOnUse">
			<stop stop-color="#B87B26" />
			<stop offset="0.33" stop-color="#FFBF4A" />
			<stop offset="1" stop-color="#C0822A" />
		</linearGradient>
		<linearGradient id="paint40_linear_1_22164" x1="1910.66" y1="-31.8844" x2="1960.31" y2="164.449" gradientUnits="userSpaceOnUse">
			<stop stop-color="#B87B26" />
			<stop offset="0.33" stop-color="#FFBF4A" />
			<stop offset="1" stop-color="#C0822A" />
		</linearGradient>
		<linearGradient id="paint41_linear_1_22164" x1="1908.76" y1="-29.8842" x2="1949.67" y2="164.034" gradientUnits="userSpaceOnUse">
			<stop stop-color="#B87B26" />
			<stop offset="0.33" stop-color="#FFBF4A" />
			<stop offset="1" stop-color="#C0822A" />
		</linearGradient>
		<linearGradient id="paint42_linear_1_22164" x1="1908.62" y1="-29.7993" x2="2096.12" y2="78.9179" gradientUnits="userSpaceOnUse">
			<stop stop-color="#B87B26" />
			<stop offset="0.33" stop-color="#FFBF4A" />
			<stop offset="1" stop-color="#C0822A" />
		</linearGradient>
		<linearGradient id="paint43_linear_1_22164" x1="1910.65" y1="-31.5696" x2="2087.61" y2="0.910664" gradientUnits="userSpaceOnUse">
			<stop stop-color="#B87B26" />
			<stop offset="0.33" stop-color="#FFBF4A" />
			<stop offset="1" stop-color="#C0822A" />
		</linearGradient>
		<linearGradient id="paint44_linear_1_22164" x1="1891.93" y1="-14.3497" x2="2058.79" y2="2.08139" gradientUnits="userSpaceOnUse">
			<stop stop-color="#B87B26" />
			<stop offset="0.33" stop-color="#FFBF4A" />
			<stop offset="1" stop-color="#C0822A" />
		</linearGradient>
		<linearGradient id="paint45_linear_1_22164" x1="1923.4" y1="-42.8475" x2="2008.84" y2="156.117" gradientUnits="userSpaceOnUse">
			<stop stop-color="#B87B26" />
			<stop offset="0.33" stop-color="#FFBF4A" />
			<stop offset="1" stop-color="#C0822A" />
		</linearGradient>
		<linearGradient id="paint46_linear_1_22164" x1="1924.5" y1="-43.9367" x2="1965.93" y2="150.211" gradientUnits="userSpaceOnUse">
			<stop stop-color="#B87B26" />
			<stop offset="0.33" stop-color="#FFBF4A" />
			<stop offset="1" stop-color="#C0822A" />
		</linearGradient>
		<linearGradient id="paint47_linear_1_22164" x1="1933.07" y1="-49.6754" x2="2122.6" y2="38.0215" gradientUnits="userSpaceOnUse">
			<stop stop-color="#B87B26" />
			<stop offset="0.33" stop-color="#FFBF4A" />
			<stop offset="1" stop-color="#C0822A" />
		</linearGradient>
		<linearGradient id="paint48_linear_1_22164" x1="1935.89" y1="-52.9927" x2="2122.28" y2="3.89379" gradientUnits="userSpaceOnUse">
			<stop stop-color="#B87B26" />
			<stop offset="0.33" stop-color="#FFBF4A" />
			<stop offset="1" stop-color="#C0822A" />
		</linearGradient>
		<linearGradient id="paint49_linear_1_22164" x1="1932.97" y1="-51.617" x2="2114.61" y2="-8.96384" gradientUnits="userSpaceOnUse">
			<stop stop-color="#B87B26" />
			<stop offset="0.33" stop-color="#FFBF4A" />
			<stop offset="1" stop-color="#C0822A" />
		</linearGradient>
		<linearGradient id="paint50_linear_1_22164" x1="1908.16" y1="-29.293" x2="1954.08" y2="166.102" gradientUnits="userSpaceOnUse">
			<stop stop-color="#B87B26" />
			<stop offset="0.33" stop-color="#FFBF4A" />
			<stop offset="1" stop-color="#C0822A" />
		</linearGradient>
		<linearGradient id="paint51_linear_1_22164" x1="1906.15" y1="-27.921" x2="1954.64" y2="167.778" gradientUnits="userSpaceOnUse">
			<stop stop-color="#B87B26" />
			<stop offset="0.33" stop-color="#FFBF4A" />
			<stop offset="1" stop-color="#C0822A" />
		</linearGradient>
		<linearGradient id="paint52_linear_1_22164" x1="1904.79" y1="-27.134" x2="2049.66" y2="148.965" gradientUnits="userSpaceOnUse">
			<stop stop-color="#B87B26" />
			<stop offset="0.33" stop-color="#FFBF4A" />
			<stop offset="1" stop-color="#C0822A" />
		</linearGradient>
		<linearGradient id="paint53_linear_1_22164" x1="1901.87" y1="-23.3595" x2="2085.55" y2="24.6806" gradientUnits="userSpaceOnUse">
			<stop stop-color="#B87B26" />
			<stop offset="0.33" stop-color="#FFBF4A" />
			<stop offset="1" stop-color="#C0822A" />
		</linearGradient>
		<linearGradient id="paint54_linear_1_22164" x1="1899.64" y1="-21.5567" x2="2069.35" y2="-1.04038" gradientUnits="userSpaceOnUse">
			<stop stop-color="#B87B26" />
			<stop offset="0.33" stop-color="#FFBF4A" />
			<stop offset="1" stop-color="#C0822A" />
		</linearGradient>
		<linearGradient id="paint55_linear_1_22164" x1="1900.5" y1="-21.408" x2="2074.9" y2="6.35761" gradientUnits="userSpaceOnUse">
			<stop stop-color="#B87B26" />
			<stop offset="0.33" stop-color="#FFBF4A" />
			<stop offset="1" stop-color="#C0822A" />
		</linearGradient>
		<linearGradient id="paint56_linear_1_22164" x1="1896.55" y1="-19.7861" x2="2076.37" y2="18.7708" gradientUnits="userSpaceOnUse">
			<stop stop-color="#B87B26" />
			<stop offset="0.33" stop-color="#FFBF4A" />
			<stop offset="1" stop-color="#C0822A" />
		</linearGradient>
		<linearGradient id="paint57_linear_1_22164" x1="1932.41" y1="-34.7456" x2="2095.55" y2="125.515" gradientUnits="userSpaceOnUse">
			<stop stop-color="#B87B26" />
			<stop offset="0.33" stop-color="#FFBF4A" />
			<stop offset="1" stop-color="#C0822A" />
		</linearGradient>
		<linearGradient id="paint58_linear_1_22164" x1="1884.23" y1="-8.18651" x2="1921.74" y2="185.507" gradientUnits="userSpaceOnUse">
			<stop stop-color="#B87B26" />
			<stop offset="0.33" stop-color="#FFBF4A" />
			<stop offset="1" stop-color="#C0822A" />
		</linearGradient>
		<linearGradient id="paint59_linear_1_22164" x1="1899.69" y1="-24.5636" x2="2088.12" y2="77.2888" gradientUnits="userSpaceOnUse">
			<stop stop-color="#B87B26" />
			<stop offset="0.33" stop-color="#FFBF4A" />
			<stop offset="1" stop-color="#C0822A" />
		</linearGradient>
		<linearGradient id="paint60_linear_1_22164" x1="1901.4" y1="-21.929" x2="2076.3" y2="6.62974" gradientUnits="userSpaceOnUse">
			<stop stop-color="#B87B26" />
			<stop offset="0.33" stop-color="#FFBF4A" />
			<stop offset="1" stop-color="#C0822A" />
		</linearGradient>
		<linearGradient id="paint61_linear_1_22164" x1="1896.55" y1="-19.0647" x2="2072.85" y2="12.1762" gradientUnits="userSpaceOnUse">
			<stop stop-color="#B87B26" />
			<stop offset="0.33" stop-color="#FFBF4A" />
			<stop offset="1" stop-color="#C0822A" />
		</linearGradient>
		<linearGradient id="paint62_linear_1_22164" x1="1894.06" y1="-16.3881" x2="2078.56" y2="34.078" gradientUnits="userSpaceOnUse">
			<stop stop-color="#B87B26" />
			<stop offset="0.33" stop-color="#FFBF4A" />
			<stop offset="1" stop-color="#C0822A" />
		</linearGradient>
		<linearGradient id="paint63_linear_1_22164" x1="1881.66" y1="-13.6867" x2="2070.71" y2="69.1883" gradientUnits="userSpaceOnUse">
			<stop stop-color="#B87B26" />
			<stop offset="0.33" stop-color="#FFBF4A" />
			<stop offset="1" stop-color="#C0822A" />
		</linearGradient>
		<linearGradient id="paint64_linear_1_22164" x1="1888.86" y1="-11.9512" x2="2071.16" y2="114.531" gradientUnits="userSpaceOnUse">
			<stop stop-color="#B87B26" />
			<stop offset="0.33" stop-color="#FFBF4A" />
			<stop offset="1" stop-color="#C0822A" />
		</linearGradient>
		<linearGradient id="paint65_linear_1_22164" x1="1913.93" y1="-34.0892" x2="2095.18" y2="7.57671" gradientUnits="userSpaceOnUse">
			<stop stop-color="#B87B26" />
			<stop offset="0.33" stop-color="#FFBF4A" />
			<stop offset="1" stop-color="#C0822A" />
		</linearGradient>
		<linearGradient id="paint66_linear_1_22164" x1="1928.83" y1="-47.7785" x2="1971.36" y2="146.811" gradientUnits="userSpaceOnUse">
			<stop stop-color="#B87B26" />
			<stop offset="0.33" stop-color="#FFBF4A" />
			<stop offset="1" stop-color="#C0822A" />
		</linearGradient>
		<linearGradient id="paint67_linear_1_22164" x1="1933.41" y1="-51.516" x2="1949.45" y2="131.128" gradientUnits="userSpaceOnUse">
			<stop stop-color="#B87B26" />
			<stop offset="0.33" stop-color="#FFBF4A" />
			<stop offset="1" stop-color="#C0822A" />
		</linearGradient>
	</defs>
</svg>
