<svg width="41" height="34" viewBox="0 0 41 34" fill="none" xmlns="http://www.w3.org/2000/svg">
	<path d="M0.742981 29.8931C4.97222 30.1146 9.14444 28.84 12.528 26.293C10.8165 26.1937 9.17304 25.5886 7.80556 24.5548C6.43807 23.5209 5.40808 22.1045 4.84598 20.4849H8.22198L8.28299 20.2852C6.50408 19.8005 4.92253 18.7687 3.76198 17.336C2.60878 15.8844 1.97256 14.0897 1.95398 12.2359L5.27698 13.1529L5.39198 12.9532C1.91098 9.90219 1.15698 6.30112 3.09898 1.97712C5.16168 4.5172 7.72964 6.60085 10.6401 8.09626C13.5505 9.59166 16.7399 10.4662 20.006 10.6641C20.038 9.2831 20.1794 7.90658 20.429 6.54792C20.7989 5.19625 21.5078 3.96149 22.4885 2.96051C23.4693 1.95954 24.6894 1.22559 26.0332 0.828189C27.3771 0.430788 28.8001 0.382951 30.1675 0.689517C31.5349 0.996084 32.8014 1.64706 33.847 2.58014C34.0156 2.77591 34.2416 2.91325 34.493 2.97321C34.7443 3.03317 35.0081 3.01269 35.247 2.91413C36.668 2.38813 38.1 1.88888 39.58 1.36188C38.9729 3.02747 37.9224 4.49573 36.542 5.60797C37.226 5.46597 37.918 5.35294 38.591 5.17194C39.264 4.99094 39.922 4.74023 40.742 4.47223C39.8125 5.90557 38.6423 7.16746 37.283 8.20221C37.0802 8.33738 36.918 8.52504 36.8136 8.74518C36.7091 8.96532 36.6664 9.20969 36.69 9.45221C36.7656 13.6445 35.721 17.7809 33.664 21.4346C31.6071 25.0884 28.6123 28.1267 24.9887 30.2364C21.3652 32.3461 17.2443 33.4505 13.0514 33.4356C8.85845 33.4208 4.74546 32.2873 1.13698 30.1519C0.999978 30.0729 0.873981 29.9791 0.742981 29.8931Z" fill="url(#paint0_linear_1_27526)" />
	<defs>
		<linearGradient id="paint0_linear_1_27526" x1="30.4622" y1="25.9242" x2="10.4729" y2="-3.56965" gradientUnits="userSpaceOnUse">
			<stop stop-color="#FFF5DD" />
			<stop offset="1" stop-color="#F5B942" />
		</linearGradient>
	</defs>
</svg>
