<svg width="41" height="30" viewBox="0 0 41 30" fill="none" xmlns="http://www.w3.org/2000/svg">
	<path d="M20.2001 29.014C15.9401 28.778 11.134 28.577 6.33903 28.22C3.37503 28 1.81207 26.504 1.28807 23.575C0.628435 19.4792 0.450529 15.3201 0.75804 11.1829C0.856799 9.37994 1.0531 7.5833 1.34605 5.80155C1.46673 4.67844 1.97776 3.63333 2.79008 2.84843C3.6024 2.06352 4.66447 1.5887 5.79106 1.50663C8.68803 1.14925 11.6024 0.950893 14.521 0.911904C20.665 0.903904 26.81 1.06685 32.953 1.20585C34.0369 1.24097 35.1145 1.38616 36.1691 1.63896C37.1003 1.79489 37.9595 2.23806 38.6263 2.90653C39.2932 3.57501 39.7344 4.43535 39.888 5.36698C40.329 7.62984 40.5766 9.9259 40.628 12.2308C40.6586 15.8148 40.5027 19.3978 40.1611 22.9656C39.7871 26.6766 37.9781 28.1586 34.0051 28.3836C29.5921 28.6336 25.1731 28.792 20.2001 29.014ZM16.7151 20.8138L27.115 14.826L16.7151 8.84257V20.8138Z" fill="url(#paint0_linear_1_27498)" />
	<defs>
		<linearGradient id="paint0_linear_1_27498" x1="35.6293" y1="29.8008" x2="17.9253" y2="-6.11015" gradientUnits="userSpaceOnUse">
			<stop stop-color="#FFF5DD" />
			<stop offset="1" stop-color="#F5B942" />
		</linearGradient>
	</defs>
</svg>
